<?xml version="1.0" encoding="UTF-8"?>
<svg xmlns="http://www.w3.org/2000/svg" id="_图层_1" data-name="图层 1" viewBox="0 0 405 525">
  <defs>
    <style>
      .cls-1, .cls-2 {
        opacity: .1;
      }

      .cls-3 {
        fill: #0030d4;
      }

      .cls-4 {
        fill: #f4f4f4;
      }

      .cls-5, .cls-2, .cls-6 {
        fill: #fff;
      }

      .cls-7 {
        fill: #fffefd;
      }

      .cls-8 {
        fill: #8c8c8c;
      }

      .cls-9 {
        fill: #141414;
      }

      .cls-10 {
        fill: #393939;
      }

      .cls-11 {
        fill: #3c3c3b;
      }

      .cls-12 {
        fill: #343434;
      }

      .cls-2 {
        isolation: isolate;
      }

      .cls-6 {
        stroke: #1e1e1e;
        stroke-miterlimit: 10;
        stroke-width: .75px;
      }
    </style>
  </defs>
  <g>
    <rect class="cls-3" x="-3.51" y="-4.1" width="412.01" height="533.19"></rect>
    <path class="cls-2" d="M68.04,56.6c5.27-5.27,5.27-13.81,0-19.09l-9.54,9.54,9.54,9.54h0Z"></path>
    <path class="cls-2" d="M48.96,56.6l9.54-9.54-9.54-9.54c-5.27,5.27-5.27,13.81,0,19.09h0Z"></path>
    <path class="cls-2" d="M108.63,56.6c5.27-5.27,5.27-13.81,0-19.09l-9.54,9.54,9.54,9.54h0Z"></path>
    <path class="cls-2" d="M89.54,56.6l9.54-9.54-9.54-9.54c-5.27,5.27-5.27,13.81,0,19.09h0Z"></path>
    <path class="cls-2" d="M149.21,56.6c5.27-5.27,5.27-13.81,0-19.09l-9.54,9.54,9.54,9.54h0Z"></path>
    <path class="cls-2" d="M130.12,56.6l9.54-9.54-9.54-9.54c-5.27,5.27-5.27,13.81,0,19.09h0Z"></path>
    <path class="cls-2" d="M189.79,56.6c5.27-5.27,5.27-13.81,0-19.09l-9.54,9.54,9.54,9.54h0Z"></path>
    <path class="cls-2" d="M170.7,56.6l9.54-9.54-9.54-9.54c-5.27,5.27-5.27,13.81,0,19.09h0Z"></path>
    <path class="cls-2" d="M270.95,56.6c5.27-5.27,5.27-13.81,0-19.09l-9.54,9.54,9.54,9.54h0Z"></path>
    <path class="cls-2" d="M251.87,56.6l9.54-9.54-9.54-9.54c-5.27,5.27-5.27,13.81,0,19.09h0Z"></path>
    <path class="cls-2" d="M311.54,56.6c5.27-5.27,5.27-13.81,0-19.09l-9.54,9.54,9.54,9.54h0Z"></path>
    <path class="cls-2" d="M292.45,56.6l9.54-9.54-9.54-9.54c-5.27,5.27-5.27,13.81,0,19.09h0Z"></path>
    <path class="cls-2" d="M352.12,56.6c5.27-5.27,5.27-13.81,0-19.09l-9.54,9.54,9.54,9.54h0Z"></path>
    <path class="cls-2" d="M333.03,56.6l9.54-9.54-9.54-9.54c-5.27,5.27-5.27,13.81,0,19.09h0Z"></path>
    <path class="cls-2" d="M395.43,56.6c5.27-5.27,5.27-13.81,0-19.09l-9.54,9.54,9.54,9.54h0Z"></path>
    <path class="cls-2" d="M376.34,56.6l9.54-9.54-9.54-9.54c-5.27,5.27-5.27,13.81,0,19.09h0Z"></path>
    <path class="cls-2" d="M68.04,87.62c5.27-5.27,5.27-13.81,0-19.09l-9.54,9.54,9.54,9.54h0Z"></path>
    <path class="cls-2" d="M48.96,87.62l9.54-9.54-9.54-9.54c-5.27,5.27-5.27,13.81,0,19.09h0Z"></path>
    <path class="cls-2" d="M108.63,87.62c5.27-5.27,5.27-13.81,0-19.09l-9.54,9.54,9.54,9.54h0Z"></path>
    <path class="cls-2" d="M89.54,87.62l9.54-9.54-9.54-9.54c-5.27,5.27-5.27,13.81,0,19.09h0Z"></path>
    <path class="cls-2" d="M149.21,87.62c5.27-5.27,5.27-13.81,0-19.09l-9.54,9.54,9.54,9.54h0Z"></path>
    <path class="cls-2" d="M130.12,87.62l9.54-9.54-9.54-9.54c-5.27,5.27-5.27,13.81,0,19.09h0Z"></path>
    <path class="cls-2" d="M189.79,87.62c5.27-5.27,5.27-13.81,0-19.09l-9.54,9.54,9.54,9.54h0Z"></path>
    <path class="cls-2" d="M170.7,87.62l9.54-9.54-9.54-9.54c-5.27,5.27-5.27,13.81,0,19.09h0Z"></path>
    <path class="cls-2" d="M270.95,87.62c5.27-5.27,5.27-13.81,0-19.09l-9.54,9.54,9.54,9.54h0Z"></path>
    <path class="cls-2" d="M251.87,87.62l9.54-9.54-9.54-9.54c-5.27,5.27-5.27,13.81,0,19.09h0Z"></path>
    <path class="cls-2" d="M311.54,87.62c5.27-5.27,5.27-13.81,0-19.09l-9.54,9.54,9.54,9.54h0Z"></path>
    <path class="cls-2" d="M292.45,87.62l9.54-9.54-9.54-9.54c-5.27,5.27-5.27,13.81,0,19.09h0Z"></path>
    <path class="cls-2" d="M352.12,87.62c5.27-5.27,5.27-13.81,0-19.09l-9.54,9.54,9.54,9.54h0Z"></path>
    <path class="cls-2" d="M333.03,87.62l9.54-9.54-9.54-9.54c-5.27,5.27-5.27,13.81,0,19.09h0Z"></path>
    <path class="cls-2" d="M395.43,87.62c5.27-5.27,5.27-13.81,0-19.09l-9.54,9.54,9.54,9.54h0Z"></path>
    <path class="cls-2" d="M376.34,87.62l9.54-9.54-9.54-9.54c-5.27,5.27-5.27,13.81,0,19.09h0Z"></path>
    <path class="cls-2" d="M68.04,118.64c5.27-5.27,5.27-13.81,0-19.09l-9.54,9.54,9.54,9.54h0Z"></path>
    <path class="cls-2" d="M48.96,118.64l9.54-9.54-9.54-9.54c-5.27,5.27-5.27,13.81,0,19.09h0Z"></path>
    <path class="cls-2" d="M108.63,118.64c5.27-5.27,5.27-13.81,0-19.09l-9.54,9.54,9.54,9.54h0Z"></path>
    <path class="cls-2" d="M89.54,118.64l9.54-9.54-9.54-9.54c-5.27,5.27-5.27,13.81,0,19.09h0Z"></path>
    <path class="cls-2" d="M149.21,118.64c5.27-5.27,5.27-13.81,0-19.09l-9.54,9.54,9.54,9.54h0Z"></path>
    <path class="cls-2" d="M130.12,118.64l9.54-9.54-9.54-9.54c-5.27,5.27-5.27,13.81,0,19.09h0Z"></path>
    <path class="cls-2" d="M189.79,118.64c5.27-5.27,5.27-13.81,0-19.09l-9.54,9.54,9.54,9.54h0Z"></path>
    <path class="cls-2" d="M170.7,118.64l9.54-9.54-9.54-9.54c-5.27,5.27-5.27,13.81,0,19.09h0Z"></path>
    <path class="cls-2" d="M270.95,118.64c5.27-5.27,5.27-13.81,0-19.09l-9.54,9.54,9.54,9.54h0Z"></path>
    <path class="cls-2" d="M251.87,118.64l9.54-9.54-9.54-9.54c-5.27,5.27-5.27,13.81,0,19.09h0Z"></path>
    <path class="cls-2" d="M311.54,118.64c5.27-5.27,5.27-13.81,0-19.09l-9.54,9.54,9.54,9.54h0Z"></path>
    <path class="cls-2" d="M292.45,118.64l9.54-9.54-9.54-9.54c-5.27,5.27-5.27,13.81,0,19.09h0Z"></path>
    <path class="cls-2" d="M352.12,118.64c5.27-5.27,5.27-13.81,0-19.09l-9.54,9.54,9.54,9.54h0Z"></path>
    <path class="cls-2" d="M333.03,118.64l9.54-9.54-9.54-9.54c-5.27,5.27-5.27,13.81,0,19.09h0Z"></path>
    <path class="cls-2" d="M395.43,118.64c5.27-5.27,5.27-13.81,0-19.09l-9.54,9.54,9.54,9.54h0Z"></path>
    <path class="cls-2" d="M376.34,118.64l9.54-9.54-9.54-9.54c-5.27,5.27-5.27,13.81,0,19.09h0Z"></path>
    <path class="cls-2" d="M68.04,149.65c5.27-5.27,5.27-13.81,0-19.09l-9.54,9.54,9.54,9.54h0Z"></path>
    <path class="cls-2" d="M48.96,149.65l9.54-9.54-9.54-9.54c-5.27,5.27-5.27,13.81,0,19.09h0Z"></path>
    <path class="cls-2" d="M108.63,149.65c5.27-5.27,5.27-13.81,0-19.09l-9.54,9.54,9.54,9.54h0Z"></path>
    <path class="cls-2" d="M89.54,149.65l9.54-9.54-9.54-9.54c-5.27,5.27-5.27,13.81,0,19.09h0Z"></path>
    <path class="cls-2" d="M149.21,149.65c5.27-5.27,5.27-13.81,0-19.09l-9.54,9.54,9.54,9.54h0Z"></path>
    <path class="cls-2" d="M130.12,149.65l9.54-9.54-9.54-9.54c-5.27,5.27-5.27,13.81,0,19.09h0Z"></path>
    <path class="cls-2" d="M189.79,149.65c5.27-5.27,5.27-13.81,0-19.09l-9.54,9.54,9.54,9.54h0Z"></path>
    <path class="cls-2" d="M170.7,149.65l9.54-9.54-9.54-9.54c-5.27,5.27-5.27,13.81,0,19.09h0Z"></path>
    <path class="cls-2" d="M270.95,149.65c5.27-5.27,5.27-13.81,0-19.09l-9.54,9.54,9.54,9.54h0Z"></path>
    <path class="cls-2" d="M251.87,149.65l9.54-9.54-9.54-9.54c-5.27,5.27-5.27,13.81,0,19.09h0Z"></path>
    <path class="cls-2" d="M311.54,149.65c5.27-5.27,5.27-13.81,0-19.09l-9.54,9.54,9.54,9.54h0Z"></path>
    <path class="cls-2" d="M292.45,149.65l9.54-9.54-9.54-9.54c-5.27,5.27-5.27,13.81,0,19.09h0Z"></path>
    <path class="cls-2" d="M352.12,149.65c5.27-5.27,5.27-13.81,0-19.09l-9.54,9.54,9.54,9.54h0Z"></path>
    <path class="cls-2" d="M333.03,149.65l9.54-9.54-9.54-9.54c-5.27,5.27-5.27,13.81,0,19.09h0Z"></path>
    <path class="cls-2" d="M395.43,149.65c5.27-5.27,5.27-13.81,0-19.09l-9.54,9.54,9.54,9.54h0Z"></path>
    <path class="cls-2" d="M376.34,149.65l9.54-9.54-9.54-9.54c-5.27,5.27-5.27,13.81,0,19.09h0Z"></path>
    <path class="cls-2" d="M68.04,180.68c5.27-5.27,5.27-13.81,0-19.09l-9.54,9.54,9.54,9.54h0Z"></path>
    <path class="cls-2" d="M48.96,180.68l9.54-9.54-9.54-9.54c-5.27,5.27-5.27,13.81,0,19.09h0Z"></path>
    <path class="cls-2" d="M108.63,180.68c5.27-5.27,5.27-13.81,0-19.09l-9.54,9.54,9.54,9.54h0Z"></path>
    <path class="cls-2" d="M89.54,180.68l9.54-9.54-9.54-9.54c-5.27,5.27-5.27,13.81,0,19.09h0Z"></path>
    <path class="cls-2" d="M149.21,180.68c5.27-5.27,5.27-13.81,0-19.09l-9.54,9.54,9.54,9.54h0Z"></path>
    <path class="cls-2" d="M130.12,180.68l9.54-9.54-9.54-9.54c-5.27,5.27-5.27,13.81,0,19.09h0Z"></path>
    <path class="cls-2" d="M189.79,180.68c5.27-5.27,5.27-13.81,0-19.09l-9.54,9.54,9.54,9.54h0Z"></path>
    <path class="cls-2" d="M170.7,180.68l9.54-9.54-9.54-9.54c-5.27,5.27-5.27,13.81,0,19.09h0Z"></path>
    <path class="cls-2" d="M270.95,180.68c5.27-5.27,5.27-13.81,0-19.09l-9.54,9.54,9.54,9.54h0Z"></path>
    <path class="cls-2" d="M251.87,180.68l9.54-9.54-9.54-9.54c-5.27,5.27-5.27,13.81,0,19.09h0Z"></path>
    <path class="cls-2" d="M311.54,180.68c5.27-5.27,5.27-13.81,0-19.09l-9.54,9.54,9.54,9.54h0Z"></path>
    <path class="cls-2" d="M292.45,180.68l9.54-9.54-9.54-9.54c-5.27,5.27-5.27,13.81,0,19.09h0Z"></path>
    <path class="cls-2" d="M352.12,180.68c5.27-5.27,5.27-13.81,0-19.09l-9.54,9.54,9.54,9.54h0Z"></path>
    <path class="cls-2" d="M333.03,180.68l9.54-9.54-9.54-9.54c-5.27,5.27-5.27,13.81,0,19.09h0Z"></path>
    <path class="cls-2" d="M395.43,180.68c5.27-5.27,5.27-13.81,0-19.09l-9.54,9.54,9.54,9.54h0Z"></path>
    <path class="cls-2" d="M376.34,180.68l9.54-9.54-9.54-9.54c-5.27,5.27-5.27,13.81,0,19.09h0Z"></path>
    <path class="cls-2" d="M68.04,211.69c5.27-5.27,5.27-13.81,0-19.09l-9.54,9.54,9.54,9.54h0Z"></path>
    <path class="cls-2" d="M48.96,211.69l9.54-9.54-9.54-9.54c-5.27,5.27-5.27,13.81,0,19.09h0Z"></path>
    <path class="cls-2" d="M108.63,211.69c5.27-5.27,5.27-13.81,0-19.09l-9.54,9.54,9.54,9.54h0Z"></path>
    <path class="cls-2" d="M89.54,211.69l9.54-9.54-9.54-9.54c-5.27,5.27-5.27,13.81,0,19.09h0Z"></path>
    <path class="cls-2" d="M149.21,211.69c5.27-5.27,5.27-13.81,0-19.09l-9.54,9.54,9.54,9.54h0Z"></path>
    <path class="cls-2" d="M130.12,211.69l9.54-9.54-9.54-9.54c-5.27,5.27-5.27,13.81,0,19.09h0Z"></path>
    <path class="cls-2" d="M189.79,211.69c5.27-5.27,5.27-13.81,0-19.09l-9.54,9.54,9.54,9.54h0Z"></path>
    <path class="cls-2" d="M170.7,211.69l9.54-9.54-9.54-9.54c-5.27,5.27-5.27,13.81,0,19.09h0Z"></path>
    <path class="cls-2" d="M270.95,211.69c5.27-5.27,5.27-13.81,0-19.09l-9.54,9.54,9.54,9.54h0Z"></path>
    <path class="cls-2" d="M251.87,211.69l9.54-9.54-9.54-9.54c-5.27,5.27-5.27,13.81,0,19.09h0Z"></path>
    <path class="cls-2" d="M311.54,211.69c5.27-5.27,5.27-13.81,0-19.09l-9.54,9.54,9.54,9.54h0Z"></path>
    <path class="cls-2" d="M292.45,211.69l9.54-9.54-9.54-9.54c-5.27,5.27-5.27,13.81,0,19.09h0Z"></path>
    <path class="cls-2" d="M352.12,211.69c5.27-5.27,5.27-13.81,0-19.09l-9.54,9.54,9.54,9.54h0Z"></path>
    <path class="cls-2" d="M333.03,211.69l9.54-9.54-9.54-9.54c-5.27,5.27-5.27,13.81,0,19.09h0Z"></path>
    <path class="cls-2" d="M395.43,211.69c5.27-5.27,5.27-13.81,0-19.09l-9.54,9.54,9.54,9.54h0Z"></path>
    <path class="cls-2" d="M376.34,211.69l9.54-9.54-9.54-9.54c-5.27,5.27-5.27,13.81,0,19.09h0Z"></path>
    <path class="cls-2" d="M68.04,242.71c5.27-5.27,5.27-13.81,0-19.09l-9.54,9.54,9.54,9.54h0Z"></path>
    <path class="cls-2" d="M48.96,242.71l9.54-9.54-9.54-9.54c-5.27,5.27-5.27,13.81,0,19.09h0Z"></path>
    <path class="cls-2" d="M108.63,242.71c5.27-5.27,5.27-13.81,0-19.09l-9.54,9.54,9.54,9.54h0Z"></path>
    <path class="cls-2" d="M89.54,242.71l9.54-9.54-9.54-9.54c-5.27,5.27-5.27,13.81,0,19.09h0Z"></path>
    <path class="cls-2" d="M149.21,242.71c5.27-5.27,5.27-13.81,0-19.09l-9.54,9.54,9.54,9.54h0Z"></path>
    <path class="cls-2" d="M130.12,242.71l9.54-9.54-9.54-9.54c-5.27,5.27-5.27,13.81,0,19.09h0Z"></path>
    <path class="cls-2" d="M189.79,242.71c5.27-5.27,5.27-13.81,0-19.09l-9.54,9.54,9.54,9.54h0Z"></path>
    <path class="cls-2" d="M170.7,242.71l9.54-9.54-9.54-9.54c-5.27,5.27-5.27,13.81,0,19.09h0Z"></path>
    <path class="cls-2" d="M270.95,242.71c5.27-5.27,5.27-13.81,0-19.09l-9.54,9.54,9.54,9.54h0Z"></path>
    <path class="cls-2" d="M251.87,242.71l9.54-9.54-9.54-9.54c-5.27,5.27-5.27,13.81,0,19.09h0Z"></path>
    <path class="cls-2" d="M311.54,242.71c5.27-5.27,5.27-13.81,0-19.09l-9.54,9.54,9.54,9.54h0Z"></path>
    <path class="cls-2" d="M292.45,242.71l9.54-9.54-9.54-9.54c-5.27,5.27-5.27,13.81,0,19.09h0Z"></path>
    <path class="cls-2" d="M352.12,242.71c5.27-5.27,5.27-13.81,0-19.09l-9.54,9.54,9.54,9.54h0Z"></path>
    <path class="cls-2" d="M333.03,242.71l9.54-9.54-9.54-9.54c-5.27,5.27-5.27,13.81,0,19.09h0Z"></path>
    <path class="cls-2" d="M395.43,242.71c5.27-5.27,5.27-13.81,0-19.09l-9.54,9.54,9.54,9.54h0Z"></path>
    <path class="cls-2" d="M376.34,242.71l9.54-9.54-9.54-9.54c-5.27,5.27-5.27,13.81,0,19.09h0Z"></path>
    <path class="cls-2" d="M68.04,273.73c5.27-5.27,5.27-13.81,0-19.09l-9.54,9.54,9.54,9.54h0Z"></path>
    <path class="cls-2" d="M48.96,273.73l9.54-9.54-9.54-9.54c-5.27,5.27-5.27,13.81,0,19.09h0Z"></path>
    <path class="cls-2" d="M108.63,273.73c5.27-5.27,5.27-13.81,0-19.09l-9.54,9.54,9.54,9.54h0Z"></path>
    <path class="cls-2" d="M89.54,273.73l9.54-9.54-9.54-9.54c-5.27,5.27-5.27,13.81,0,19.09h0Z"></path>
    <path class="cls-2" d="M149.21,273.73c5.27-5.27,5.27-13.81,0-19.09l-9.54,9.54,9.54,9.54h0Z"></path>
    <path class="cls-2" d="M130.12,273.73l9.54-9.54-9.54-9.54c-5.27,5.27-5.27,13.81,0,19.09h0Z"></path>
    <path class="cls-2" d="M189.79,273.73c5.27-5.27,5.27-13.81,0-19.09l-9.54,9.54,9.54,9.54h0Z"></path>
    <path class="cls-2" d="M170.7,273.73l9.54-9.54-9.54-9.54c-5.27,5.27-5.27,13.81,0,19.09h0Z"></path>
    <path class="cls-2" d="M270.95,273.73c5.27-5.27,5.27-13.81,0-19.09l-9.54,9.54,9.54,9.54h0Z"></path>
    <path class="cls-2" d="M251.87,273.73l9.54-9.54-9.54-9.54c-5.27,5.27-5.27,13.81,0,19.09h0Z"></path>
    <path class="cls-2" d="M311.54,273.73c5.27-5.27,5.27-13.81,0-19.09l-9.54,9.54,9.54,9.54h0Z"></path>
    <path class="cls-2" d="M292.45,273.73l9.54-9.54-9.54-9.54c-5.27,5.27-5.27,13.81,0,19.09h0Z"></path>
    <path class="cls-2" d="M352.12,273.73c5.27-5.27,5.27-13.81,0-19.09l-9.54,9.54,9.54,9.54h0Z"></path>
    <path class="cls-2" d="M333.03,273.73l9.54-9.54-9.54-9.54c-5.27,5.27-5.27,13.81,0,19.09h0Z"></path>
    <path class="cls-2" d="M395.43,273.73c5.27-5.27,5.27-13.81,0-19.09l-9.54,9.54,9.54,9.54h0Z"></path>
    <path class="cls-2" d="M376.34,273.73l9.54-9.54-9.54-9.54c-5.27,5.27-5.27,13.81,0,19.09h0Z"></path>
    <path class="cls-2" d="M68.04,304.75c5.27-5.27,5.27-13.81,0-19.09l-9.54,9.54,9.54,9.54h0Z"></path>
    <path class="cls-2" d="M48.96,304.75l9.54-9.54-9.54-9.54c-5.27,5.27-5.27,13.81,0,19.09h0Z"></path>
    <path class="cls-2" d="M108.63,304.75c5.27-5.27,5.27-13.81,0-19.09l-9.54,9.54,9.54,9.54h0Z"></path>
    <path class="cls-2" d="M89.54,304.75l9.54-9.54-9.54-9.54c-5.27,5.27-5.27,13.81,0,19.09h0Z"></path>
    <path class="cls-2" d="M149.21,304.75c5.27-5.27,5.27-13.81,0-19.09l-9.54,9.54,9.54,9.54h0Z"></path>
    <path class="cls-2" d="M130.12,304.75l9.54-9.54-9.54-9.54c-5.27,5.27-5.27,13.81,0,19.09h0Z"></path>
    <path class="cls-2" d="M189.79,304.75c5.27-5.27,5.27-13.81,0-19.09l-9.54,9.54,9.54,9.54h0Z"></path>
    <path class="cls-2" d="M170.7,304.75l9.54-9.54-9.54-9.54c-5.27,5.27-5.27,13.81,0,19.09h0Z"></path>
    <path class="cls-2" d="M270.95,304.75c5.27-5.27,5.27-13.81,0-19.09l-9.54,9.54,9.54,9.54h0Z"></path>
    <path class="cls-2" d="M251.87,304.75l9.54-9.54-9.54-9.54c-5.27,5.27-5.27,13.81,0,19.09h0Z"></path>
    <path class="cls-2" d="M311.54,304.75c5.27-5.27,5.27-13.81,0-19.09l-9.54,9.54,9.54,9.54h0Z"></path>
    <path class="cls-2" d="M292.45,304.75l9.54-9.54-9.54-9.54c-5.27,5.27-5.27,13.81,0,19.09h0Z"></path>
    <path class="cls-2" d="M352.12,304.75c5.27-5.27,5.27-13.81,0-19.09l-9.54,9.54,9.54,9.54h0Z"></path>
    <path class="cls-2" d="M333.03,304.75l9.54-9.54-9.54-9.54c-5.27,5.27-5.27,13.81,0,19.09h0Z"></path>
    <path class="cls-2" d="M395.43,304.75c5.27-5.27,5.27-13.81,0-19.09l-9.54,9.54,9.54,9.54h0Z"></path>
    <path class="cls-2" d="M376.34,304.75l9.54-9.54-9.54-9.54c-5.27,5.27-5.27,13.81,0,19.09h0Z"></path>
    <path class="cls-2" d="M68.04,335.77c5.27-5.27,5.27-13.81,0-19.09l-9.54,9.54,9.54,9.54h0Z"></path>
    <path class="cls-2" d="M48.96,335.77l9.54-9.54-9.54-9.54c-5.27,5.27-5.27,13.81,0,19.09h0Z"></path>
    <path class="cls-2" d="M108.63,335.77c5.27-5.27,5.27-13.81,0-19.09l-9.54,9.54,9.54,9.54h0Z"></path>
    <path class="cls-2" d="M89.54,335.77l9.54-9.54-9.54-9.54c-5.27,5.27-5.27,13.81,0,19.09h0Z"></path>
    <path class="cls-2" d="M149.21,335.77c5.27-5.27,5.27-13.81,0-19.09l-9.54,9.54,9.54,9.54h0Z"></path>
    <path class="cls-2" d="M130.12,335.77l9.54-9.54-9.54-9.54c-5.27,5.27-5.27,13.81,0,19.09h0Z"></path>
    <path class="cls-2" d="M189.79,335.77c5.27-5.27,5.27-13.81,0-19.09l-9.54,9.54,9.54,9.54h0Z"></path>
    <path class="cls-2" d="M170.7,335.77l9.54-9.54-9.54-9.54c-5.27,5.27-5.27,13.81,0,19.09h0Z"></path>
    <path class="cls-2" d="M270.95,335.77c5.27-5.27,5.27-13.81,0-19.09l-9.54,9.54,9.54,9.54h0Z"></path>
    <path class="cls-2" d="M251.87,335.77l9.54-9.54-9.54-9.54c-5.27,5.27-5.27,13.81,0,19.09h0Z"></path>
    <path class="cls-2" d="M311.54,335.77c5.27-5.27,5.27-13.81,0-19.09l-9.54,9.54,9.54,9.54h0Z"></path>
    <path class="cls-2" d="M292.45,335.77l9.54-9.54-9.54-9.54c-5.27,5.27-5.27,13.81,0,19.09h0Z"></path>
    <path class="cls-2" d="M352.12,335.77c5.27-5.27,5.27-13.81,0-19.09l-9.54,9.54,9.54,9.54h0Z"></path>
    <path class="cls-2" d="M333.03,335.77l9.54-9.54-9.54-9.54c-5.27,5.27-5.27,13.81,0,19.09h0Z"></path>
    <path class="cls-2" d="M395.43,335.77c5.27-5.27,5.27-13.81,0-19.09l-9.54,9.54,9.54,9.54h0Z"></path>
    <path class="cls-2" d="M376.34,335.77l9.54-9.54-9.54-9.54c-5.27,5.27-5.27,13.81,0,19.09h0Z"></path>
    <path class="cls-2" d="M68.04,366.79c5.27-5.27,5.27-13.81,0-19.09l-9.54,9.54,9.54,9.54h0Z"></path>
    <path class="cls-2" d="M48.96,366.79l9.54-9.54-9.54-9.54c-5.27,5.27-5.27,13.81,0,19.09h0Z"></path>
    <path class="cls-2" d="M108.63,366.79c5.27-5.27,5.27-13.81,0-19.09l-9.54,9.54,9.54,9.54h0Z"></path>
    <path class="cls-2" d="M89.54,366.79l9.54-9.54-9.54-9.54c-5.27,5.27-5.27,13.81,0,19.09h0Z"></path>
    <path class="cls-2" d="M149.21,366.79c5.27-5.27,5.27-13.81,0-19.09l-9.54,9.54,9.54,9.54h0Z"></path>
    <path class="cls-2" d="M130.12,366.79l9.54-9.54-9.54-9.54c-5.27,5.27-5.27,13.81,0,19.09h0Z"></path>
    <path class="cls-2" d="M189.79,366.79c5.27-5.27,5.27-13.81,0-19.09l-9.54,9.54,9.54,9.54h0Z"></path>
    <path class="cls-2" d="M170.7,366.79l9.54-9.54-9.54-9.54c-5.27,5.27-5.27,13.81,0,19.09h0Z"></path>
    <path class="cls-2" d="M270.95,366.79c5.27-5.27,5.27-13.81,0-19.09l-9.54,9.54,9.54,9.54h0Z"></path>
    <path class="cls-2" d="M251.87,366.79l9.54-9.54-9.54-9.54c-5.27,5.27-5.27,13.81,0,19.09h0Z"></path>
    <path class="cls-2" d="M311.54,366.79c5.27-5.27,5.27-13.81,0-19.09l-9.54,9.54,9.54,9.54h0Z"></path>
    <path class="cls-2" d="M292.45,366.79l9.54-9.54-9.54-9.54c-5.27,5.27-5.27,13.81,0,19.09h0Z"></path>
    <path class="cls-2" d="M352.12,366.79c5.27-5.27,5.27-13.81,0-19.09l-9.54,9.54,9.54,9.54h0Z"></path>
    <path class="cls-2" d="M333.03,366.79l9.54-9.54-9.54-9.54c-5.27,5.27-5.27,13.81,0,19.09h0Z"></path>
    <path class="cls-2" d="M395.43,366.79c5.27-5.27,5.27-13.81,0-19.09l-9.54,9.54,9.54,9.54h0Z"></path>
    <path class="cls-2" d="M376.34,366.79l9.54-9.54-9.54-9.54c-5.27,5.27-5.27,13.81,0,19.09h0Z"></path>
    <path class="cls-2" d="M68.04,397.8c5.27-5.27,5.27-13.81,0-19.09l-9.54,9.54,9.54,9.54h0Z"></path>
    <path class="cls-2" d="M48.96,397.8l9.54-9.54-9.54-9.54c-5.27,5.27-5.27,13.81,0,19.09h0Z"></path>
    <path class="cls-2" d="M108.63,397.8c5.27-5.27,5.27-13.81,0-19.09l-9.54,9.54,9.54,9.54h0Z"></path>
    <path class="cls-2" d="M89.54,397.8l9.54-9.54-9.54-9.54c-5.27,5.27-5.27,13.81,0,19.09h0Z"></path>
    <path class="cls-2" d="M149.21,397.8c5.27-5.27,5.27-13.81,0-19.09l-9.54,9.54,9.54,9.54h0Z"></path>
    <path class="cls-2" d="M130.12,397.8l9.54-9.54-9.54-9.54c-5.27,5.27-5.27,13.81,0,19.09h0Z"></path>
    <path class="cls-2" d="M189.79,397.8c5.27-5.27,5.27-13.81,0-19.09l-9.54,9.54,9.54,9.54h0Z"></path>
    <path class="cls-2" d="M170.7,397.8l9.54-9.54-9.54-9.54c-5.27,5.27-5.27,13.81,0,19.09h0Z"></path>
    <path class="cls-2" d="M270.95,397.8c5.27-5.27,5.27-13.81,0-19.09l-9.54,9.54,9.54,9.54h0Z"></path>
    <path class="cls-2" d="M251.87,397.8l9.54-9.54-9.54-9.54c-5.27,5.27-5.27,13.81,0,19.09h0Z"></path>
    <path class="cls-2" d="M311.54,397.8c5.27-5.27,5.27-13.81,0-19.09l-9.54,9.54,9.54,9.54h0Z"></path>
    <path class="cls-2" d="M292.45,397.8l9.54-9.54-9.54-9.54c-5.27,5.27-5.27,13.81,0,19.09h0Z"></path>
    <path class="cls-2" d="M352.12,397.8c5.27-5.27,5.27-13.81,0-19.09l-9.54,9.54,9.54,9.54h0Z"></path>
    <path class="cls-2" d="M333.03,397.8l9.54-9.54-9.54-9.54c-5.27,5.27-5.27,13.81,0,19.09h0Z"></path>
    <path class="cls-2" d="M395.43,397.8c5.27-5.27,5.27-13.81,0-19.09l-9.54,9.54,9.54,9.54h0Z"></path>
    <path class="cls-2" d="M376.34,397.8l9.54-9.54-9.54-9.54c-5.27,5.27-5.27,13.81,0,19.09h0Z"></path>
    <path class="cls-2" d="M68.04,428.83c5.27-5.27,5.27-13.81,0-19.09l-9.54,9.54,9.54,9.54h0Z"></path>
    <path class="cls-2" d="M48.96,428.83l9.54-9.54-9.54-9.54c-5.27,5.27-5.27,13.81,0,19.09h0Z"></path>
    <path class="cls-2" d="M108.63,428.83c5.27-5.27,5.27-13.81,0-19.09l-9.54,9.54,9.54,9.54h0Z"></path>
    <path class="cls-2" d="M89.54,428.83l9.54-9.54-9.54-9.54c-5.27,5.27-5.27,13.81,0,19.09h0Z"></path>
    <path class="cls-2" d="M149.21,428.83c5.27-5.27,5.27-13.81,0-19.09l-9.54,9.54,9.54,9.54h0Z"></path>
    <path class="cls-2" d="M130.12,428.83l9.54-9.54-9.54-9.54c-5.27,5.27-5.27,13.81,0,19.09h0Z"></path>
    <path class="cls-2" d="M189.79,428.83c5.27-5.27,5.27-13.81,0-19.09l-9.54,9.54,9.54,9.54h0Z"></path>
    <path class="cls-2" d="M170.7,428.83l9.54-9.54-9.54-9.54c-5.27,5.27-5.27,13.81,0,19.09h0Z"></path>
    <path class="cls-2" d="M270.95,428.83c5.27-5.27,5.27-13.81,0-19.09l-9.54,9.54,9.54,9.54h0Z"></path>
    <path class="cls-2" d="M251.87,428.83l9.54-9.54-9.54-9.54c-5.27,5.27-5.27,13.81,0,19.09h0Z"></path>
    <path class="cls-2" d="M311.54,428.83c5.27-5.27,5.27-13.81,0-19.09l-9.54,9.54,9.54,9.54h0Z"></path>
    <path class="cls-2" d="M292.45,428.83l9.54-9.54-9.54-9.54c-5.27,5.27-5.27,13.81,0,19.09h0Z"></path>
    <path class="cls-2" d="M352.12,428.83c5.27-5.27,5.27-13.81,0-19.09l-9.54,9.54,9.54,9.54h0Z"></path>
    <path class="cls-2" d="M333.03,428.83l9.54-9.54-9.54-9.54c-5.27,5.27-5.27,13.81,0,19.09h0Z"></path>
    <path class="cls-2" d="M395.43,428.83c5.27-5.27,5.27-13.81,0-19.09l-9.54,9.54,9.54,9.54h0Z"></path>
    <path class="cls-2" d="M376.34,428.83l9.54-9.54-9.54-9.54c-5.27,5.27-5.27,13.81,0,19.09h0Z"></path>
    <path class="cls-2" d="M68.04,459.84c5.27-5.27,5.27-13.81,0-19.09l-9.54,9.54,9.54,9.54h0Z"></path>
    <path class="cls-2" d="M48.96,459.84l9.54-9.54-9.54-9.54c-5.27,5.27-5.27,13.81,0,19.09h0Z"></path>
    <path class="cls-2" d="M108.63,459.84c5.27-5.27,5.27-13.81,0-19.09l-9.54,9.54,9.54,9.54h0Z"></path>
    <path class="cls-2" d="M89.54,459.84l9.54-9.54-9.54-9.54c-5.27,5.27-5.27,13.81,0,19.09h0Z"></path>
    <path class="cls-2" d="M149.21,459.84c5.27-5.27,5.27-13.81,0-19.09l-9.54,9.54,9.54,9.54h0Z"></path>
    <path class="cls-2" d="M130.12,459.84l9.54-9.54-9.54-9.54c-5.27,5.27-5.27,13.81,0,19.09h0Z"></path>
    <path class="cls-2" d="M189.79,459.84c5.27-5.27,5.27-13.81,0-19.09l-9.54,9.54,9.54,9.54h0Z"></path>
    <path class="cls-2" d="M170.7,459.84l9.54-9.54-9.54-9.54c-5.27,5.27-5.27,13.81,0,19.09h0Z"></path>
    <path class="cls-2" d="M270.95,459.84c5.27-5.27,5.27-13.81,0-19.09l-9.54,9.54,9.54,9.54h0Z"></path>
    <path class="cls-2" d="M251.87,459.84l9.54-9.54-9.54-9.54c-5.27,5.27-5.27,13.81,0,19.09h0Z"></path>
    <path class="cls-2" d="M311.54,459.84c5.27-5.27,5.27-13.81,0-19.09l-9.54,9.54,9.54,9.54h0Z"></path>
    <path class="cls-2" d="M292.45,459.84l9.54-9.54-9.54-9.54c-5.27,5.27-5.27,13.81,0,19.09h0Z"></path>
    <path class="cls-2" d="M352.12,459.84c5.27-5.27,5.27-13.81,0-19.09l-9.54,9.54,9.54,9.54h0Z"></path>
    <path class="cls-2" d="M333.03,459.84l9.54-9.54-9.54-9.54c-5.27,5.27-5.27,13.81,0,19.09h0Z"></path>
    <path class="cls-2" d="M395.43,459.84c5.27-5.27,5.27-13.81,0-19.09l-9.54,9.54,9.54,9.54h0Z"></path>
    <path class="cls-2" d="M376.34,459.84l9.54-9.54-9.54-9.54c-5.27,5.27-5.27,13.81,0,19.09h0Z"></path>
    <path class="cls-2" d="M68.04,490.86c5.27-5.27,5.27-13.81,0-19.09l-9.54,9.54,9.54,9.54h0Z"></path>
    <path class="cls-2" d="M48.96,490.86l9.54-9.54-9.54-9.54c-5.27,5.27-5.27,13.81,0,19.09h0Z"></path>
    <path class="cls-2" d="M108.63,490.86c5.27-5.27,5.27-13.81,0-19.09l-9.54,9.54,9.54,9.54h0Z"></path>
    <path class="cls-2" d="M89.54,490.86l9.54-9.54-9.54-9.54c-5.27,5.27-5.27,13.81,0,19.09h0Z"></path>
    <path class="cls-2" d="M149.21,490.86c5.27-5.27,5.27-13.81,0-19.09l-9.54,9.54,9.54,9.54h0Z"></path>
    <path class="cls-2" d="M130.12,490.86l9.54-9.54-9.54-9.54c-5.27,5.27-5.27,13.81,0,19.09h0Z"></path>
    <path class="cls-2" d="M189.79,490.86c5.27-5.27,5.27-13.81,0-19.09l-9.54,9.54,9.54,9.54h0Z"></path>
    <path class="cls-2" d="M170.7,490.86l9.54-9.54-9.54-9.54c-5.27,5.27-5.27,13.81,0,19.09h0Z"></path>
    <path class="cls-2" d="M270.95,490.86c5.27-5.27,5.27-13.81,0-19.09l-9.54,9.54,9.54,9.54h0Z"></path>
    <path class="cls-2" d="M251.87,490.86l9.54-9.54-9.54-9.54c-5.27,5.27-5.27,13.81,0,19.09h0Z"></path>
    <path class="cls-2" d="M311.54,490.86c5.27-5.27,5.27-13.81,0-19.09l-9.54,9.54,9.54,9.54h0Z"></path>
    <path class="cls-2" d="M292.45,490.86l9.54-9.54-9.54-9.54c-5.27,5.27-5.27,13.81,0,19.09h0Z"></path>
    <path class="cls-2" d="M352.12,490.86c5.27-5.27,5.27-13.81,0-19.09l-9.54,9.54,9.54,9.54h0Z"></path>
    <path class="cls-2" d="M333.03,490.86l9.54-9.54-9.54-9.54c-5.27,5.27-5.27,13.81,0,19.09h0Z"></path>
    <path class="cls-2" d="M395.43,490.86c5.27-5.27,5.27-13.81,0-19.09l-9.54,9.54,9.54,9.54h0Z"></path>
    <path class="cls-2" d="M376.34,490.86l9.54-9.54-9.54-9.54c-5.27,5.27-5.27,13.81,0,19.09h0Z"></path>
    <path class="cls-2" d="M68.04,521.88c5.27-5.27,5.27-13.81,0-19.09l-9.54,9.54,9.54,9.54h0Z"></path>
    <path class="cls-2" d="M48.96,521.88l9.54-9.54-9.54-9.54c-5.27,5.27-5.27,13.81,0,19.09h0Z"></path>
    <path class="cls-2" d="M108.63,521.88c5.27-5.27,5.27-13.81,0-19.09l-9.54,9.54,9.54,9.54h0Z"></path>
    <path class="cls-2" d="M89.54,521.88l9.54-9.54-9.54-9.54c-5.27,5.27-5.27,13.81,0,19.09h0Z"></path>
    <path class="cls-2" d="M149.21,521.88c5.27-5.27,5.27-13.81,0-19.09l-9.54,9.54,9.54,9.54h0Z"></path>
    <path class="cls-2" d="M130.12,521.88l9.54-9.54-9.54-9.54c-5.27,5.27-5.27,13.81,0,19.09h0Z"></path>
    <path class="cls-2" d="M189.79,521.88c5.27-5.27,5.27-13.81,0-19.09l-9.54,9.54,9.54,9.54h0Z"></path>
    <path class="cls-2" d="M170.7,521.88l9.54-9.54-9.54-9.54c-5.27,5.27-5.27,13.81,0,19.09h0Z"></path>
    <path class="cls-2" d="M270.95,521.88c5.27-5.27,5.27-13.81,0-19.09l-9.54,9.54,9.54,9.54h0Z"></path>
    <path class="cls-2" d="M251.87,521.88l9.54-9.54-9.54-9.54c-5.27,5.27-5.27,13.81,0,19.09h0Z"></path>
    <path class="cls-2" d="M311.54,521.88c5.27-5.27,5.27-13.81,0-19.09l-9.54,9.54,9.54,9.54h0Z"></path>
    <path class="cls-2" d="M292.45,521.88l9.54-9.54-9.54-9.54c-5.27,5.27-5.27,13.81,0,19.09h0Z"></path>
    <path class="cls-2" d="M352.12,521.88c5.27-5.27,5.27-13.81,0-19.09l-9.54,9.54,9.54,9.54h0Z"></path>
    <path class="cls-2" d="M333.03,521.88l9.54-9.54-9.54-9.54c-5.27,5.27-5.27,13.81,0,19.09h0Z"></path>
    <path class="cls-2" d="M395.43,521.88c5.27-5.27,5.27-13.81,0-19.09l-9.54,9.54,9.54,9.54h0Z"></path>
    <path class="cls-2" d="M376.34,521.88l9.54-9.54-9.54-9.54c-5.27,5.27-5.27,13.81,0,19.09h0Z"></path>
    <g class="cls-1">
      <path class="cls-5" d="M27.46,56.6c5.27-5.27,5.27-13.81,0-19.09l-9.54,9.54,9.54,9.54h0Z"></path>
      <path class="cls-5" d="M8.38,56.6l9.54-9.54-9.54-9.54c-5.27,5.27-5.27,13.81,0,19.09h0Z"></path>
    </g>
    <g class="cls-1">
      <path class="cls-5" d="M27.46,87.62c5.27-5.27,5.27-13.81,0-19.09l-9.54,9.54,9.54,9.54h0Z"></path>
      <path class="cls-5" d="M8.38,87.62l9.54-9.54-9.54-9.54c-5.27,5.27-5.27,13.81,0,19.09h0Z"></path>
    </g>
    <g class="cls-1">
      <path class="cls-5" d="M27.46,118.64c5.27-5.27,5.27-13.81,0-19.09l-9.54,9.54,9.54,9.54h0Z"></path>
      <path class="cls-5" d="M8.38,118.64l9.54-9.54-9.54-9.54c-5.27,5.27-5.27,13.81,0,19.09h0Z"></path>
    </g>
    <g class="cls-1">
      <path class="cls-5" d="M27.46,149.65c5.27-5.27,5.27-13.81,0-19.09l-9.54,9.54,9.54,9.54h0Z"></path>
      <path class="cls-5" d="M8.38,149.65l9.54-9.54-9.54-9.54c-5.27,5.27-5.27,13.81,0,19.09h0Z"></path>
    </g>
    <g class="cls-1">
      <path class="cls-5" d="M27.46,180.68c5.27-5.27,5.27-13.81,0-19.09l-9.54,9.54,9.54,9.54h0Z"></path>
      <path class="cls-5" d="M8.38,180.68l9.54-9.54-9.54-9.54c-5.27,5.27-5.27,13.81,0,19.09h0Z"></path>
    </g>
    <g class="cls-1">
      <path class="cls-5" d="M27.46,211.69c5.27-5.27,5.27-13.81,0-19.09l-9.54,9.54,9.54,9.54h0Z"></path>
      <path class="cls-5" d="M8.38,211.69l9.54-9.54-9.54-9.54c-5.27,5.27-5.27,13.81,0,19.09h0Z"></path>
    </g>
    <g class="cls-1">
      <path class="cls-5" d="M27.46,242.71c5.27-5.27,5.27-13.81,0-19.09l-9.54,9.54,9.54,9.54h0Z"></path>
      <path class="cls-5" d="M8.38,242.71l9.54-9.54-9.54-9.54c-5.27,5.27-5.27,13.81,0,19.09h0Z"></path>
    </g>
    <g class="cls-1">
      <path class="cls-5" d="M27.46,273.73c5.27-5.27,5.27-13.81,0-19.09l-9.54,9.54,9.54,9.54h0Z"></path>
      <path class="cls-5" d="M8.38,273.73l9.54-9.54-9.54-9.54c-5.27,5.27-5.27,13.81,0,19.09h0Z"></path>
    </g>
    <g class="cls-1">
      <path class="cls-5" d="M27.46,304.75c5.27-5.27,5.27-13.81,0-19.09l-9.54,9.54,9.54,9.54h0Z"></path>
      <path class="cls-5" d="M8.38,304.75l9.54-9.54-9.54-9.54c-5.27,5.27-5.27,13.81,0,19.09h0Z"></path>
    </g>
    <g class="cls-1">
      <path class="cls-5" d="M27.46,335.77c5.27-5.27,5.27-13.81,0-19.09l-9.54,9.54,9.54,9.54h0Z"></path>
      <path class="cls-5" d="M8.38,335.77l9.54-9.54-9.54-9.54c-5.27,5.27-5.27,13.81,0,19.09h0Z"></path>
    </g>
    <g class="cls-1">
      <path class="cls-5" d="M27.46,366.79c5.27-5.27,5.27-13.81,0-19.09l-9.54,9.54,9.54,9.54h0Z"></path>
      <path class="cls-5" d="M8.38,366.79l9.54-9.54-9.54-9.54c-5.27,5.27-5.27,13.81,0,19.09h0Z"></path>
    </g>
    <g class="cls-1">
      <path class="cls-5" d="M27.46,397.8c5.27-5.27,5.27-13.81,0-19.09l-9.54,9.54,9.54,9.54h0Z"></path>
      <path class="cls-5" d="M8.38,397.8l9.54-9.54-9.54-9.54c-5.27,5.27-5.27,13.81,0,19.09h0Z"></path>
    </g>
    <g class="cls-1">
      <path class="cls-5" d="M27.46,428.83c5.27-5.27,5.27-13.81,0-19.09l-9.54,9.54,9.54,9.54h0Z"></path>
      <path class="cls-5" d="M8.38,428.83l9.54-9.54-9.54-9.54c-5.27,5.27-5.27,13.81,0,19.09h0Z"></path>
    </g>
    <g class="cls-1">
      <path class="cls-5" d="M27.46,459.84c5.27-5.27,5.27-13.81,0-19.09l-9.54,9.54,9.54,9.54h0Z"></path>
      <path class="cls-5" d="M8.38,459.84l9.54-9.54-9.54-9.54c-5.27,5.27-5.27,13.81,0,19.09h0Z"></path>
    </g>
    <g class="cls-1">
      <path class="cls-5" d="M27.46,490.86c5.27-5.27,5.27-13.81,0-19.09l-9.54,9.54,9.54,9.54h0Z"></path>
      <path class="cls-5" d="M8.38,490.86l9.54-9.54-9.54-9.54c-5.27,5.27-5.27,13.81,0,19.09h0Z"></path>
    </g>
    <g class="cls-1">
      <path class="cls-5" d="M27.46,521.88c5.27-5.27,5.27-13.81,0-19.09l-9.54,9.54,9.54,9.54h0Z"></path>
      <path class="cls-5" d="M8.38,521.88l9.54-9.54-9.54-9.54c-5.27,5.27-5.27,13.81,0,19.09h0Z"></path>
    </g>
    <g class="cls-1">
      <path class="cls-5" d="M27.46,25.58c5.27-5.27,5.27-13.81,0-19.09l-9.54,9.54,9.54,9.54h0Z"></path>
      <path class="cls-5" d="M8.38,25.58l9.54-9.54L8.38,6.5c-5.27,5.27-5.27,13.81,0,19.09h0Z"></path>
    </g>
    <path class="cls-2" d="M68.04,25.58c5.27-5.27,5.27-13.81,0-19.09l-9.54,9.54,9.54,9.54h0Z"></path>
    <path class="cls-2" d="M48.96,25.58l9.54-9.54-9.54-9.54c-5.27,5.27-5.27,13.81,0,19.09h0Z"></path>
    <path class="cls-2" d="M108.63,25.58c5.27-5.27,5.27-13.81,0-19.09l-9.54,9.54,9.54,9.54h0Z"></path>
    <path class="cls-2" d="M89.54,25.58l9.54-9.54-9.54-9.54c-5.27,5.27-5.27,13.81,0,19.09h0Z"></path>
    <path class="cls-2" d="M149.21,25.58c5.27-5.27,5.27-13.81,0-19.09l-9.54,9.54,9.54,9.54h0Z"></path>
    <path class="cls-2" d="M130.12,25.58l9.54-9.54-9.54-9.54c-5.27,5.27-5.27,13.81,0,19.09h0Z"></path>
    <path class="cls-2" d="M189.79,25.58c5.27-5.27,5.27-13.81,0-19.09l-9.54,9.54,9.54,9.54h0Z"></path>
    <path class="cls-2" d="M170.7,25.58l9.54-9.54-9.54-9.54c-5.27,5.27-5.27,13.81,0,19.09h0Z"></path>
    <g class="cls-1">
      <path class="cls-5" d="M230.37,56.6c5.27-5.27,5.27-13.81,0-19.09l-9.54,9.54,9.54,9.54h0Z"></path>
      <path class="cls-5" d="M211.29,56.6l9.54-9.54-9.54-9.54c-5.27,5.27-5.27,13.81,0,19.09h0Z"></path>
    </g>
    <g class="cls-1">
      <path class="cls-5" d="M230.37,87.62c5.27-5.27,5.27-13.81,0-19.09l-9.54,9.54,9.54,9.54h0Z"></path>
      <path class="cls-5" d="M211.29,87.62l9.54-9.54-9.54-9.54c-5.27,5.27-5.27,13.81,0,19.09h0Z"></path>
    </g>
    <g class="cls-1">
      <path class="cls-5" d="M230.37,118.64c5.27-5.27,5.27-13.81,0-19.09l-9.54,9.54,9.54,9.54h0Z"></path>
      <path class="cls-5" d="M211.29,118.64l9.54-9.54-9.54-9.54c-5.27,5.27-5.27,13.81,0,19.09h0Z"></path>
    </g>
    <g class="cls-1">
      <path class="cls-5" d="M230.37,149.65c5.27-5.27,5.27-13.81,0-19.09l-9.54,9.54,9.54,9.54h0Z"></path>
      <path class="cls-5" d="M211.29,149.65l9.54-9.54-9.54-9.54c-5.27,5.27-5.27,13.81,0,19.09h0Z"></path>
    </g>
    <g class="cls-1">
      <path class="cls-5" d="M230.37,180.68c5.27-5.27,5.27-13.81,0-19.09l-9.54,9.54,9.54,9.54h0Z"></path>
      <path class="cls-5" d="M211.29,180.68l9.54-9.54-9.54-9.54c-5.27,5.27-5.27,13.81,0,19.09h0Z"></path>
    </g>
    <g class="cls-1">
      <path class="cls-5" d="M230.37,211.69c5.27-5.27,5.27-13.81,0-19.09l-9.54,9.54,9.54,9.54h0Z"></path>
      <path class="cls-5" d="M211.29,211.69l9.54-9.54-9.54-9.54c-5.27,5.27-5.27,13.81,0,19.09h0Z"></path>
    </g>
    <g class="cls-1">
      <path class="cls-5" d="M230.37,242.71c5.27-5.27,5.27-13.81,0-19.09l-9.54,9.54,9.54,9.54h0Z"></path>
      <path class="cls-5" d="M211.29,242.71l9.54-9.54-9.54-9.54c-5.27,5.27-5.27,13.81,0,19.09h0Z"></path>
    </g>
    <g class="cls-1">
      <path class="cls-5" d="M230.37,273.73c5.27-5.27,5.27-13.81,0-19.09l-9.54,9.54,9.54,9.54h0Z"></path>
      <path class="cls-5" d="M211.29,273.73l9.54-9.54-9.54-9.54c-5.27,5.27-5.27,13.81,0,19.09h0Z"></path>
    </g>
    <g class="cls-1">
      <path class="cls-5" d="M230.37,304.75c5.27-5.27,5.27-13.81,0-19.09l-9.54,9.54,9.54,9.54h0Z"></path>
      <path class="cls-5" d="M211.29,304.75l9.54-9.54-9.54-9.54c-5.27,5.27-5.27,13.81,0,19.09h0Z"></path>
    </g>
    <g class="cls-1">
      <path class="cls-5" d="M230.37,335.77c5.27-5.27,5.27-13.81,0-19.09l-9.54,9.54,9.54,9.54h0Z"></path>
      <path class="cls-5" d="M211.29,335.77l9.54-9.54-9.54-9.54c-5.27,5.27-5.27,13.81,0,19.09h0Z"></path>
    </g>
    <g class="cls-1">
      <path class="cls-5" d="M230.37,366.79c5.27-5.27,5.27-13.81,0-19.09l-9.54,9.54,9.54,9.54h0Z"></path>
      <path class="cls-5" d="M211.29,366.79l9.54-9.54-9.54-9.54c-5.27,5.27-5.27,13.81,0,19.09h0Z"></path>
    </g>
    <g class="cls-1">
      <path class="cls-5" d="M230.37,397.8c5.27-5.27,5.27-13.81,0-19.09l-9.54,9.54,9.54,9.54h0Z"></path>
      <path class="cls-5" d="M211.29,397.8l9.54-9.54-9.54-9.54c-5.27,5.27-5.27,13.81,0,19.09h0Z"></path>
    </g>
    <g class="cls-1">
      <path class="cls-5" d="M230.37,428.83c5.27-5.27,5.27-13.81,0-19.09l-9.54,9.54,9.54,9.54h0Z"></path>
      <path class="cls-5" d="M211.29,428.83l9.54-9.54-9.54-9.54c-5.27,5.27-5.27,13.81,0,19.09h0Z"></path>
    </g>
    <g class="cls-1">
      <path class="cls-5" d="M230.37,459.84c5.27-5.27,5.27-13.81,0-19.09l-9.54,9.54,9.54,9.54h0Z"></path>
      <path class="cls-5" d="M211.29,459.84l9.54-9.54-9.54-9.54c-5.27,5.27-5.27,13.81,0,19.09h0Z"></path>
    </g>
    <g class="cls-1">
      <path class="cls-5" d="M230.37,490.86c5.27-5.27,5.27-13.81,0-19.09l-9.54,9.54,9.54,9.54h0Z"></path>
      <path class="cls-5" d="M211.29,490.86l9.54-9.54-9.54-9.54c-5.27,5.27-5.27,13.81,0,19.09h0Z"></path>
    </g>
    <g class="cls-1">
      <path class="cls-5" d="M230.37,521.88c5.27-5.27,5.27-13.81,0-19.09l-9.54,9.54,9.54,9.54h0Z"></path>
      <path class="cls-5" d="M211.29,521.88l9.54-9.54-9.54-9.54c-5.27,5.27-5.27,13.81,0,19.09h0Z"></path>
    </g>
    <g class="cls-1">
      <path class="cls-5" d="M230.37,25.58c5.27-5.27,5.27-13.81,0-19.09l-9.54,9.54,9.54,9.54h0Z"></path>
      <path class="cls-5" d="M211.29,25.58l9.54-9.54-9.54-9.54c-5.27,5.27-5.27,13.81,0,19.09h0Z"></path>
    </g>
    <path class="cls-2" d="M270.95,25.58c5.27-5.27,5.27-13.81,0-19.09l-9.54,9.54,9.54,9.54h0Z"></path>
    <path class="cls-2" d="M251.87,25.58l9.54-9.54-9.54-9.54c-5.27,5.27-5.27,13.81,0,19.09h0Z"></path>
    <path class="cls-2" d="M311.54,25.58c5.27-5.27,5.27-13.81,0-19.09l-9.54,9.54,9.54,9.54h0Z"></path>
    <path class="cls-2" d="M292.45,25.58l9.54-9.54-9.54-9.54c-5.27,5.27-5.27,13.81,0,19.09h0Z"></path>
    <path class="cls-2" d="M352.12,25.58c5.27-5.27,5.27-13.81,0-19.09l-9.54,9.54,9.54,9.54h0Z"></path>
    <path class="cls-2" d="M333.03,25.58l9.54-9.54-9.54-9.54c-5.27,5.27-5.27,13.81,0,19.09h0Z"></path>
    <path class="cls-2" d="M395.43,25.58c5.27-5.27,5.27-13.81,0-19.09l-9.54,9.54,9.54,9.54h0Z"></path>
    <path class="cls-2" d="M376.34,25.58l9.54-9.54-9.54-9.54c-5.27,5.27-5.27,13.81,0,19.09h0Z"></path>
  </g>
  <circle class="cls-6" cx="202.5" cy="392.91" r="45"></circle>
  <g>
    <path class="cls-7" d="M65.24,118.64v-14.7h8.97v1.81h-6.97v4.31h5.54v1.81h-5.54v4.98h7.16v1.81h-9.16Z"></path>
    <path class="cls-7" d="M79.73,118.85c-.65,0-1.17-.12-1.56-.36-.39-.24-.68-.54-.86-.92-.18-.37-.27-.77-.27-1.18v-6.57h-1.76l.17-1.47h1.6v-2.54l1.89-.19v2.73h2.71v1.47h-2.71v5.42c0,.66,.04,1.13,.12,1.43s.27,.48,.57,.56,.8,.12,1.48,.12h.48l-.15,1.51h-1.7Z"></path>
    <path class="cls-7" d="M83.23,118.64v-15.75h1.91v7.25l-.67-.04c.48-.61,1-1.09,1.56-1.43,.56-.35,1.27-.52,2.14-.52s1.63,.2,2.23,.6c.6,.4,1.04,.96,1.34,1.67,.3,.71,.45,1.55,.45,2.5v5.73h-1.89v-5.5c0-1.13-.21-1.97-.62-2.51-.42-.54-1.06-.81-1.92-.81-.65,0-1.23,.17-1.73,.52s-.9,.82-1.19,1.41l.31-1.15v8.04h-1.91Z"></path>
    <path class="cls-7" d="M99.57,118.85c-1.21,0-2.23-.25-3.06-.75-.83-.5-1.45-1.16-1.87-1.98-.42-.82-.64-1.73-.64-2.71s.2-1.84,.59-2.64c.4-.8,.97-1.44,1.72-1.92s1.66-.72,2.72-.72c.85,0,1.62,.17,2.28,.51s1.19,.83,1.58,1.48c.38,.65,.57,1.43,.57,2.36,0,.15,0,.31-.02,.48-.01,.17-.03,.35-.07,.53h-7.46c.09,.95,.32,1.69,.68,2.23,.36,.53,.82,.91,1.38,1.12,.55,.22,1.15,.33,1.81,.33,.48,0,.97-.05,1.49-.15,.52-.1,1.01-.25,1.47-.46l.25,1.49c-.4,.17-.89,.35-1.46,.53-.57,.18-1.24,.27-1.98,.27Zm-3.46-6.66h5.42c0-.48-.09-.9-.27-1.26s-.46-.63-.83-.82-.84-.29-1.42-.29c-.84,0-1.49,.21-1.94,.62-.45,.42-.77,1-.96,1.75Z"></path>
    <path class="cls-7" d="M105.39,118.64v-10.29h1.55l.23,1.7c.52-.65,1.03-1.13,1.51-1.44s.99-.47,1.54-.47c.18,0,.34,.02,.48,.06l-.19,2.08c-.09-.02-.19-.04-.29-.05-.1-.01-.22-.02-.34-.02-.55,0-1.05,.12-1.51,.36-.46,.24-.78,.51-.97,.79v7.27h-2.02Z"></path>
    <path class="cls-7" d="M116.69,118.85c-1.21,0-2.23-.25-3.06-.75-.83-.5-1.45-1.16-1.87-1.98-.42-.82-.64-1.73-.64-2.71s.2-1.84,.59-2.64c.4-.8,.97-1.44,1.72-1.92s1.66-.72,2.72-.72c.85,0,1.62,.17,2.28,.51s1.19,.83,1.58,1.48c.38,.65,.57,1.43,.57,2.36,0,.15,0,.31-.02,.48-.01,.17-.03,.35-.07,.53h-7.46c.09,.95,.32,1.69,.68,2.23,.36,.53,.82,.91,1.38,1.12,.55,.22,1.15,.33,1.81,.33,.48,0,.97-.05,1.49-.15,.52-.1,1.01-.25,1.47-.46l.25,1.49c-.4,.17-.89,.35-1.46,.53-.57,.18-1.24,.27-1.98,.27Zm-3.46-6.66h5.42c0-.48-.09-.9-.27-1.26s-.46-.63-.83-.82-.84-.29-1.42-.29c-.84,0-1.49,.21-1.94,.62-.45,.42-.77,1-.96,1.75Z"></path>
    <path class="cls-7" d="M126.2,118.85c-.81,0-1.49-.16-2.06-.49-.57-.33-1-.82-1.3-1.49-.3-.66-.45-1.51-.45-2.54v-5.98h1.89v5.46c0,1.09,.19,1.93,.56,2.5,.37,.57,.98,.86,1.83,.86,.58,0,1.12-.14,1.62-.42,.5-.28,.84-.73,1.03-1.34l-.27,1.03v-8.08h1.89v10.29h-1.68l-.38-2.02,.5,.34c-.34,.64-.76,1.11-1.25,1.42-.49,.31-1.14,.47-1.94,.47Z"></path>
    <path class="cls-7" d="M133.51,118.64v-10.29h1.47l.38,1.97-.71-.34c.64-.69,1.27-1.17,1.88-1.44s1.25-.4,1.92-.4c.5,0,.99,.08,1.45,.25,.47,.16,.89,.45,1.26,.86,.37,.41,.67,.98,.9,1.71l-.52-.23c.31-.8,.78-1.43,1.42-1.89,.64-.46,1.49-.69,2.57-.69,.86,0,1.59,.16,2.17,.48,.59,.32,1.03,.81,1.33,1.46,.3,.65,.45,1.49,.45,2.49v6.07h-1.89v-6.05c0-.97-.19-1.67-.57-2.11-.38-.44-.99-.66-1.85-.66-.6,0-1.08,.09-1.45,.28-.36,.19-.64,.43-.82,.72-.19,.29-.31,.61-.37,.93-.06,.33-.09,.64-.09,.92v5.96h-1.89v-5.67c0-.84-.1-1.49-.3-1.94-.2-.46-.49-.77-.85-.95-.36-.17-.78-.26-1.26-.26-.69,0-1.31,.15-1.86,.46s-.91,.79-1.1,1.45l.23-1.03v7.94h-1.89Z"></path>
    <path class="cls-7" d="M156.65,106.04v-2.1h1.89v2.1h-1.89Zm0,12.6v-10.29h1.89v10.29h-1.89Z"></path>
    <path class="cls-7" d="M164.02,118.85c-.91,0-1.66-.11-2.26-.33-.6-.22-1.02-.41-1.27-.58l.23-1.83c.22,.2,.62,.42,1.19,.67,.57,.25,1.24,.38,2.03,.38,.66,0,1.17-.11,1.53-.34,.35-.22,.53-.54,.53-.94,0-.36-.11-.65-.34-.87-.23-.22-.5-.4-.82-.52s-.62-.23-.9-.31c-.47-.13-.95-.29-1.45-.48s-.92-.48-1.27-.87c-.34-.38-.51-.92-.51-1.62,0-.52,.13-1.02,.38-1.5,.25-.47,.66-.86,1.23-1.15,.57-.29,1.32-.44,2.26-.44,.69,0,1.24,.07,1.67,.22,.43,.14,.8,.3,1.12,.46l-.23,1.72c-.3-.25-.65-.47-1.05-.64-.4-.17-.89-.26-1.47-.26s-1.07,.11-1.44,.33c-.37,.22-.56,.57-.56,1.06s.2,.83,.59,1.03c.4,.2,1,.43,1.8,.67,.25,.07,.54,.17,.88,.3,.33,.13,.66,.31,.97,.54s.58,.52,.78,.88c.21,.36,.31,.81,.31,1.35,0,.46-.11,.92-.33,1.39-.22,.47-.61,.87-1.18,1.19s-1.38,.48-2.43,.48Z"></path>
    <path class="cls-7" d="M178.07,118.85c-.65,0-1.17-.12-1.56-.36-.39-.24-.68-.54-.86-.92-.18-.37-.27-.77-.27-1.18v-6.57h-1.76l.17-1.47h1.6v-2.54l1.89-.19v2.73h2.71v1.47h-2.71v5.42c0,.66,.04,1.13,.12,1.43s.27,.48,.57,.56,.8,.12,1.48,.12h.48l-.15,1.51h-1.7Z"></path>
    <path class="cls-7" d="M181.57,118.64v-15.75h1.91v7.25l-.67-.04c.48-.61,1-1.09,1.56-1.43,.56-.35,1.27-.52,2.14-.52s1.63,.2,2.23,.6c.6,.4,1.04,.96,1.34,1.67,.3,.71,.45,1.55,.45,2.5v5.73h-1.89v-5.5c0-1.13-.21-1.97-.62-2.51-.42-.54-1.06-.81-1.92-.81-.65,0-1.23,.17-1.73,.52s-.9,.82-1.19,1.41l.31-1.15v8.04h-1.91Z"></path>
    <path class="cls-7" d="M197.91,118.85c-1.21,0-2.23-.25-3.06-.75-.83-.5-1.45-1.16-1.87-1.98-.42-.82-.64-1.73-.64-2.71s.2-1.84,.59-2.64c.4-.8,.97-1.44,1.72-1.92s1.66-.72,2.72-.72c.85,0,1.62,.17,2.28,.51s1.19,.83,1.58,1.48c.38,.65,.57,1.43,.57,2.36,0,.15,0,.31-.02,.48-.01,.17-.03,.35-.07,.53h-7.46c.09,.95,.32,1.69,.68,2.23,.36,.53,.82,.91,1.38,1.12,.55,.22,1.15,.33,1.81,.33,.48,0,.97-.05,1.49-.15,.52-.1,1.01-.25,1.47-.46l.25,1.49c-.4,.17-.89,.35-1.46,.53-.57,.18-1.24,.27-1.98,.27Zm-3.46-6.66h5.42c0-.48-.09-.9-.27-1.26s-.46-.63-.83-.82-.84-.29-1.42-.29c-.84,0-1.49,.21-1.94,.62-.45,.42-.77,1-.96,1.75Z"></path>
    <path class="cls-7" d="M213.18,118.85c-1.16,0-2.14-.24-2.92-.71-.79-.47-1.38-1.11-1.78-1.91-.4-.8-.6-1.69-.6-2.67s.19-1.94,.58-2.76c.39-.82,.99-1.47,1.79-1.94,.81-.48,1.83-.71,3.09-.71,.54,0,1.05,.05,1.53,.16,.48,.11,.91,.26,1.29,.45l-.29,1.66c-.38-.18-.79-.33-1.22-.43s-.88-.16-1.34-.16c-1.13,0-2,.32-2.59,.97-.6,.64-.89,1.54-.89,2.69s.28,2.02,.85,2.7c.57,.68,1.43,1.02,2.59,1.02,.48,0,.93-.06,1.37-.17,.44-.11,.86-.27,1.25-.46l.25,1.51c-.28,.2-.69,.37-1.23,.54-.54,.16-1.11,.24-1.71,.24Z"></path>
    <path class="cls-7" d="M222.33,118.85c-1.08,0-2-.24-2.76-.72s-1.34-1.12-1.74-1.93c-.4-.81-.6-1.71-.6-2.7s.2-1.9,.6-2.7,.98-1.45,1.74-1.93,1.68-.72,2.76-.72,1.99,.24,2.75,.72c.76,.48,1.35,1.12,1.75,1.93,.4,.81,.6,1.71,.6,2.7s-.2,1.9-.6,2.7c-.4,.81-.99,1.45-1.75,1.93-.76,.48-1.68,.72-2.75,.72Zm0-1.68c1.02,0,1.81-.32,2.35-.97,.55-.65,.82-1.55,.82-2.7s-.27-2.06-.82-2.7-1.33-.97-2.35-.97-1.8,.32-2.35,.97-.82,1.55-.82,2.7,.27,2.06,.82,2.7c.55,.65,1.33,.97,2.35,.97Z"></path>
    <path class="cls-7" d="M229.39,118.64v-10.29h1.47l.38,1.97-.71-.34c.64-.69,1.27-1.17,1.88-1.44,.61-.27,1.25-.4,1.92-.4,.5,0,.99,.08,1.45,.25,.47,.16,.89,.45,1.26,.86,.37,.41,.67,.98,.9,1.71l-.53-.23c.31-.8,.78-1.43,1.42-1.89,.64-.46,1.49-.69,2.57-.69,.86,0,1.59,.16,2.17,.48,.59,.32,1.03,.81,1.33,1.46,.3,.65,.45,1.49,.45,2.49v6.07h-1.89v-6.05c0-.97-.19-1.67-.57-2.11-.38-.44-.99-.66-1.85-.66-.6,0-1.08,.09-1.45,.28-.36,.19-.64,.43-.82,.72-.19,.29-.31,.61-.37,.93-.06,.33-.09,.64-.09,.92v5.96h-1.89v-5.67c0-.84-.1-1.49-.3-1.94s-.49-.77-.85-.95c-.36-.17-.78-.26-1.26-.26-.69,0-1.31,.15-1.86,.46-.55,.3-.91,.79-1.1,1.45l.23-1.03v7.94h-1.89Z"></path>
    <path class="cls-7" d="M247.81,118.64v-10.29h1.47l.38,1.97-.71-.34c.64-.69,1.27-1.17,1.88-1.44,.61-.27,1.25-.4,1.92-.4,.5,0,.99,.08,1.45,.25,.47,.16,.89,.45,1.26,.86,.37,.41,.67,.98,.9,1.71l-.53-.23c.31-.8,.78-1.43,1.42-1.89,.64-.46,1.49-.69,2.57-.69,.86,0,1.59,.16,2.17,.48,.59,.32,1.03,.81,1.33,1.46,.3,.65,.45,1.49,.45,2.49v6.07h-1.89v-6.05c0-.97-.19-1.67-.57-2.11-.38-.44-.99-.66-1.85-.66-.6,0-1.08,.09-1.45,.28-.36,.19-.64,.43-.82,.72-.19,.29-.31,.61-.37,.93-.06,.33-.09,.64-.09,.92v5.96h-1.89v-5.67c0-.84-.1-1.49-.3-1.94s-.49-.77-.85-.95c-.36-.17-.78-.26-1.26-.26-.69,0-1.31,.15-1.86,.46-.55,.3-.91,.79-1.1,1.45l.23-1.03v7.94h-1.89Z"></path>
    <path class="cls-7" d="M269.92,118.85c-.8,0-1.49-.16-2.06-.49-.57-.33-1-.82-1.3-1.49-.3-.66-.45-1.51-.45-2.54v-5.98h1.89v5.46c0,1.09,.19,1.93,.56,2.5,.37,.57,.99,.86,1.83,.86,.58,0,1.12-.14,1.62-.42,.5-.28,.84-.73,1.03-1.34l-.27,1.03v-8.08h1.89v10.29h-1.68l-.38-2.02,.5,.34c-.34,.64-.76,1.11-1.25,1.42-.49,.31-1.14,.47-1.94,.47Z"></path>
    <path class="cls-7" d="M277.23,118.64v-10.29h1.47l.38,1.97-.74-.31c.69-.77,1.37-1.27,2.03-1.51,.66-.24,1.31-.36,1.94-.36,1.5,0,2.58,.43,3.23,1.3,.65,.87,.97,2.04,.97,3.53v5.67h-1.89v-5.67c0-1.09-.2-1.89-.61-2.39-.41-.5-1.1-.76-2.08-.76-.69,0-1.33,.15-1.91,.46-.58,.3-.96,.79-1.14,1.45l.23-1.15v8.06h-1.89Z"></path>
    <path class="cls-7" d="M288.97,106.04v-2.1h1.89v2.1h-1.89Zm0,12.6v-10.29h1.89v10.29h-1.89Z"></path>
    <path class="cls-7" d="M296.97,118.85c-.65,0-1.17-.12-1.56-.36-.39-.24-.68-.54-.86-.92-.18-.37-.27-.77-.27-1.18v-6.57h-1.76l.17-1.47h1.6v-2.54l1.89-.19v2.73h2.71v1.47h-2.71v5.42c0,.66,.04,1.13,.12,1.43s.27,.48,.57,.56,.8,.12,1.48,.12h.48l-.15,1.51h-1.7Z"></path>
    <path class="cls-7" d="M301.27,123.72l2.37-5.54-4.28-9.83h2.1l3.21,7.64,2.9-7.64h2.1l-6.3,15.37h-2.1Z"></path>
    <path class="cls-7" d="M311.02,113.01v-1.81h6.51v1.81h-6.51Z"></path>
    <path class="cls-7" d="M320,118.64v-10.29h1.55l.23,1.7c.52-.65,1.03-1.13,1.51-1.44s.99-.47,1.54-.47c.17,0,.34,.02,.48,.06l-.19,2.08c-.09-.02-.19-.04-.29-.05-.1-.01-.21-.02-.34-.02-.55,0-1.05,.12-1.51,.36-.46,.24-.78,.51-.97,.79v7.27h-2.02Z"></path>
    <path class="cls-7" d="M330.34,118.85c-.8,0-1.49-.16-2.06-.49-.57-.33-1-.82-1.3-1.49-.3-.66-.45-1.51-.45-2.54v-5.98h1.89v5.46c0,1.09,.19,1.93,.56,2.5,.37,.57,.99,.86,1.83,.86,.58,0,1.12-.14,1.62-.42,.5-.28,.84-.73,1.03-1.34l-.27,1.03v-8.08h1.89v10.29h-1.68l-.38-2.02,.5,.34c-.34,.64-.76,1.11-1.25,1.42-.49,.31-1.14,.47-1.94,.47Z"></path>
    <path class="cls-7" d="M337.64,118.64v-10.29h1.47l.38,1.97-.74-.31c.69-.77,1.37-1.27,2.03-1.51,.66-.24,1.31-.36,1.94-.36,1.5,0,2.58,.43,3.23,1.3,.65,.87,.97,2.04,.97,3.53v5.67h-1.89v-5.67c0-1.09-.2-1.89-.61-2.39-.41-.5-1.1-.76-2.08-.76-.69,0-1.33,.15-1.91,.46-.58,.3-.96,.79-1.14,1.45l.23-1.15v8.06h-1.89Z"></path>
    <path class="cls-7" d="M68.39,154.85c-.65,0-1.17-.12-1.56-.36-.39-.24-.68-.54-.86-.92-.18-.37-.27-.77-.27-1.18v-6.57h-1.76l.17-1.47h1.6v-2.54l1.89-.19v2.73h2.71v1.47h-2.71v5.42c0,.66,.04,1.13,.12,1.43s.27,.48,.57,.56,.8,.12,1.48,.12h.48l-.15,1.51h-1.7Z"></path>
    <path class="cls-7" d="M76.76,154.85c-1.21,0-2.23-.25-3.06-.75-.83-.5-1.45-1.16-1.87-1.98-.42-.82-.64-1.73-.64-2.71s.2-1.84,.59-2.64c.4-.8,.97-1.44,1.72-1.92s1.66-.72,2.72-.72c.85,0,1.62,.17,2.28,.51s1.19,.83,1.58,1.48c.38,.65,.57,1.43,.57,2.36,0,.15,0,.31-.02,.48-.01,.17-.03,.35-.07,.53h-7.46c.09,.95,.32,1.69,.68,2.23,.36,.53,.82,.91,1.38,1.12,.55,.22,1.15,.33,1.81,.33,.48,0,.97-.05,1.49-.15,.52-.1,1.01-.25,1.47-.46l.25,1.49c-.4,.17-.89,.35-1.46,.53-.57,.18-1.24,.27-1.98,.27Zm-3.46-6.66h5.42c0-.48-.09-.9-.27-1.26s-.46-.63-.83-.82-.84-.29-1.42-.29c-.84,0-1.49,.21-1.94,.62-.45,.42-.77,1-.96,1.75Z"></path>
    <path class="cls-7" d="M87.31,154.85c-1.16,0-2.14-.24-2.92-.71-.79-.47-1.38-1.11-1.78-1.91-.4-.8-.6-1.69-.6-2.67s.19-1.94,.58-2.76c.39-.82,.98-1.47,1.79-1.94,.81-.48,1.83-.71,3.09-.71,.54,0,1.05,.05,1.53,.16,.48,.11,.91,.26,1.29,.45l-.29,1.66c-.38-.18-.79-.33-1.22-.43s-.88-.16-1.34-.16c-1.13,0-2,.32-2.59,.97-.6,.64-.89,1.54-.89,2.69s.28,2.02,.85,2.7c.57,.68,1.43,1.02,2.59,1.02,.48,0,.93-.06,1.37-.17,.44-.11,.86-.27,1.25-.46l.25,1.51c-.28,.2-.69,.37-1.23,.54-.54,.16-1.11,.24-1.71,.24Z"></path>
    <path class="cls-7" d="M92.09,154.64v-15.75h1.91v7.25l-.67-.04c.48-.61,1-1.09,1.56-1.43,.56-.35,1.27-.52,2.14-.52s1.63,.2,2.23,.6c.6,.4,1.04,.96,1.34,1.67,.3,.71,.45,1.55,.45,2.5v5.73h-1.89v-5.5c0-1.13-.21-1.97-.62-2.51-.42-.54-1.06-.81-1.92-.81-.65,0-1.23,.17-1.73,.52s-.9,.82-1.19,1.41l.31-1.15v8.04h-1.91Z"></path>
    <path class="cls-7" d="M103.5,154.64v-10.29h1.47l.38,1.97-.73-.31c.69-.77,1.37-1.27,2.03-1.51,.66-.24,1.31-.36,1.94-.36,1.51,0,2.58,.43,3.23,1.3,.65,.87,.97,2.04,.97,3.53v5.67h-1.89v-5.67c0-1.09-.2-1.89-.61-2.39-.41-.5-1.1-.76-2.08-.76-.69,0-1.33,.15-1.91,.46-.58,.3-.96,.79-1.14,1.45l.23-1.15v8.06h-1.89Z"></path>
    <path class="cls-7" d="M119.73,154.85c-1.08,0-2-.24-2.76-.72-.76-.48-1.34-1.12-1.74-1.93-.4-.81-.6-1.71-.6-2.7s.2-1.9,.6-2.7c.4-.81,.98-1.45,1.74-1.93,.76-.48,1.68-.72,2.76-.72s1.99,.24,2.75,.72c.76,.48,1.35,1.12,1.75,1.93,.4,.81,.6,1.71,.6,2.7s-.2,1.9-.6,2.7c-.4,.81-.99,1.45-1.75,1.93-.76,.48-1.68,.72-2.75,.72Zm0-1.68c1.02,0,1.81-.32,2.35-.97,.55-.65,.82-1.55,.82-2.7s-.27-2.06-.82-2.7-1.33-.97-2.35-.97-1.8,.32-2.35,.97c-.55,.65-.82,1.55-.82,2.7s.27,2.06,.82,2.7c.55,.65,1.33,.97,2.35,.97Z"></path>
    <path class="cls-7" d="M129.43,154.85c-.67,0-1.19-.12-1.58-.36-.39-.24-.67-.55-.83-.93s-.25-.77-.25-1.19v-13.48h1.89v12.39c0,.59,.04,1.03,.12,1.32,.08,.29,.23,.49,.47,.59,.23,.1,.59,.15,1.08,.15l-.27,1.51h-.61Z"></path>
    <path class="cls-7" d="M136.13,154.85c-1.08,0-2-.24-2.76-.72-.76-.48-1.34-1.12-1.74-1.93-.4-.81-.6-1.71-.6-2.7s.2-1.9,.6-2.7c.4-.81,.98-1.45,1.74-1.93,.76-.48,1.68-.72,2.76-.72s1.99,.24,2.75,.72c.76,.48,1.35,1.12,1.75,1.93,.4,.81,.6,1.71,.6,2.7s-.2,1.9-.6,2.7c-.4,.81-.99,1.45-1.75,1.93-.76,.48-1.68,.72-2.75,.72Zm0-1.68c1.02,0,1.81-.32,2.35-.97,.55-.65,.82-1.55,.82-2.7s-.27-2.06-.82-2.7-1.33-.97-2.35-.97-1.8,.32-2.35,.97c-.55,.65-.82,1.55-.82,2.7s.27,2.06,.82,2.7c.55,.65,1.33,.97,2.35,.97Z"></path>
    <path class="cls-7" d="M147.34,159.89c-.94,0-1.78-.12-2.51-.35-.74-.23-1.32-.57-1.74-1.03s-.64-1.02-.64-1.69c0-.56,.16-1.04,.48-1.44,.32-.4,.75-.73,1.31-.97-.33-.16-.58-.35-.75-.57s-.26-.46-.26-.73c0-.31,.1-.6,.29-.86,.19-.26,.5-.47,.93-.64-.57-.36-1.02-.84-1.32-1.44s-.46-1.28-.46-2.02,.17-1.43,.5-2.03c.34-.61,.82-1.09,1.45-1.44,.63-.36,1.39-.54,2.28-.54,.48,0,.93,.07,1.35,.21s.81,.34,1.17,.59c.31-.18,.69-.33,1.12-.45s.91-.18,1.44-.18h.17l-.23,1.26h-.48c-.07,0-.23,.01-.48,.03-.25,.02-.48,.06-.69,.12,.29,.34,.51,.71,.67,1.13,.16,.42,.24,.85,.24,1.31,0,.78-.17,1.49-.51,2.1-.34,.62-.83,1.11-1.46,1.47-.64,.36-1.4,.54-2.29,.54-.25,0-.49-.02-.72-.05-.23-.03-.45-.08-.66-.14-.32,.1-.48,.29-.48,.55,0,.15,.09,.29,.27,.4,.18,.12,.48,.2,.88,.27l2.75,.44c1.11,.17,1.97,.5,2.58,.97s.91,1.13,.91,2c0,.71-.21,1.31-.62,1.78-.42,.47-1.01,.83-1.77,1.06-.76,.23-1.66,.35-2.69,.35Zm.17-1.68c.97,0,1.71-.12,2.23-.37s.78-.61,.78-1.1c0-.38-.16-.68-.49-.89-.33-.22-.79-.38-1.4-.49l-2.93-.49c-.39,.17-.72,.39-1.01,.68-.29,.28-.43,.61-.43,.99,0,.59,.3,1.01,.89,1.28,.59,.27,1.38,.4,2.37,.4Zm-.61-7.45c.8,0,1.41-.24,1.83-.72,.42-.48,.63-1.1,.63-1.86s-.21-1.34-.63-1.81c-.42-.47-1.03-.71-1.83-.71s-1.4,.24-1.82,.71c-.41,.47-.62,1.08-.62,1.81s.21,1.38,.62,1.86c.41,.48,1.02,.72,1.82,.72Z"></path>
    <path class="cls-7" d="M154.42,159.72l2.37-5.54-4.28-9.83h2.1l3.21,7.64,2.9-7.64h2.1l-6.3,15.37h-2.1Z"></path>
    <path class="cls-7" d="M168.97,159.72v-15.37h1.47l.34,2.35-.52-.38c.43-.67,.97-1.2,1.61-1.6,.64-.39,1.42-.59,2.34-.59s1.74,.24,2.42,.71c.67,.48,1.19,1.12,1.54,1.93,.36,.81,.54,1.71,.54,2.71s-.17,1.91-.5,2.71-.84,1.45-1.5,1.93-1.49,.71-2.49,.71c-.82,0-1.56-.17-2.22-.51-.66-.34-1.14-.85-1.43-1.53l.31-.38v7.29h-1.89Zm4.87-6.55c.92,0,1.63-.32,2.15-.97,.51-.65,.77-1.55,.77-2.7s-.26-2.06-.77-2.7-1.23-.97-2.15-.97c-.57,0-1.08,.13-1.55,.4-.47,.27-.84,.68-1.12,1.22-.28,.54-.42,1.23-.42,2.05s.14,1.56,.42,2.1c.28,.54,.65,.94,1.12,1.19,.47,.26,.98,.38,1.55,.38Z"></path>
    <path class="cls-7" d="M185.17,154.85c-1.08,0-2-.24-2.76-.72-.76-.48-1.34-1.12-1.74-1.93-.4-.81-.6-1.71-.6-2.7s.2-1.9,.6-2.7c.4-.81,.98-1.45,1.74-1.93,.76-.48,1.68-.72,2.76-.72s1.99,.24,2.75,.72c.76,.48,1.35,1.12,1.75,1.93,.4,.81,.6,1.71,.6,2.7s-.2,1.9-.6,2.7c-.4,.81-.99,1.45-1.75,1.93-.76,.48-1.68,.72-2.75,.72Zm0-1.68c1.02,0,1.81-.32,2.35-.97,.55-.65,.82-1.55,.82-2.7s-.27-2.06-.82-2.7-1.33-.97-2.35-.97-1.8,.32-2.35,.97c-.55,.65-.82,1.55-.82,2.7s.27,2.06,.82,2.7c.55,.65,1.33,.97,2.35,.97Z"></path>
    <path class="cls-7" d="M194.17,154.64l-3.09-10.29h2.23l1.97,8.21,2.18-7.9h1.95l2.21,7.9,1.97-8.21h2.23l-3.11,10.29h-2.12l-2.14-7.6-2.16,7.6h-2.12Z"></path>
    <path class="cls-7" d="M212.17,154.85c-1.21,0-2.23-.25-3.06-.75-.83-.5-1.45-1.16-1.87-1.98-.42-.82-.64-1.73-.64-2.71s.2-1.84,.59-2.64c.4-.8,.97-1.44,1.72-1.92,.75-.48,1.66-.72,2.72-.72,.85,0,1.62,.17,2.28,.51,.67,.34,1.19,.83,1.58,1.48,.38,.65,.57,1.43,.57,2.36,0,.15,0,.31-.02,.48-.01,.17-.03,.35-.07,.53h-7.46c.09,.95,.32,1.69,.68,2.23,.36,.53,.82,.91,1.38,1.12s1.16,.33,1.81,.33c.48,0,.97-.05,1.49-.15,.52-.1,1.01-.25,1.47-.46l.25,1.49c-.4,.17-.89,.35-1.46,.53-.57,.18-1.24,.27-1.98,.27Zm-3.46-6.66h5.42c0-.48-.09-.9-.27-1.26-.18-.36-.46-.63-.83-.82s-.84-.29-1.42-.29c-.84,0-1.49,.21-1.94,.62-.45,.42-.77,1-.96,1.75Z"></path>
    <path class="cls-7" d="M217.99,154.64v-10.29h1.55l.23,1.7c.53-.65,1.03-1.13,1.51-1.44s.99-.47,1.54-.47c.18,0,.34,.02,.48,.06l-.19,2.08c-.09-.02-.19-.04-.29-.05-.1-.01-.22-.02-.34-.02-.55,0-1.05,.12-1.51,.36-.46,.24-.78,.51-.97,.79v7.27h-2.02Z"></path>
    <path class="cls-7" d="M224.62,142.04v-2.1h1.89v2.1h-1.89Zm0,12.6v-10.29h1.89v10.29h-1.89Z"></path>
    <path class="cls-7" d="M229.08,154.64v-10.29h1.47l.38,1.97-.74-.31c.69-.77,1.37-1.27,2.03-1.51,.66-.24,1.31-.36,1.94-.36,1.5,0,2.58,.43,3.23,1.3,.65,.87,.97,2.04,.97,3.53v5.67h-1.89v-5.67c0-1.09-.2-1.89-.61-2.39-.41-.5-1.1-.76-2.08-.76-.69,0-1.33,.15-1.91,.46-.58,.3-.96,.79-1.14,1.45l.23-1.15v8.06h-1.89Z"></path>
    <path class="cls-7" d="M244.97,159.89c-.94,0-1.78-.12-2.52-.35-.74-.23-1.32-.57-1.74-1.03-.42-.46-.64-1.02-.64-1.69,0-.56,.16-1.04,.48-1.44,.32-.4,.75-.73,1.31-.97-.33-.16-.58-.35-.75-.57s-.26-.46-.26-.73c0-.31,.1-.6,.29-.86s.5-.47,.93-.64c-.57-.36-1.01-.84-1.32-1.44-.31-.61-.46-1.28-.46-2.02s.17-1.43,.5-2.03,.82-1.09,1.45-1.44c.63-.36,1.4-.54,2.28-.54,.48,0,.93,.07,1.35,.21,.42,.14,.81,.34,1.17,.59,.32-.18,.69-.33,1.12-.45,.43-.12,.91-.18,1.44-.18h.17l-.23,1.26h-.48c-.07,0-.23,.01-.48,.03s-.48,.06-.69,.12c.29,.34,.51,.71,.67,1.13,.16,.42,.24,.85,.24,1.31,0,.78-.17,1.49-.51,2.1-.34,.62-.83,1.11-1.46,1.47-.64,.36-1.4,.54-2.29,.54-.25,0-.49-.02-.72-.05-.23-.03-.45-.08-.66-.14-.32,.1-.48,.29-.48,.55,0,.15,.09,.29,.27,.4,.18,.12,.48,.2,.88,.27l2.75,.44c1.11,.17,1.97,.5,2.58,.97s.91,1.13,.91,2c0,.71-.21,1.31-.62,1.78-.42,.47-1.01,.83-1.77,1.06-.76,.23-1.66,.35-2.69,.35Zm.17-1.68c.97,0,1.71-.12,2.23-.37,.52-.25,.78-.61,.78-1.1,0-.38-.16-.68-.49-.89-.33-.22-.79-.38-1.4-.49l-2.93-.49c-.38,.17-.72,.39-1.01,.68-.29,.28-.43,.61-.43,.99,0,.59,.3,1.01,.89,1.28s1.38,.4,2.37,.4Zm-.61-7.45c.8,0,1.41-.24,1.83-.72,.42-.48,.63-1.1,.63-1.86s-.21-1.34-.63-1.81-1.03-.71-1.83-.71-1.4,.24-1.82,.71-.62,1.08-.62,1.81,.21,1.38,.62,1.86c.41,.48,1.02,.72,1.82,.72Z"></path>
    <path class="cls-7" d="M259.55,154.85c-.65,0-1.17-.12-1.56-.36-.39-.24-.68-.54-.86-.92-.18-.37-.27-.77-.27-1.18v-6.57h-1.76l.17-1.47h1.6v-2.54l1.89-.19v2.73h2.71v1.47h-2.71v5.42c0,.66,.04,1.13,.12,1.43s.27,.48,.57,.56,.8,.12,1.48,.12h.48l-.15,1.51h-1.7Z"></path>
    <path class="cls-7" d="M263.05,154.64v-15.75h1.91v7.25l-.67-.04c.48-.61,1-1.09,1.56-1.43,.56-.35,1.27-.52,2.14-.52s1.63,.2,2.23,.6,1.04,.96,1.34,1.67,.45,1.55,.45,2.5v5.73h-1.89v-5.5c0-1.13-.21-1.97-.62-2.51-.42-.54-1.06-.81-1.92-.81-.65,0-1.23,.17-1.73,.52-.5,.35-.9,.82-1.19,1.41l.31-1.15v8.04h-1.91Z"></path>
    <path class="cls-7" d="M279.39,154.85c-1.21,0-2.23-.25-3.06-.75-.83-.5-1.45-1.16-1.87-1.98-.42-.82-.63-1.73-.63-2.71s.2-1.84,.59-2.64c.4-.8,.97-1.44,1.72-1.92,.75-.48,1.66-.72,2.73-.72,.85,0,1.62,.17,2.28,.51,.67,.34,1.19,.83,1.58,1.48s.57,1.43,.57,2.36c0,.15,0,.31-.02,.48-.01,.17-.03,.35-.07,.53h-7.46c.09,.95,.32,1.69,.68,2.23,.36,.53,.82,.91,1.38,1.12,.55,.22,1.16,.33,1.81,.33,.48,0,.97-.05,1.49-.15,.52-.1,1.01-.25,1.47-.46l.25,1.49c-.4,.17-.89,.35-1.46,.53-.57,.18-1.24,.27-1.98,.27Zm-3.46-6.66h5.42c0-.48-.09-.9-.27-1.26-.18-.36-.46-.63-.83-.82s-.84-.29-1.42-.29c-.84,0-1.49,.21-1.94,.62-.45,.42-.77,1-.96,1.75Z"></path>
    <path class="cls-7" d="M69.56,190.85c-1.16,0-2.14-.24-2.92-.71-.79-.47-1.38-1.11-1.78-1.91-.4-.8-.6-1.69-.6-2.67s.19-1.94,.58-2.76c.39-.82,.98-1.47,1.79-1.94,.81-.48,1.83-.71,3.09-.71,.54,0,1.05,.05,1.53,.16,.48,.11,.91,.26,1.29,.45l-.29,1.66c-.38-.18-.79-.33-1.22-.43s-.88-.16-1.34-.16c-1.13,0-2,.32-2.59,.97-.6,.64-.89,1.54-.89,2.69s.28,2.02,.85,2.7c.57,.68,1.43,1.02,2.59,1.02,.48,0,.93-.06,1.37-.17,.44-.11,.86-.27,1.25-.46l.25,1.51c-.28,.2-.69,.37-1.23,.54-.54,.16-1.11,.24-1.71,.24Z"></path>
    <path class="cls-7" d="M74.37,190.64v-10.29h1.55l.23,1.7c.52-.65,1.03-1.13,1.51-1.44s.99-.47,1.54-.47c.18,0,.34,.02,.48,.06l-.19,2.08c-.09-.02-.19-.04-.29-.05-.1-.01-.22-.02-.34-.02-.55,0-1.05,.12-1.51,.36-.46,.24-.78,.51-.97,.79v7.27h-2.02Z"></path>
    <path class="cls-7" d="M81.78,195.72l2.37-5.54-4.28-9.83h2.1l3.21,7.64,2.9-7.64h2.1l-6.3,15.37h-2.1Z"></path>
    <path class="cls-7" d="M91.61,195.72v-15.37h1.47l.34,2.35-.52-.38c.43-.67,.97-1.2,1.61-1.6,.64-.39,1.42-.59,2.34-.59s1.74,.24,2.42,.71c.67,.48,1.19,1.12,1.54,1.93,.36,.81,.54,1.71,.54,2.71s-.17,1.91-.5,2.71-.84,1.45-1.5,1.93-1.49,.71-2.49,.71c-.82,0-1.56-.17-2.22-.51-.66-.34-1.14-.85-1.43-1.53l.31-.38v7.29h-1.89Zm4.87-6.55c.92,0,1.63-.32,2.15-.97,.51-.65,.77-1.55,.77-2.7s-.26-2.06-.77-2.7-1.23-.97-2.15-.97c-.57,0-1.08,.13-1.55,.4-.47,.27-.84,.68-1.12,1.22-.28,.54-.42,1.23-.42,2.05s.14,1.56,.42,2.1c.28,.54,.65,.94,1.12,1.19,.47,.26,.98,.38,1.55,.38Z"></path>
    <path class="cls-7" d="M106.71,190.85c-.65,0-1.17-.12-1.56-.36-.39-.24-.68-.54-.86-.92-.18-.37-.27-.77-.27-1.18v-6.57h-1.76l.17-1.47h1.6v-2.54l1.89-.19v2.73h2.71v1.47h-2.71v5.42c0,.66,.04,1.13,.12,1.43s.27,.48,.57,.56,.8,.12,1.48,.12h.48l-.15,1.51h-1.7Z"></path>
    <path class="cls-7" d="M114.65,190.85c-1.08,0-2-.24-2.76-.72-.76-.48-1.34-1.12-1.74-1.93-.4-.81-.6-1.71-.6-2.7s.2-1.9,.6-2.7c.4-.81,.98-1.45,1.74-1.93,.76-.48,1.68-.72,2.76-.72s1.99,.24,2.75,.72c.76,.48,1.35,1.12,1.75,1.93,.4,.81,.6,1.71,.6,2.7s-.2,1.9-.6,2.7c-.4,.81-.99,1.45-1.75,1.93-.76,.48-1.68,.72-2.75,.72Zm0-1.68c1.02,0,1.81-.32,2.35-.97,.55-.65,.82-1.55,.82-2.7s-.27-2.06-.82-2.7-1.33-.97-2.35-.97-1.8,.32-2.35,.97c-.55,.65-.82,1.55-.82,2.7s.27,2.06,.82,2.7c.55,.65,1.33,.97,2.35,.97Z"></path>
    <path class="cls-7" d="M126.43,190.85c-1.16,0-2.14-.24-2.92-.71-.79-.47-1.38-1.11-1.78-1.91-.4-.8-.6-1.69-.6-2.67s.19-1.94,.58-2.76c.39-.82,.98-1.47,1.79-1.94,.81-.48,1.83-.71,3.09-.71,.54,0,1.05,.05,1.53,.16,.48,.11,.91,.26,1.29,.45l-.29,1.66c-.38-.18-.79-.33-1.22-.43s-.88-.16-1.34-.16c-1.13,0-2,.32-2.59,.97-.6,.64-.89,1.54-.89,2.69s.28,2.02,.85,2.7c.57,.68,1.43,1.02,2.59,1.02,.48,0,.93-.06,1.37-.17,.44-.11,.86-.27,1.25-.46l.25,1.51c-.28,.2-.69,.37-1.23,.54-.54,.16-1.11,.24-1.71,.24Z"></path>
    <path class="cls-7" d="M134.93,190.85c-.81,0-1.49-.16-2.06-.49-.57-.33-1-.82-1.3-1.49-.3-.66-.45-1.51-.45-2.54v-5.98h1.89v5.46c0,1.09,.19,1.93,.56,2.5,.37,.57,.98,.86,1.83,.86,.58,0,1.12-.14,1.62-.42,.5-.28,.84-.73,1.03-1.34l-.27,1.03v-8.08h1.89v10.29h-1.68l-.38-2.02,.5,.34c-.34,.64-.76,1.11-1.25,1.42-.49,.31-1.14,.47-1.94,.47Z"></path>
    <path class="cls-7" d="M142.24,190.64v-10.29h1.55l.23,1.7c.52-.65,1.03-1.13,1.51-1.44s.99-.47,1.54-.47c.18,0,.34,.02,.48,.06l-.19,2.08c-.09-.02-.19-.04-.29-.05-.1-.01-.22-.02-.34-.02-.55,0-1.05,.12-1.51,.36-.46,.24-.78,.51-.97,.79v7.27h-2.02Z"></path>
    <path class="cls-7" d="M148.88,190.64v-10.29h1.55l.23,1.7c.52-.65,1.03-1.13,1.51-1.44s.99-.47,1.54-.47c.18,0,.34,.02,.48,.06l-.19,2.08c-.09-.02-.19-.04-.29-.05-.1-.01-.22-.02-.34-.02-.55,0-1.05,.12-1.51,.36-.46,.24-.78,.51-.97,.79v7.27h-2.02Z"></path>
    <path class="cls-7" d="M160.18,190.85c-1.21,0-2.23-.25-3.06-.75-.83-.5-1.45-1.16-1.87-1.98-.42-.82-.64-1.73-.64-2.71s.2-1.84,.59-2.64c.4-.8,.97-1.44,1.72-1.92s1.66-.72,2.72-.72c.85,0,1.62,.17,2.28,.51s1.19,.83,1.58,1.48c.38,.65,.57,1.43,.57,2.36,0,.15,0,.31-.02,.48-.01,.17-.03,.35-.07,.53h-7.46c.09,.95,.32,1.69,.68,2.23,.36,.53,.82,.91,1.38,1.12,.55,.22,1.15,.33,1.81,.33,.48,0,.97-.05,1.49-.15,.52-.1,1.01-.25,1.47-.46l.25,1.49c-.4,.17-.89,.35-1.46,.53-.57,.18-1.24,.27-1.98,.27Zm-3.46-6.66h5.42c0-.48-.09-.9-.27-1.26s-.46-.63-.83-.82-.84-.29-1.42-.29c-.84,0-1.49,.21-1.94,.62-.45,.42-.77,1-.96,1.75Z"></path>
    <path class="cls-7" d="M165.99,190.64v-10.29h1.47l.38,1.97-.73-.31c.69-.77,1.37-1.27,2.03-1.51,.66-.24,1.31-.36,1.94-.36,1.51,0,2.58,.43,3.23,1.3,.65,.87,.97,2.04,.97,3.53v5.67h-1.89v-5.67c0-1.09-.2-1.89-.61-2.39-.41-.5-1.1-.76-2.08-.76-.69,0-1.33,.15-1.91,.46-.58,.3-.96,.79-1.14,1.45l.23-1.15v8.06h-1.89Z"></path>
    <path class="cls-7" d="M182.46,190.85c-1.16,0-2.14-.24-2.92-.71-.79-.47-1.38-1.11-1.78-1.91-.4-.8-.6-1.69-.6-2.67s.19-1.94,.58-2.76c.39-.82,.98-1.47,1.79-1.94,.81-.48,1.83-.71,3.09-.71,.54,0,1.05,.05,1.53,.16,.48,.11,.91,.26,1.29,.45l-.29,1.66c-.38-.18-.79-.33-1.22-.43s-.88-.16-1.34-.16c-1.13,0-2,.32-2.59,.97-.6,.64-.89,1.54-.89,2.69s.28,2.02,.85,2.7c.57,.68,1.43,1.02,2.59,1.02,.48,0,.93-.06,1.37-.17,.44-.11,.86-.27,1.25-.46l.25,1.51c-.28,.2-.69,.37-1.23,.54-.54,.16-1.11,.24-1.71,.24Z"></path>
    <path class="cls-7" d="M188.04,195.72l2.37-5.54-4.28-9.83h2.1l3.21,7.64,2.9-7.64h2.1l-6.3,15.37h-2.1Z"></path>
    <path class="cls-7" d="M207.53,190.85c-1.21,0-2.23-.25-3.05-.75-.83-.5-1.45-1.16-1.87-1.98-.42-.82-.64-1.73-.64-2.71s.2-1.84,.59-2.64c.4-.8,.97-1.44,1.72-1.92,.75-.48,1.66-.72,2.72-.72,.85,0,1.62,.17,2.28,.51,.67,.34,1.19,.83,1.58,1.48s.57,1.43,.57,2.36c0,.15,0,.31-.02,.48-.01,.17-.03,.35-.07,.53h-7.46c.09,.95,.32,1.69,.68,2.23,.36,.53,.82,.91,1.38,1.12,.55,.22,1.15,.33,1.81,.33,.48,0,.97-.05,1.49-.15,.52-.1,1.01-.25,1.47-.46l.25,1.49c-.4,.17-.89,.35-1.46,.53-.57,.18-1.24,.27-1.99,.27Zm-3.46-6.66h5.42c0-.48-.09-.9-.27-1.26-.18-.36-.46-.63-.83-.82s-.84-.29-1.42-.29c-.84,0-1.49,.21-1.94,.62s-.77,1-.96,1.75Z"></path>
    <path class="cls-7" d="M216.9,190.85c-.65,0-1.17-.12-1.56-.36s-.68-.54-.86-.92c-.18-.37-.27-.77-.27-1.18v-6.57h-1.76l.17-1.47h1.6v-2.54l1.89-.19v2.73h2.71v1.47h-2.71v5.42c0,.66,.04,1.13,.12,1.43s.27,.48,.57,.56,.8,.12,1.48,.12h.48l-.15,1.51h-1.7Z"></path>
    <path class="cls-7" d="M220.4,190.64v-15.75h1.91v7.25l-.67-.04c.48-.61,1-1.09,1.56-1.43,.56-.35,1.27-.52,2.14-.52s1.63,.2,2.23,.6c.6,.4,1.04,.96,1.34,1.67s.45,1.55,.45,2.5v5.73h-1.89v-5.5c0-1.13-.21-1.97-.62-2.51-.42-.54-1.05-.81-1.92-.81-.65,0-1.23,.17-1.73,.52-.5,.35-.9,.82-1.19,1.41l.31-1.15v8.04h-1.91Z"></path>
    <path class="cls-7" d="M236.74,190.85c-1.21,0-2.23-.25-3.06-.75-.83-.5-1.45-1.16-1.87-1.98-.42-.82-.63-1.73-.63-2.71s.2-1.84,.59-2.64c.4-.8,.97-1.44,1.72-1.92,.75-.48,1.66-.72,2.73-.72,.85,0,1.62,.17,2.28,.51,.67,.34,1.19,.83,1.58,1.48s.57,1.43,.57,2.36c0,.15,0,.31-.02,.48-.01,.17-.03,.35-.07,.53h-7.46c.09,.95,.32,1.69,.68,2.23,.36,.53,.82,.91,1.38,1.12,.55,.22,1.16,.33,1.81,.33,.48,0,.97-.05,1.49-.15,.52-.1,1.01-.25,1.47-.46l.25,1.49c-.4,.17-.89,.35-1.46,.53-.57,.18-1.24,.27-1.98,.27Zm-3.46-6.66h5.42c0-.48-.09-.9-.27-1.26-.18-.36-.46-.63-.83-.82s-.84-.29-1.42-.29c-.84,0-1.49,.21-1.94,.62-.45,.42-.77,1-.96,1.75Z"></path>
    <path class="cls-7" d="M242.56,190.64v-10.29h1.55l.23,1.7c.52-.65,1.03-1.13,1.51-1.44s.99-.47,1.54-.47c.17,0,.34,.02,.48,.06l-.19,2.08c-.09-.02-.19-.04-.29-.05-.1-.01-.21-.02-.34-.02-.55,0-1.05,.12-1.51,.36-.46,.24-.78,.51-.97,.79v7.27h-2.02Z"></path>
    <path class="cls-7" d="M256.92,193.5c-.52-.76-.99-1.59-1.42-2.49-.43-.9-.77-1.91-1.02-3.03s-.38-2.38-.38-3.78,.13-2.66,.38-3.78c.25-1.12,.59-2.13,1.02-3.03,.43-.9,.9-1.73,1.42-2.49h1.66c-.7,1.18-1.31,2.52-1.82,4.03-.51,1.51-.77,3.27-.77,5.28s.25,3.76,.77,5.27c.51,1.51,1.12,2.86,1.82,4.03h-1.66Z"></path>
    <path class="cls-7" d="M260.62,190.64v-14.7h8.97v1.81h-6.97v4.31h5.54v1.81h-5.54v4.98h7.16v1.81h-9.16Z"></path>
    <path class="cls-7" d="M275.17,190.64v-12.89h-4.28v-1.81h10.56v1.81h-4.28v12.89h-2Z"></path>
    <path class="cls-7" d="M283.44,190.64v-14.7h2v6.07h7.48v-6.07h2v14.7h-2v-6.74h-7.48v6.74h-2Z"></path>
    <path class="cls-7" d="M297.01,193.5c.71-1.18,1.31-2.52,1.82-4.03,.51-1.51,.76-3.27,.76-5.27s-.25-3.77-.76-5.28c-.51-1.51-1.12-2.85-1.82-4.03h1.66c.52,.76,.99,1.59,1.42,2.49,.43,.9,.77,1.92,1.02,3.03,.25,1.12,.38,2.38,.38,3.78s-.13,2.66-.38,3.78-.59,2.13-1.02,3.03c-.43,.9-.9,1.73-1.42,2.49h-1.66Z"></path>
    <path class="cls-7" d="M67.23,226.85c-.64,0-1.19-.13-1.67-.39-.48-.26-.85-.61-1.11-1.06-.26-.45-.39-.96-.39-1.53s.13-1.08,.38-1.5,.6-.76,1.03-1.04c.43-.28,.91-.5,1.44-.66,.53-.16,1.08-.28,1.65-.36,.57-.07,1.12-.11,1.64-.12,0-.98-.19-1.62-.58-1.92-.39-.3-.94-.45-1.67-.45-.39,0-.8,.06-1.23,.18-.44,.12-.93,.37-1.48,.75l-.27-1.53c.41-.31,.93-.57,1.54-.77,.62-.2,1.26-.3,1.94-.3,.87,0,1.57,.15,2.1,.46,.53,.3,.92,.82,1.17,1.54,.24,.72,.37,1.7,.37,2.94v2.1c0,.49,.02,.89,.07,1.21,.05,.32,.15,.56,.31,.71,.16,.16,.43,.24,.79,.24h.19l-.29,1.51h-.15c-.61,0-1.08-.06-1.41-.18-.33-.12-.59-.29-.76-.51s-.33-.5-.47-.82c-.39,.45-.84,.81-1.37,1.09s-1.12,.42-1.79,.42Zm.36-1.51c.5,0,.99-.13,1.46-.38,.47-.25,.86-.59,1.16-1.01v-2.46c-1,.04-1.81,.13-2.43,.29-.62,.16-1.07,.4-1.36,.72-.29,.32-.43,.74-.43,1.25,0,.55,.15,.95,.45,1.2,.3,.25,.68,.37,1.15,.37Z"></path>
    <path class="cls-7" d="M74.92,226.64v-10.29h1.47l.38,1.97-.73-.31c.69-.77,1.37-1.27,2.03-1.51,.66-.24,1.31-.36,1.94-.36,1.51,0,2.58,.43,3.23,1.3,.65,.87,.97,2.04,.97,3.53v5.67h-1.89v-5.67c0-1.09-.2-1.89-.61-2.39-.41-.5-1.1-.76-2.08-.76-.69,0-1.33,.15-1.91,.46-.58,.3-.96,.79-1.14,1.45l.23-1.15v8.06h-1.89Z"></path>
    <path class="cls-7" d="M90.73,226.85c-.88,0-1.67-.24-2.37-.71s-1.27-1.12-1.69-1.92c-.42-.81-.62-1.7-.62-2.7s.19-1.83,.57-2.65,.92-1.48,1.62-1.98c.7-.5,1.53-.75,2.49-.75,.69,0,1.35,.15,1.99,.45s1.16,.79,1.56,1.49l-.4,.27v-7.46h1.89v15.75h-1.68l-.36-2.18,.48,.34c-.3,.68-.77,1.19-1.42,1.54-.64,.35-1.33,.52-2.07,.52Zm.34-1.68c.48,0,.95-.12,1.41-.37,.47-.25,.85-.64,1.16-1.17s.46-1.24,.46-2.12c0-.81-.15-1.49-.46-2.04-.3-.55-.69-.96-1.16-1.24-.47-.28-.94-.41-1.41-.41-.64,0-1.2,.16-1.66,.48-.46,.32-.82,.76-1.06,1.32-.25,.56-.37,1.19-.37,1.9,0,.67,.12,1.27,.37,1.83,.24,.55,.6,1,1.06,1.33,.46,.33,1.01,.5,1.66,.5Z"></path>
    <path class="cls-7" d="M106.58,226.85c-.65,0-1.17-.12-1.56-.36-.39-.24-.68-.54-.86-.92-.18-.37-.27-.77-.27-1.18v-6.57h-1.76l.17-1.47h1.6v-2.54l1.89-.19v2.73h2.71v1.47h-2.71v5.42c0,.66,.04,1.13,.12,1.43s.27,.48,.57,.56,.8,.12,1.48,.12h.48l-.15,1.51h-1.7Z"></path>
    <path class="cls-7" d="M110.09,226.64v-15.75h1.91v7.25l-.67-.04c.48-.61,1-1.09,1.56-1.43,.56-.35,1.27-.52,2.14-.52s1.63,.2,2.23,.6c.6,.4,1.04,.96,1.34,1.67,.3,.71,.45,1.55,.45,2.5v5.73h-1.89v-5.5c0-1.13-.21-1.97-.62-2.51-.42-.54-1.06-.81-1.92-.81-.65,0-1.23,.17-1.73,.52s-.9,.82-1.19,1.41l.31-1.15v8.04h-1.91Z"></path>
    <path class="cls-7" d="M125.99,226.85c-1.08,0-2-.24-2.76-.72-.76-.48-1.34-1.12-1.74-1.93-.4-.81-.6-1.71-.6-2.7s.2-1.9,.6-2.7c.4-.81,.98-1.45,1.74-1.93,.76-.48,1.68-.72,2.76-.72s1.99,.24,2.75,.72c.76,.48,1.35,1.12,1.75,1.93,.4,.81,.6,1.71,.6,2.7s-.2,1.9-.6,2.7c-.4,.81-.99,1.45-1.75,1.93-.76,.48-1.68,.72-2.75,.72Zm0-1.68c1.02,0,1.81-.32,2.35-.97,.55-.65,.82-1.55,.82-2.7s-.27-2.06-.82-2.7-1.33-.97-2.35-.97-1.8,.32-2.35,.97c-.55,.65-.82,1.55-.82,2.7s.27,2.06,.82,2.7c.55,.65,1.33,.97,2.35,.97Z"></path>
    <path class="cls-7" d="M136.74,226.85c-.81,0-1.49-.16-2.06-.49-.57-.33-1-.82-1.3-1.49-.3-.66-.45-1.51-.45-2.54v-5.98h1.89v5.46c0,1.09,.19,1.93,.56,2.5,.37,.57,.98,.86,1.83,.86,.58,0,1.12-.14,1.62-.42,.5-.28,.84-.73,1.03-1.34l-.27,1.03v-8.08h1.89v10.29h-1.68l-.38-2.02,.5,.34c-.34,.64-.76,1.11-1.25,1.42-.49,.31-1.14,.47-1.94,.47Z"></path>
    <path class="cls-7" d="M146.97,226.85c-.91,0-1.66-.11-2.26-.33-.6-.22-1.02-.41-1.27-.58l.23-1.83c.22,.2,.62,.42,1.19,.67,.57,.25,1.24,.38,2.03,.38,.66,0,1.17-.11,1.53-.34,.35-.22,.53-.54,.53-.94,0-.36-.11-.65-.34-.87-.23-.22-.5-.4-.82-.52s-.62-.23-.9-.31c-.47-.13-.95-.29-1.45-.48s-.92-.48-1.27-.87c-.34-.38-.51-.92-.51-1.62,0-.52,.13-1.02,.38-1.5,.25-.47,.66-.86,1.23-1.15,.57-.29,1.32-.44,2.26-.44,.69,0,1.24,.07,1.67,.22,.43,.14,.8,.3,1.12,.46l-.23,1.72c-.3-.25-.65-.47-1.05-.64-.4-.17-.89-.26-1.47-.26s-1.07,.11-1.44,.33c-.37,.22-.56,.57-.56,1.06s.2,.83,.59,1.03c.4,.2,1,.43,1.8,.67,.25,.07,.54,.17,.88,.3,.33,.13,.66,.31,.97,.54s.58,.52,.78,.88c.21,.36,.31,.81,.31,1.35,0,.46-.11,.92-.33,1.39-.22,.47-.61,.87-1.18,1.19s-1.38,.48-2.43,.48Z"></path>
    <path class="cls-7" d="M155.14,226.85c-.64,0-1.19-.13-1.67-.39-.48-.26-.85-.61-1.11-1.06-.26-.45-.39-.96-.39-1.53s.13-1.08,.38-1.5,.6-.76,1.03-1.04c.43-.28,.91-.5,1.44-.66,.53-.16,1.08-.28,1.65-.36,.57-.07,1.12-.11,1.64-.12,0-.98-.19-1.62-.58-1.92-.39-.3-.94-.45-1.67-.45-.39,0-.8,.06-1.23,.18-.44,.12-.93,.37-1.48,.75l-.27-1.53c.41-.31,.93-.57,1.54-.77,.62-.2,1.26-.3,1.94-.3,.87,0,1.57,.15,2.1,.46,.53,.3,.92,.82,1.17,1.54,.24,.72,.37,1.7,.37,2.94v2.1c0,.49,.02,.89,.07,1.21,.05,.32,.15,.56,.31,.71,.16,.16,.43,.24,.79,.24h.19l-.29,1.51h-.15c-.61,0-1.08-.06-1.41-.18-.33-.12-.59-.29-.76-.51s-.33-.5-.47-.82c-.39,.45-.84,.81-1.37,1.09s-1.12,.42-1.79,.42Zm.36-1.51c.5,0,.99-.13,1.46-.38,.47-.25,.86-.59,1.16-1.01v-2.46c-1,.04-1.81,.13-2.43,.29-.62,.16-1.07,.4-1.36,.72-.29,.32-.43,.74-.43,1.25,0,.55,.15,.95,.45,1.2,.3,.25,.68,.37,1.15,.37Z"></path>
    <path class="cls-7" d="M162.82,226.64v-10.29h1.47l.38,1.97-.73-.31c.69-.77,1.37-1.27,2.03-1.51,.66-.24,1.31-.36,1.94-.36,1.51,0,2.58,.43,3.23,1.3,.65,.87,.97,2.04,.97,3.53v5.67h-1.89v-5.67c0-1.09-.2-1.89-.61-2.39-.41-.5-1.1-.76-2.08-.76-.69,0-1.33,.15-1.91,.46-.58,.3-.96,.79-1.14,1.45l.23-1.15v8.06h-1.89Z"></path>
    <path class="cls-7" d="M178.63,226.85c-.88,0-1.67-.24-2.37-.71s-1.27-1.12-1.69-1.92c-.42-.81-.62-1.7-.62-2.7s.19-1.83,.57-2.65,.92-1.48,1.62-1.98c.7-.5,1.53-.75,2.49-.75,.69,0,1.35,.15,1.99,.45s1.16,.79,1.56,1.49l-.4,.27v-7.46h1.89v15.75h-1.68l-.36-2.18,.48,.34c-.3,.68-.77,1.19-1.42,1.54-.64,.35-1.33,.52-2.07,.52Zm.34-1.68c.48,0,.95-.12,1.41-.37,.47-.25,.85-.64,1.16-1.17s.46-1.24,.46-2.12c0-.81-.15-1.49-.46-2.04-.3-.55-.69-.96-1.16-1.24-.47-.28-.94-.41-1.41-.41-.64,0-1.2,.16-1.66,.48-.46,.32-.82,.76-1.06,1.32-.25,.56-.37,1.19-.37,1.9,0,.67,.12,1.27,.37,1.83,.24,.55,.6,1,1.06,1.33,.46,.33,1.01,.5,1.66,.5Z"></path>
    <path class="cls-7" d="M189.13,226.85c-.91,0-1.66-.11-2.26-.33-.6-.22-1.02-.41-1.27-.58l.23-1.83c.22,.2,.62,.42,1.19,.67,.57,.25,1.24,.38,2.03,.38,.66,0,1.17-.11,1.53-.34,.35-.22,.53-.54,.53-.94,0-.36-.11-.65-.34-.87-.23-.22-.5-.4-.82-.52s-.62-.23-.9-.31c-.47-.13-.95-.29-1.45-.48s-.92-.48-1.27-.87c-.34-.38-.51-.92-.51-1.62,0-.52,.13-1.02,.38-1.5,.25-.47,.66-.86,1.23-1.15,.57-.29,1.32-.44,2.26-.44,.69,0,1.24,.07,1.67,.22,.43,.14,.8,.3,1.12,.46l-.23,1.72c-.3-.25-.65-.47-1.05-.64-.4-.17-.89-.26-1.47-.26s-1.07,.11-1.44,.33c-.37,.22-.56,.57-.56,1.06s.2,.83,.59,1.03c.4,.2,1,.43,1.8,.67,.25,.07,.54,.17,.88,.3,.33,.13,.66,.31,.97,.54s.58,.52,.78,.88c.21,.36,.31,.81,.31,1.35,0,.46-.11,.92-.33,1.39-.22,.47-.61,.87-1.18,1.19s-1.38,.48-2.43,.48Z"></path>
    <path class="cls-7" d="M204.13,226.85c-1.08,0-2-.24-2.76-.72-.76-.48-1.34-1.12-1.74-1.93-.4-.81-.6-1.71-.6-2.7s.2-1.9,.6-2.7c.4-.81,.98-1.45,1.74-1.93,.76-.48,1.68-.72,2.76-.72s1.99,.24,2.75,.72c.76,.48,1.35,1.12,1.75,1.93,.4,.81,.6,1.71,.6,2.7s-.2,1.9-.6,2.7c-.4,.81-.99,1.45-1.75,1.93-.76,.48-1.68,.72-2.75,.72Zm0-1.68c1.02,0,1.81-.32,2.35-.97,.55-.65,.82-1.55,.82-2.7s-.27-2.06-.82-2.7-1.33-.97-2.35-.97-1.8,.32-2.35,.97c-.55,.65-.82,1.55-.82,2.7s.27,2.06,.82,2.7c.55,.65,1.33,.97,2.35,.97Z"></path>
    <path class="cls-7" d="M211.79,226.64v-8.82h-1.79l.25-1.47h1.53v-2.44c0-.92,.25-1.65,.74-2.2,.49-.55,1.21-.82,2.16-.82,.35,0,.66,.02,.92,.07,.26,.05,.5,.12,.72,.2l-.29,1.6c-.17-.06-.33-.11-.49-.14-.16-.03-.35-.05-.56-.05-.41,0-.72,.11-.96,.34-.23,.23-.35,.6-.35,1.13v2.31h2.77v1.47h-2.77v8.82h-1.89Z"></path>
    <path class="cls-7" d="M68.91,262.85c-.88,0-1.67-.24-2.37-.71s-1.27-1.12-1.69-1.92c-.42-.81-.62-1.7-.62-2.7s.19-1.83,.57-2.65,.92-1.48,1.62-1.98c.7-.5,1.53-.75,2.49-.75,.69,0,1.35,.15,1.99,.45s1.16,.79,1.56,1.49l-.4,.27v-7.46h1.89v15.75h-1.68l-.36-2.18,.48,.34c-.3,.68-.77,1.19-1.42,1.54-.64,.35-1.33,.52-2.07,.52Zm.34-1.68c.48,0,.95-.12,1.41-.37,.47-.25,.85-.64,1.16-1.17s.46-1.24,.46-2.12c0-.81-.15-1.49-.46-2.04-.3-.55-.69-.96-1.16-1.24-.47-.28-.94-.41-1.41-.41-.64,0-1.2,.16-1.66,.48-.46,.32-.82,.76-1.06,1.32-.25,.56-.37,1.19-.37,1.9,0,.67,.12,1.27,.37,1.83,.24,.55,.6,1,1.06,1.33,.46,.33,1.01,.5,1.66,.5Z"></path>
    <path class="cls-7" d="M81.43,262.85c-1.21,0-2.23-.25-3.06-.75-.83-.5-1.45-1.16-1.87-1.98-.42-.82-.64-1.73-.64-2.71s.2-1.84,.59-2.64c.4-.8,.97-1.44,1.72-1.92s1.66-.72,2.72-.72c.85,0,1.62,.17,2.28,.51s1.19,.83,1.58,1.48c.38,.65,.57,1.43,.57,2.36,0,.15,0,.31-.02,.48-.01,.17-.03,.35-.07,.53h-7.46c.09,.95,.32,1.69,.68,2.23,.36,.53,.82,.91,1.38,1.12,.55,.22,1.15,.33,1.81,.33,.48,0,.97-.05,1.49-.15,.52-.1,1.01-.25,1.47-.46l.25,1.49c-.4,.17-.89,.35-1.46,.53-.57,.18-1.24,.27-1.98,.27Zm-3.46-6.66h5.42c0-.48-.09-.9-.27-1.26s-.46-.63-.83-.82-.84-.29-1.42-.29c-.84,0-1.49,.21-1.94,.62-.45,.42-.77,1-.96,1.75Z"></path>
    <path class="cls-7" d="M91.97,262.85c-1.16,0-2.14-.24-2.92-.71-.79-.47-1.38-1.11-1.78-1.91-.4-.8-.6-1.69-.6-2.67s.19-1.94,.58-2.76c.39-.82,.98-1.47,1.79-1.94,.81-.48,1.83-.71,3.09-.71,.54,0,1.05,.05,1.53,.16,.48,.11,.91,.26,1.29,.45l-.29,1.66c-.38-.18-.79-.33-1.22-.43s-.88-.16-1.34-.16c-1.13,0-2,.32-2.59,.97-.6,.64-.89,1.54-.89,2.69s.28,2.02,.85,2.7c.57,.68,1.43,1.02,2.59,1.02,.48,0,.93-.06,1.37-.17,.44-.11,.86-.27,1.25-.46l.25,1.51c-.28,.2-.69,.37-1.23,.54-.54,.16-1.11,.24-1.71,.24Z"></path>
    <path class="cls-7" d="M101.57,262.85c-1.21,0-2.23-.25-3.06-.75-.83-.5-1.45-1.16-1.87-1.98-.42-.82-.64-1.73-.64-2.71s.2-1.84,.59-2.64c.4-.8,.97-1.44,1.72-1.92s1.66-.72,2.72-.72c.85,0,1.62,.17,2.28,.51s1.19,.83,1.58,1.48c.38,.65,.57,1.43,.57,2.36,0,.15,0,.31-.02,.48-.01,.17-.03,.35-.07,.53h-7.46c.09,.95,.32,1.69,.68,2.23,.36,.53,.82,.91,1.38,1.12,.55,.22,1.15,.33,1.81,.33,.48,0,.97-.05,1.49-.15,.52-.1,1.01-.25,1.47-.46l.25,1.49c-.4,.17-.89,.35-1.46,.53-.57,.18-1.24,.27-1.98,.27Zm-3.46-6.66h5.42c0-.48-.09-.9-.27-1.26s-.46-.63-.83-.82-.84-.29-1.42-.29c-.84,0-1.49,.21-1.94,.62-.45,.42-.77,1-.96,1.75Z"></path>
    <path class="cls-7" d="M107.38,262.64v-10.29h1.47l.38,1.97-.73-.31c.69-.77,1.37-1.27,2.03-1.51,.66-.24,1.31-.36,1.94-.36,1.51,0,2.58,.43,3.23,1.3,.65,.87,.97,2.04,.97,3.53v5.67h-1.89v-5.67c0-1.09-.2-1.89-.61-2.39-.41-.5-1.1-.76-2.08-.76-.69,0-1.33,.15-1.91,.46-.58,.3-.96,.79-1.14,1.45l.23-1.15v8.06h-1.89Z"></path>
    <path class="cls-7" d="M122.5,262.85c-.65,0-1.17-.12-1.56-.36-.39-.24-.68-.54-.86-.92-.18-.37-.27-.77-.27-1.18v-6.57h-1.76l.17-1.47h1.6v-2.54l1.89-.19v2.73h2.71v1.47h-2.71v5.42c0,.66,.04,1.13,.12,1.43s.27,.48,.57,.56,.8,.12,1.48,.12h.48l-.15,1.51h-1.7Z"></path>
    <path class="cls-7" d="M126.03,262.64v-10.29h1.55l.23,1.7c.52-.65,1.03-1.13,1.51-1.44s.99-.47,1.54-.47c.18,0,.34,.02,.48,.06l-.19,2.08c-.09-.02-.19-.04-.29-.05-.1-.01-.22-.02-.34-.02-.55,0-1.05,.12-1.51,.36-.46,.24-.78,.51-.97,.79v7.27h-2.02Z"></path>
    <path class="cls-7" d="M134.91,262.85c-.64,0-1.19-.13-1.67-.39-.48-.26-.85-.61-1.11-1.06-.26-.45-.39-.96-.39-1.53s.13-1.08,.38-1.5,.6-.76,1.03-1.04c.43-.28,.91-.5,1.44-.66,.53-.16,1.08-.28,1.65-.36,.57-.07,1.12-.11,1.64-.12,0-.98-.19-1.62-.58-1.92-.39-.3-.94-.45-1.67-.45-.39,0-.8,.06-1.23,.18-.44,.12-.93,.37-1.48,.75l-.27-1.53c.41-.31,.93-.57,1.54-.77,.62-.2,1.26-.3,1.94-.3,.87,0,1.57,.15,2.1,.46,.53,.3,.92,.82,1.17,1.54,.24,.72,.37,1.7,.37,2.94v2.1c0,.49,.02,.89,.07,1.21,.05,.32,.15,.56,.31,.71,.16,.16,.43,.24,.79,.24h.19l-.29,1.51h-.15c-.61,0-1.08-.06-1.41-.18-.33-.12-.59-.29-.76-.51s-.33-.5-.47-.82c-.39,.45-.84,.81-1.37,1.09s-1.12,.42-1.79,.42Zm.36-1.51c.5,0,.99-.13,1.46-.38,.47-.25,.86-.59,1.16-1.01v-2.46c-1,.04-1.81,.13-2.43,.29-.62,.16-1.07,.4-1.36,.72-.29,.32-.43,.74-.43,1.25,0,.55,.15,.95,.45,1.2,.3,.25,.68,.37,1.15,.37Z"></path>
    <path class="cls-7" d="M145.25,262.85c-.67,0-1.19-.12-1.58-.36-.39-.24-.67-.55-.83-.93s-.25-.77-.25-1.19v-13.48h1.89v12.39c0,.59,.04,1.03,.12,1.32,.08,.29,.23,.49,.47,.59,.23,.1,.59,.15,1.08,.15l-.27,1.51h-.61Z"></path>
    <path class="cls-7" d="M147.56,250.04v-2.1h1.89v2.1h-1.89Zm0,12.6v-10.29h1.89v10.29h-1.89Z"></path>
    <path class="cls-7" d="M151.19,262.64l6.36-9.58,.23,.95h-6.26v-1.66h8.57l-6.36,9.58-.23-.95h6.49v1.66h-8.8Z"></path>
    <path class="cls-7" d="M166.6,262.85c-1.21,0-2.23-.25-3.06-.75-.83-.5-1.45-1.16-1.87-1.98-.42-.82-.64-1.73-.64-2.71s.2-1.84,.59-2.64c.4-.8,.97-1.44,1.72-1.92s1.66-.72,2.72-.72c.85,0,1.62,.17,2.28,.51s1.19,.83,1.58,1.48c.38,.65,.57,1.43,.57,2.36,0,.15,0,.31-.02,.48-.01,.17-.03,.35-.07,.53h-7.46c.09,.95,.32,1.69,.68,2.23,.36,.53,.82,.91,1.38,1.12,.55,.22,1.15,.33,1.81,.33,.48,0,.97-.05,1.49-.15,.52-.1,1.01-.25,1.47-.46l.25,1.49c-.4,.17-.89,.35-1.46,.53-.57,.18-1.24,.27-1.98,.27Zm-3.46-6.66h5.42c0-.48-.09-.9-.27-1.26s-.46-.63-.83-.82-.84-.29-1.42-.29c-.84,0-1.49,.21-1.94,.62-.45,.42-.77,1-.96,1.75Z"></path>
    <path class="cls-7" d="M176.49,262.85c-.88,0-1.67-.24-2.37-.71s-1.27-1.12-1.69-1.92c-.42-.81-.62-1.7-.62-2.7s.19-1.83,.57-2.65,.92-1.48,1.62-1.98c.7-.5,1.53-.75,2.49-.75,.69,0,1.35,.15,1.99,.45s1.16,.79,1.56,1.49l-.4,.27v-7.46h1.89v15.75h-1.68l-.36-2.18,.48,.34c-.3,.68-.77,1.19-1.42,1.54-.64,.35-1.33,.52-2.07,.52Zm.34-1.68c.48,0,.95-.12,1.41-.37,.47-.25,.85-.64,1.16-1.17s.46-1.24,.46-2.12c0-.81-.15-1.49-.46-2.04-.3-.55-.69-.96-1.16-1.24-.47-.28-.94-.41-1.41-.41-.64,0-1.2,.16-1.66,.48-.46,.32-.82,.76-1.06,1.32-.25,.56-.37,1.19-.37,1.9,0,.67,.12,1.27,.37,1.83,.24,.55,.6,1,1.06,1.33,.46,.33,1.01,.5,1.66,.5Z"></path>
    <path class="cls-7" d="M191.19,262.85c-.64,0-1.19-.13-1.67-.39-.48-.26-.85-.61-1.11-1.06-.26-.45-.39-.96-.39-1.53s.13-1.08,.38-1.5,.6-.76,1.03-1.04c.43-.28,.91-.5,1.44-.66,.53-.16,1.08-.28,1.65-.36,.57-.07,1.12-.11,1.64-.12,0-.98-.19-1.62-.58-1.92-.39-.3-.94-.45-1.67-.45-.39,0-.8,.06-1.23,.18-.44,.12-.93,.37-1.48,.75l-.27-1.53c.41-.31,.93-.57,1.54-.77,.62-.2,1.26-.3,1.94-.3,.87,0,1.57,.15,2.1,.46,.53,.3,.92,.82,1.17,1.54,.24,.72,.37,1.7,.37,2.94v2.1c0,.49,.02,.89,.07,1.21,.05,.32,.15,.56,.31,.71,.16,.16,.43,.24,.79,.24h.19l-.29,1.51h-.15c-.61,0-1.08-.06-1.41-.18-.33-.12-.59-.29-.76-.51s-.33-.5-.47-.82c-.39,.45-.84,.81-1.37,1.09s-1.12,.42-1.79,.42Zm.36-1.51c.5,0,.99-.13,1.46-.38,.47-.25,.86-.59,1.16-1.01v-2.46c-1,.04-1.81,.13-2.43,.29-.62,.16-1.07,.4-1.36,.72-.29,.32-.43,.74-.43,1.25,0,.55,.15,.95,.45,1.2,.3,.25,.68,.37,1.15,.37Z"></path>
    <path class="cls-7" d="M198.88,267.72v-15.37h1.47l.34,2.35-.52-.38c.43-.67,.97-1.2,1.61-1.6,.64-.39,1.42-.59,2.34-.59s1.74,.24,2.42,.71c.67,.48,1.19,1.12,1.54,1.93,.36,.81,.54,1.71,.54,2.71s-.17,1.91-.5,2.71-.84,1.45-1.5,1.93-1.49,.71-2.49,.71c-.82,0-1.56-.17-2.22-.51-.66-.34-1.14-.85-1.43-1.53l.31-.38v7.29h-1.89Zm4.87-6.55c.92,0,1.63-.32,2.15-.97,.51-.65,.77-1.55,.77-2.7s-.26-2.06-.77-2.7-1.23-.97-2.15-.97c-.57,0-1.08,.13-1.55,.4-.47,.27-.84,.68-1.12,1.22-.28,.54-.42,1.23-.42,2.05s.14,1.56,.42,2.1c.28,.54,.65,.94,1.12,1.19,.47,.26,.98,.38,1.55,.38Z"></path>
    <path class="cls-7" d="M210.58,267.72v-15.37h1.47l.34,2.35-.52-.38c.43-.67,.97-1.2,1.61-1.6,.64-.39,1.42-.59,2.34-.59s1.74,.24,2.42,.71c.67,.48,1.19,1.12,1.54,1.93s.54,1.71,.54,2.71-.17,1.91-.5,2.71-.84,1.45-1.5,1.93-1.5,.71-2.49,.71c-.82,0-1.56-.17-2.22-.51-.66-.34-1.14-.85-1.43-1.53l.31-.38v7.29h-1.89Zm4.87-6.55c.92,0,1.63-.32,2.15-.97,.51-.65,.77-1.55,.77-2.7s-.26-2.06-.77-2.7-1.23-.97-2.15-.97c-.57,0-1.08,.13-1.55,.4s-.84,.68-1.12,1.22-.42,1.23-.42,2.05,.14,1.56,.42,2.1,.65,.94,1.12,1.19c.47,.26,.98,.38,1.55,.38Z"></path>
    <path class="cls-7" d="M224.92,262.85c-.67,0-1.19-.12-1.58-.36-.39-.24-.67-.55-.83-.93s-.25-.77-.25-1.19v-13.48h1.89v12.39c0,.59,.04,1.03,.12,1.32,.08,.29,.23,.49,.47,.59,.23,.1,.59,.15,1.08,.15l-.27,1.51h-.61Z"></path>
    <path class="cls-7" d="M227.23,250.04v-2.1h1.89v2.1h-1.89Zm0,12.6v-10.29h1.89v10.29h-1.89Z"></path>
    <path class="cls-7" d="M236.41,262.85c-1.16,0-2.14-.24-2.92-.71-.79-.47-1.38-1.11-1.79-1.91s-.6-1.69-.6-2.67,.19-1.94,.58-2.76c.39-.82,.99-1.47,1.79-1.94,.8-.48,1.83-.71,3.09-.71,.54,0,1.05,.05,1.53,.16,.48,.11,.91,.26,1.29,.45l-.29,1.66c-.38-.18-.79-.33-1.22-.43-.43-.1-.88-.16-1.34-.16-1.13,0-2,.32-2.59,.97s-.89,1.54-.89,2.69,.28,2.02,.85,2.7c.57,.68,1.43,1.02,2.59,1.02,.48,0,.93-.06,1.37-.17,.44-.11,.86-.27,1.25-.46l.25,1.51c-.28,.2-.69,.37-1.23,.54-.54,.16-1.11,.24-1.71,.24Z"></path>
    <path class="cls-7" d="M243.61,262.85c-.64,0-1.19-.13-1.67-.39-.48-.26-.85-.61-1.11-1.06-.26-.45-.39-.96-.39-1.53s.13-1.08,.38-1.5c.25-.42,.6-.76,1.03-1.04s.91-.5,1.44-.66c.53-.16,1.08-.28,1.65-.36,.57-.07,1.12-.11,1.64-.12,0-.98-.19-1.62-.58-1.92-.38-.3-.94-.45-1.67-.45-.38,0-.8,.06-1.23,.18-.44,.12-.93,.37-1.47,.75l-.27-1.53c.41-.31,.93-.57,1.54-.77,.62-.2,1.26-.3,1.94-.3,.87,0,1.57,.15,2.1,.46,.53,.3,.92,.82,1.17,1.54,.25,.72,.37,1.7,.37,2.94v2.1c0,.49,.02,.89,.07,1.21,.05,.32,.15,.56,.32,.71,.16,.16,.43,.24,.79,.24h.19l-.29,1.51h-.15c-.61,0-1.08-.06-1.41-.18-.33-.12-.59-.29-.76-.51-.18-.22-.33-.5-.47-.82-.38,.45-.84,.81-1.37,1.09s-1.12,.42-1.79,.42Zm.36-1.51c.5,0,.99-.13,1.46-.38s.86-.59,1.16-1.01v-2.46c-1,.04-1.81,.13-2.43,.29-.62,.16-1.07,.4-1.36,.72s-.43,.74-.43,1.25c0,.55,.15,.95,.45,1.2,.3,.25,.68,.37,1.15,.37Z"></path>
    <path class="cls-7" d="M254.63,262.85c-.65,0-1.17-.12-1.56-.36-.39-.24-.68-.54-.86-.92-.18-.37-.27-.77-.27-1.18v-6.57h-1.76l.17-1.47h1.6v-2.54l1.89-.19v2.73h2.71v1.47h-2.71v5.42c0,.66,.04,1.13,.12,1.43s.27,.48,.57,.56,.8,.12,1.48,.12h.48l-.15,1.51h-1.7Z"></path>
    <path class="cls-7" d="M258.16,250.04v-2.1h1.89v2.1h-1.89Zm0,12.6v-10.29h1.89v10.29h-1.89Z"></path>
    <path class="cls-7" d="M267.11,262.85c-1.08,0-2-.24-2.76-.72s-1.34-1.12-1.74-1.93c-.4-.81-.6-1.71-.6-2.7s.2-1.9,.6-2.7,.98-1.45,1.74-1.93,1.68-.72,2.76-.72,1.99,.24,2.75,.72c.76,.48,1.35,1.12,1.75,1.93s.6,1.71,.6,2.7-.2,1.9-.6,2.7c-.4,.81-.99,1.45-1.75,1.93-.76,.48-1.68,.72-2.75,.72Zm0-1.68c1.02,0,1.81-.32,2.35-.97,.55-.65,.82-1.55,.82-2.7s-.27-2.06-.82-2.7-1.33-.97-2.35-.97-1.8,.32-2.35,.97c-.55,.65-.83,1.55-.83,2.7s.28,2.06,.83,2.7c.55,.65,1.33,.97,2.35,.97Z"></path>
    <path class="cls-7" d="M274.16,262.64v-10.29h1.47l.38,1.97-.74-.31c.69-.77,1.37-1.27,2.03-1.51,.66-.24,1.31-.36,1.94-.36,1.5,0,2.58,.43,3.23,1.3,.65,.87,.97,2.04,.97,3.53v5.67h-1.89v-5.67c0-1.09-.2-1.89-.61-2.39-.41-.5-1.1-.76-2.08-.76-.69,0-1.33,.15-1.91,.46-.58,.3-.96,.79-1.14,1.45l.23-1.15v8.06h-1.89Z"></path>
    <path class="cls-7" d="M288.82,262.85c-.91,0-1.66-.11-2.26-.33-.6-.22-1.02-.41-1.27-.58l.23-1.83c.22,.2,.62,.42,1.19,.67,.57,.25,1.24,.38,2.03,.38,.67,0,1.17-.11,1.53-.34,.35-.22,.53-.54,.53-.94,0-.36-.11-.65-.34-.87-.23-.22-.5-.4-.82-.52s-.62-.23-.9-.31c-.47-.13-.95-.29-1.45-.48-.5-.19-.92-.48-1.27-.87s-.51-.92-.51-1.62c0-.52,.13-1.02,.38-1.5s.66-.86,1.23-1.15c.57-.29,1.32-.44,2.26-.44,.69,0,1.24,.07,1.67,.22s.8,.3,1.12,.46l-.23,1.72c-.3-.25-.65-.47-1.05-.64-.4-.17-.89-.26-1.47-.26s-1.07,.11-1.44,.33-.56,.57-.56,1.06,.2,.83,.59,1.03c.39,.2,1,.43,1.8,.67,.25,.07,.54,.17,.88,.3,.33,.13,.66,.31,.97,.54,.31,.22,.58,.52,.78,.88,.21,.36,.31,.81,.31,1.35,0,.46-.11,.92-.33,1.39-.22,.47-.61,.87-1.18,1.19-.57,.32-1.38,.48-2.43,.48Z"></path>
    <path class="cls-7" d="M294.36,262.64v-2.23h2.27v2.23h-2.27Z"></path>
  </g>
  <g>
    <circle class="cls-4" cx="202.5" cy="393" r="32.5"></circle>
    <g id="Layer_1">
      <g id="_1421394342400" data-name=" 1421394342400">
        <g>
          <polygon class="cls-12" points="202.5 368 202.16 369.14 202.16 402.2 202.5 402.54 217.84 393.46 202.5 368"></polygon>
          <polygon class="cls-8" points="202.5 368 187.15 393.46 202.5 402.54 202.5 386.49 202.5 368"></polygon>
          <polygon class="cls-11" points="202.5 405.44 202.31 405.67 202.31 417.45 202.5 418 217.85 396.37 202.5 405.44"></polygon>
          <polygon class="cls-8" points="202.5 418 202.5 405.44 187.15 396.37 202.5 418"></polygon>
          <polygon class="cls-9" points="202.5 402.54 217.84 393.46 202.5 386.49 202.5 402.54"></polygon>
          <polygon class="cls-10" points="187.15 393.46 202.5 402.54 202.5 386.49 187.15 393.46"></polygon>
        </g>
      </g>
    </g>
  </g>
</svg>
