<?xml version="1.0" encoding="UTF-8"?>
<svg xmlns="http://www.w3.org/2000/svg" id="_图层_1" data-name="图层 1" viewBox="0 0 270 107">
  <defs>
    <style>
      .cls-1, .cls-2 {
        fill: #fff;
      }

      .cls-2 {
        fill-rule: evenodd;
      }
    </style>
  </defs>
  <path class="cls-2" d="M20.89,48.79H90.1l-4.93-5.28-14.1-15.09,6.23-6.66,22.79,24.38c2.96-6.6,1.9-14.82-3.19-20.27l-11.72-12.54-14.1,15.09-6.23-6.66L85.16,0l17.95,19.2c8.67,9.28,9.72,23.75,3.15,34.29,6.57,10.54,5.52,25.01-3.15,34.29l-17.95,19.2c-11.97-12.8-8.36-8.95-20.33-21.75l6.23-6.66,14.1,15.09,11.72-12.54c5.09-5.45,6.15-13.67,3.19-20.27l-22.79,24.38-6.23-6.66,14.1-15.09,4.93-5.28H20.89l4.93,5.28,14.11,15.09-6.23,6.66L10.91,60.86c-2.97,6.6-1.9,14.82,3.19,20.27l11.72,12.54,14.11-15.09,6.23,6.66-20.33,21.75L7.88,87.79C-.8,78.51-1.85,64.04,4.73,53.5-1.85,42.96-.8,28.49,7.88,19.21L25.83,0c9.89,10.58,10.44,11.17,20.33,21.75l-6.23,6.66-14.11-15.09-11.72,12.54c-5.09,5.45-6.15,13.67-3.19,20.27l22.79-24.38,6.23,6.66-14.11,15.09-4.93,5.28Z"></path>
  <g>
    <path class="cls-1" d="M156.84,98.92c-4.41,0-8.29-.45-11.65-1.34-3.36-.9-5.98-2.28-7.84-4.14-1.87-1.87-2.8-4.29-2.8-7.28,0-2.02,.43-3.83,1.29-5.43,.86-1.61,2.03-3.01,3.53-4.2,1.49-1.19,3.1-2.2,4.82-3.02-2.46-.67-4.35-1.75-5.66-3.25-1.31-1.49-1.96-3.28-1.96-5.38,0-2.54,.63-4.71,1.9-6.5,1.27-1.79,3.02-3.7,5.26-5.71-2.32-1.87-4.05-4.2-5.21-7-1.16-2.8-1.74-6.48-1.74-11.03,0-4.93,.8-9.09,2.41-12.49,1.61-3.4,3.96-5.95,7.06-7.67,3.1-1.72,6.89-2.58,11.37-2.58,3.43,0,6.31,.5,8.62,1.51,2.31,1.01,4.22,2.52,5.71,4.54,.6-.9,1.64-2.02,3.14-3.36,1.49-1.34,3.21-2.46,5.15-3.36l2.02-.9,3.7,8.18c-.82,.22-1.92,.6-3.3,1.12-1.38,.52-2.74,1.08-4.09,1.68-1.34,.6-2.39,1.12-3.14,1.57,.67,1.49,1.23,3.36,1.68,5.6,.45,2.24,.67,4.37,.67,6.39,0,4.56-.71,8.51-2.13,11.87-1.42,3.36-3.6,5.96-6.55,7.78-2.95,1.83-6.78,2.75-11.48,2.75-1.57,0-3.1-.13-4.59-.39-1.49-.26-2.88-.58-4.14-.95-.45,.67-.88,1.38-1.29,2.13-.41,.75-.62,1.53-.62,2.35s.45,1.49,1.34,2.02c.9,.52,2.39,.9,4.48,1.12l13.67,1.34c5.3,.52,9.22,2.18,11.76,4.98,2.54,2.8,3.81,6.59,3.81,11.37,0,3.88-.88,7.13-2.63,9.75-1.76,2.61-4.48,4.59-8.18,5.94s-8.5,2.02-14.39,2.02Zm1.68-11.42c4.18,0,7.32-.41,9.41-1.23,2.09-.82,3.14-2.32,3.14-4.48,0-1.2-.26-2.17-.78-2.91-.52-.75-1.46-1.36-2.8-1.85-1.34-.48-3.25-.84-5.71-1.06l-11.09-1.01c-.82,.67-1.55,1.36-2.18,2.07-.64,.71-1.14,1.47-1.51,2.3-.38,.82-.56,1.68-.56,2.58,0,1.87,.9,3.26,2.69,4.2,1.79,.93,4.93,1.4,9.41,1.4Zm-.9-39.99c1.34,0,2.42-.24,3.25-.73,.82-.48,1.46-1.27,1.9-2.35,.45-1.08,.75-2.45,.9-4.09,.15-1.64,.22-3.55,.22-5.71s-.07-4.07-.22-5.71c-.15-1.64-.43-3.02-.84-4.14-.41-1.12-1.03-1.94-1.85-2.46-.82-.52-1.94-.78-3.36-.78-1.34,0-2.45,.26-3.3,.78-.86,.52-1.49,1.33-1.91,2.41-.41,1.08-.71,2.45-.89,4.09-.19,1.64-.28,3.58-.28,5.82,0,2.09,.07,3.94,.22,5.55,.15,1.61,.45,2.95,.89,4.03,.45,1.08,1.1,1.91,1.96,2.46,.86,.56,1.96,.84,3.3,.84Z"></path>
    <path class="cls-1" d="M190.67,87.38V22.64h15.23v9.97c2.24-3.81,4.48-6.55,6.72-8.23,2.24-1.68,4.7-2.52,7.39-2.52,.45,0,.84,.02,1.18,.06,.34,.04,.73,.09,1.18,.17v15.79c-.9-.37-1.89-.69-2.97-.95-1.08-.26-2.18-.39-3.3-.39-2.02,0-3.85,.49-5.49,1.46-1.64,.97-3.21,2.58-4.71,4.82v44.58h-15.23Z"></path>
    <path class="cls-1" d="M249.47,88c-4.85,0-8.81-.92-11.87-2.75-3.06-1.83-5.32-4.52-6.78-8.06-1.46-3.55-2.18-7.82-2.18-12.83v-19.49c0-5.15,.73-9.48,2.18-12.99,1.46-3.51,3.73-6.16,6.83-7.95,3.1-1.79,7.04-2.69,11.82-2.69,5.15,0,9.17,.97,12.04,2.91,2.87,1.94,4.93,4.76,6.16,8.46,1.23,3.7,1.85,8.2,1.85,13.5v9.19h-25.76v12.77c0,2.09,.21,3.81,.62,5.15,.41,1.34,1.06,2.32,1.96,2.91,.9,.6,1.98,.9,3.25,.9,1.34,0,2.43-.32,3.25-.95,.82-.64,1.42-1.57,1.79-2.8,.37-1.23,.56-2.78,.56-4.65v-5.38h14.23v4.37c0,6.57-1.64,11.61-4.93,15.12-3.29,3.51-8.29,5.27-15.01,5.27Zm-5.71-40.21h11.42v-6.16c0-2.24-.19-4.05-.56-5.43-.38-1.38-.97-2.39-1.79-3.02-.82-.63-1.98-.95-3.47-.95-1.34,0-2.43,.34-3.25,1.01-.82,.67-1.42,1.79-1.79,3.36-.38,1.57-.56,3.81-.56,6.72v4.48Z"></path>
  </g>
</svg>
