<?xml version="1.0" encoding="UTF-8"?>
<svg xmlns="http://www.w3.org/2000/svg" id="_图层_1" data-name="图层 1" viewBox="0 0 405 525">
  <defs>
    <style>
      .cls-1, .cls-2 {
        opacity: .1;
      }

      .cls-3 {
        letter-spacing: 0em;
      }

      .cls-4 {
        fill: #0030d4;
      }

      .cls-5, .cls-2, .cls-6 {
        fill: #fff;
      }

      .cls-7 {
        fill: #8247e5;
      }

      .cls-8 {
        letter-spacing: -.03em;
      }

      .cls-9 {
        letter-spacing: 0em;
      }

      .cls-10 {
        fill: #fffefd;
        font-family: Cabin-Regular, Cabin;
        font-size: 21px;
        font-variation-settings: 'wght' 400, 'wdth' 100;
      }

      .cls-11 {
        letter-spacing: -.02em;
      }

      .cls-12 {
        letter-spacing: -.01em;
      }

      .cls-13 {
        letter-spacing: 0em;
      }

      .cls-14 {
        letter-spacing: 0em;
      }

      .cls-15 {
        letter-spacing: 0em;
      }

      .cls-16 {
        letter-spacing: 0em;
      }

      .cls-17 {
        letter-spacing: -.01em;
      }

      .cls-18 {
        letter-spacing: 0em;
      }

      .cls-2 {
        isolation: isolate;
      }

      .cls-19 {
        letter-spacing: 0em;
      }

      .cls-20 {
        letter-spacing: 0em;
      }

      .cls-21 {
        letter-spacing: 0em;
      }

      .cls-6 {
        stroke: #1e1e1e;
        stroke-miterlimit: 10;
        stroke-width: .75px;
      }

      .cls-22 {
        letter-spacing: -.01em;
      }

      .cls-23 {
        letter-spacing: 0em;
      }

      .cls-24 {
        letter-spacing: -.01em;
      }
    </style>
  </defs>
  <g>
    <rect class="cls-4" x="-3.51" y="-4.1" width="412.01" height="533.19"></rect>
    <path class="cls-2" d="M68.04,56.6c5.27-5.27,5.27-13.81,0-19.09l-9.54,9.54,9.54,9.54h0Z"></path>
    <path class="cls-2" d="M48.96,56.6l9.54-9.54-9.54-9.54c-5.27,5.27-5.27,13.81,0,19.09h0Z"></path>
    <path class="cls-2" d="M108.63,56.6c5.27-5.27,5.27-13.81,0-19.09l-9.54,9.54,9.54,9.54h0Z"></path>
    <path class="cls-2" d="M89.54,56.6l9.54-9.54-9.54-9.54c-5.27,5.27-5.27,13.81,0,19.09h0Z"></path>
    <path class="cls-2" d="M149.21,56.6c5.27-5.27,5.27-13.81,0-19.09l-9.54,9.54,9.54,9.54h0Z"></path>
    <path class="cls-2" d="M130.12,56.6l9.54-9.54-9.54-9.54c-5.27,5.27-5.27,13.81,0,19.09h0Z"></path>
    <path class="cls-2" d="M189.79,56.6c5.27-5.27,5.27-13.81,0-19.09l-9.54,9.54,9.54,9.54h0Z"></path>
    <path class="cls-2" d="M170.7,56.6l9.54-9.54-9.54-9.54c-5.27,5.27-5.27,13.81,0,19.09h0Z"></path>
    <path class="cls-2" d="M270.95,56.6c5.27-5.27,5.27-13.81,0-19.09l-9.54,9.54,9.54,9.54h0Z"></path>
    <path class="cls-2" d="M251.87,56.6l9.54-9.54-9.54-9.54c-5.27,5.27-5.27,13.81,0,19.09h0Z"></path>
    <path class="cls-2" d="M311.54,56.6c5.27-5.27,5.27-13.81,0-19.09l-9.54,9.54,9.54,9.54h0Z"></path>
    <path class="cls-2" d="M292.45,56.6l9.54-9.54-9.54-9.54c-5.27,5.27-5.27,13.81,0,19.09h0Z"></path>
    <path class="cls-2" d="M352.12,56.6c5.27-5.27,5.27-13.81,0-19.09l-9.54,9.54,9.54,9.54h0Z"></path>
    <path class="cls-2" d="M333.03,56.6l9.54-9.54-9.54-9.54c-5.27,5.27-5.27,13.81,0,19.09h0Z"></path>
    <path class="cls-2" d="M395.43,56.6c5.27-5.27,5.27-13.81,0-19.09l-9.54,9.54,9.54,9.54h0Z"></path>
    <path class="cls-2" d="M376.34,56.6l9.54-9.54-9.54-9.54c-5.27,5.27-5.27,13.81,0,19.09h0Z"></path>
    <path class="cls-2" d="M68.04,87.62c5.27-5.27,5.27-13.81,0-19.09l-9.54,9.54,9.54,9.54h0Z"></path>
    <path class="cls-2" d="M48.96,87.62l9.54-9.54-9.54-9.54c-5.27,5.27-5.27,13.81,0,19.09h0Z"></path>
    <path class="cls-2" d="M108.63,87.62c5.27-5.27,5.27-13.81,0-19.09l-9.54,9.54,9.54,9.54h0Z"></path>
    <path class="cls-2" d="M89.54,87.62l9.54-9.54-9.54-9.54c-5.27,5.27-5.27,13.81,0,19.09h0Z"></path>
    <path class="cls-2" d="M149.21,87.62c5.27-5.27,5.27-13.81,0-19.09l-9.54,9.54,9.54,9.54h0Z"></path>
    <path class="cls-2" d="M130.12,87.62l9.54-9.54-9.54-9.54c-5.27,5.27-5.27,13.81,0,19.09h0Z"></path>
    <path class="cls-2" d="M189.79,87.62c5.27-5.27,5.27-13.81,0-19.09l-9.54,9.54,9.54,9.54h0Z"></path>
    <path class="cls-2" d="M170.7,87.62l9.54-9.54-9.54-9.54c-5.27,5.27-5.27,13.81,0,19.09h0Z"></path>
    <path class="cls-2" d="M270.95,87.62c5.27-5.27,5.27-13.81,0-19.09l-9.54,9.54,9.54,9.54h0Z"></path>
    <path class="cls-2" d="M251.87,87.62l9.54-9.54-9.54-9.54c-5.27,5.27-5.27,13.81,0,19.09h0Z"></path>
    <path class="cls-2" d="M311.54,87.62c5.27-5.27,5.27-13.81,0-19.09l-9.54,9.54,9.54,9.54h0Z"></path>
    <path class="cls-2" d="M292.45,87.62l9.54-9.54-9.54-9.54c-5.27,5.27-5.27,13.81,0,19.09h0Z"></path>
    <path class="cls-2" d="M352.12,87.62c5.27-5.27,5.27-13.81,0-19.09l-9.54,9.54,9.54,9.54h0Z"></path>
    <path class="cls-2" d="M333.03,87.62l9.54-9.54-9.54-9.54c-5.27,5.27-5.27,13.81,0,19.09h0Z"></path>
    <path class="cls-2" d="M395.43,87.62c5.27-5.27,5.27-13.81,0-19.09l-9.54,9.54,9.54,9.54h0Z"></path>
    <path class="cls-2" d="M376.34,87.62l9.54-9.54-9.54-9.54c-5.27,5.27-5.27,13.81,0,19.09h0Z"></path>
    <path class="cls-2" d="M68.04,118.64c5.27-5.27,5.27-13.81,0-19.09l-9.54,9.54,9.54,9.54h0Z"></path>
    <path class="cls-2" d="M48.96,118.64l9.54-9.54-9.54-9.54c-5.27,5.27-5.27,13.81,0,19.09h0Z"></path>
    <path class="cls-2" d="M108.63,118.64c5.27-5.27,5.27-13.81,0-19.09l-9.54,9.54,9.54,9.54h0Z"></path>
    <path class="cls-2" d="M89.54,118.64l9.54-9.54-9.54-9.54c-5.27,5.27-5.27,13.81,0,19.09h0Z"></path>
    <path class="cls-2" d="M149.21,118.64c5.27-5.27,5.27-13.81,0-19.09l-9.54,9.54,9.54,9.54h0Z"></path>
    <path class="cls-2" d="M130.12,118.64l9.54-9.54-9.54-9.54c-5.27,5.27-5.27,13.81,0,19.09h0Z"></path>
    <path class="cls-2" d="M189.79,118.64c5.27-5.27,5.27-13.81,0-19.09l-9.54,9.54,9.54,9.54h0Z"></path>
    <path class="cls-2" d="M170.7,118.64l9.54-9.54-9.54-9.54c-5.27,5.27-5.27,13.81,0,19.09h0Z"></path>
    <path class="cls-2" d="M270.95,118.64c5.27-5.27,5.27-13.81,0-19.09l-9.54,9.54,9.54,9.54h0Z"></path>
    <path class="cls-2" d="M251.87,118.64l9.54-9.54-9.54-9.54c-5.27,5.27-5.27,13.81,0,19.09h0Z"></path>
    <path class="cls-2" d="M311.54,118.64c5.27-5.27,5.27-13.81,0-19.09l-9.54,9.54,9.54,9.54h0Z"></path>
    <path class="cls-2" d="M292.45,118.64l9.54-9.54-9.54-9.54c-5.27,5.27-5.27,13.81,0,19.09h0Z"></path>
    <path class="cls-2" d="M352.12,118.64c5.27-5.27,5.27-13.81,0-19.09l-9.54,9.54,9.54,9.54h0Z"></path>
    <path class="cls-2" d="M333.03,118.64l9.54-9.54-9.54-9.54c-5.27,5.27-5.27,13.81,0,19.09h0Z"></path>
    <path class="cls-2" d="M395.43,118.64c5.27-5.27,5.27-13.81,0-19.09l-9.54,9.54,9.54,9.54h0Z"></path>
    <path class="cls-2" d="M376.34,118.64l9.54-9.54-9.54-9.54c-5.27,5.27-5.27,13.81,0,19.09h0Z"></path>
    <path class="cls-2" d="M68.04,149.65c5.27-5.27,5.27-13.81,0-19.09l-9.54,9.54,9.54,9.54h0Z"></path>
    <path class="cls-2" d="M48.96,149.65l9.54-9.54-9.54-9.54c-5.27,5.27-5.27,13.81,0,19.09h0Z"></path>
    <path class="cls-2" d="M108.63,149.65c5.27-5.27,5.27-13.81,0-19.09l-9.54,9.54,9.54,9.54h0Z"></path>
    <path class="cls-2" d="M89.54,149.65l9.54-9.54-9.54-9.54c-5.27,5.27-5.27,13.81,0,19.09h0Z"></path>
    <path class="cls-2" d="M149.21,149.65c5.27-5.27,5.27-13.81,0-19.09l-9.54,9.54,9.54,9.54h0Z"></path>
    <path class="cls-2" d="M130.12,149.65l9.54-9.54-9.54-9.54c-5.27,5.27-5.27,13.81,0,19.09h0Z"></path>
    <path class="cls-2" d="M189.79,149.65c5.27-5.27,5.27-13.81,0-19.09l-9.54,9.54,9.54,9.54h0Z"></path>
    <path class="cls-2" d="M170.7,149.65l9.54-9.54-9.54-9.54c-5.27,5.27-5.27,13.81,0,19.09h0Z"></path>
    <path class="cls-2" d="M270.95,149.65c5.27-5.27,5.27-13.81,0-19.09l-9.54,9.54,9.54,9.54h0Z"></path>
    <path class="cls-2" d="M251.87,149.65l9.54-9.54-9.54-9.54c-5.27,5.27-5.27,13.81,0,19.09h0Z"></path>
    <path class="cls-2" d="M311.54,149.65c5.27-5.27,5.27-13.81,0-19.09l-9.54,9.54,9.54,9.54h0Z"></path>
    <path class="cls-2" d="M292.45,149.65l9.54-9.54-9.54-9.54c-5.27,5.27-5.27,13.81,0,19.09h0Z"></path>
    <path class="cls-2" d="M352.12,149.65c5.27-5.27,5.27-13.81,0-19.09l-9.54,9.54,9.54,9.54h0Z"></path>
    <path class="cls-2" d="M333.03,149.65l9.54-9.54-9.54-9.54c-5.27,5.27-5.27,13.81,0,19.09h0Z"></path>
    <path class="cls-2" d="M395.43,149.65c5.27-5.27,5.27-13.81,0-19.09l-9.54,9.54,9.54,9.54h0Z"></path>
    <path class="cls-2" d="M376.34,149.65l9.54-9.54-9.54-9.54c-5.27,5.27-5.27,13.81,0,19.09h0Z"></path>
    <path class="cls-2" d="M68.04,180.68c5.27-5.27,5.27-13.81,0-19.09l-9.54,9.54,9.54,9.54h0Z"></path>
    <path class="cls-2" d="M48.96,180.68l9.54-9.54-9.54-9.54c-5.27,5.27-5.27,13.81,0,19.09h0Z"></path>
    <path class="cls-2" d="M108.63,180.68c5.27-5.27,5.27-13.81,0-19.09l-9.54,9.54,9.54,9.54h0Z"></path>
    <path class="cls-2" d="M89.54,180.68l9.54-9.54-9.54-9.54c-5.27,5.27-5.27,13.81,0,19.09h0Z"></path>
    <path class="cls-2" d="M149.21,180.68c5.27-5.27,5.27-13.81,0-19.09l-9.54,9.54,9.54,9.54h0Z"></path>
    <path class="cls-2" d="M130.12,180.68l9.54-9.54-9.54-9.54c-5.27,5.27-5.27,13.81,0,19.09h0Z"></path>
    <path class="cls-2" d="M189.79,180.68c5.27-5.27,5.27-13.81,0-19.09l-9.54,9.54,9.54,9.54h0Z"></path>
    <path class="cls-2" d="M170.7,180.68l9.54-9.54-9.54-9.54c-5.27,5.27-5.27,13.81,0,19.09h0Z"></path>
    <path class="cls-2" d="M270.95,180.68c5.27-5.27,5.27-13.81,0-19.09l-9.54,9.54,9.54,9.54h0Z"></path>
    <path class="cls-2" d="M251.87,180.68l9.54-9.54-9.54-9.54c-5.27,5.27-5.27,13.81,0,19.09h0Z"></path>
    <path class="cls-2" d="M311.54,180.68c5.27-5.27,5.27-13.81,0-19.09l-9.54,9.54,9.54,9.54h0Z"></path>
    <path class="cls-2" d="M292.45,180.68l9.54-9.54-9.54-9.54c-5.27,5.27-5.27,13.81,0,19.09h0Z"></path>
    <path class="cls-2" d="M352.12,180.68c5.27-5.27,5.27-13.81,0-19.09l-9.54,9.54,9.54,9.54h0Z"></path>
    <path class="cls-2" d="M333.03,180.68l9.54-9.54-9.54-9.54c-5.27,5.27-5.27,13.81,0,19.09h0Z"></path>
    <path class="cls-2" d="M395.43,180.68c5.27-5.27,5.27-13.81,0-19.09l-9.54,9.54,9.54,9.54h0Z"></path>
    <path class="cls-2" d="M376.34,180.68l9.54-9.54-9.54-9.54c-5.27,5.27-5.27,13.81,0,19.09h0Z"></path>
    <path class="cls-2" d="M68.04,211.69c5.27-5.27,5.27-13.81,0-19.09l-9.54,9.54,9.54,9.54h0Z"></path>
    <path class="cls-2" d="M48.96,211.69l9.54-9.54-9.54-9.54c-5.27,5.27-5.27,13.81,0,19.09h0Z"></path>
    <path class="cls-2" d="M108.63,211.69c5.27-5.27,5.27-13.81,0-19.09l-9.54,9.54,9.54,9.54h0Z"></path>
    <path class="cls-2" d="M89.54,211.69l9.54-9.54-9.54-9.54c-5.27,5.27-5.27,13.81,0,19.09h0Z"></path>
    <path class="cls-2" d="M149.21,211.69c5.27-5.27,5.27-13.81,0-19.09l-9.54,9.54,9.54,9.54h0Z"></path>
    <path class="cls-2" d="M130.12,211.69l9.54-9.54-9.54-9.54c-5.27,5.27-5.27,13.81,0,19.09h0Z"></path>
    <path class="cls-2" d="M189.79,211.69c5.27-5.27,5.27-13.81,0-19.09l-9.54,9.54,9.54,9.54h0Z"></path>
    <path class="cls-2" d="M170.7,211.69l9.54-9.54-9.54-9.54c-5.27,5.27-5.27,13.81,0,19.09h0Z"></path>
    <path class="cls-2" d="M270.95,211.69c5.27-5.27,5.27-13.81,0-19.09l-9.54,9.54,9.54,9.54h0Z"></path>
    <path class="cls-2" d="M251.87,211.69l9.54-9.54-9.54-9.54c-5.27,5.27-5.27,13.81,0,19.09h0Z"></path>
    <path class="cls-2" d="M311.54,211.69c5.27-5.27,5.27-13.81,0-19.09l-9.54,9.54,9.54,9.54h0Z"></path>
    <path class="cls-2" d="M292.45,211.69l9.54-9.54-9.54-9.54c-5.27,5.27-5.27,13.81,0,19.09h0Z"></path>
    <path class="cls-2" d="M352.12,211.69c5.27-5.27,5.27-13.81,0-19.09l-9.54,9.54,9.54,9.54h0Z"></path>
    <path class="cls-2" d="M333.03,211.69l9.54-9.54-9.54-9.54c-5.27,5.27-5.27,13.81,0,19.09h0Z"></path>
    <path class="cls-2" d="M395.43,211.69c5.27-5.27,5.27-13.81,0-19.09l-9.54,9.54,9.54,9.54h0Z"></path>
    <path class="cls-2" d="M376.34,211.69l9.54-9.54-9.54-9.54c-5.27,5.27-5.27,13.81,0,19.09h0Z"></path>
    <path class="cls-2" d="M68.04,242.71c5.27-5.27,5.27-13.81,0-19.09l-9.54,9.54,9.54,9.54h0Z"></path>
    <path class="cls-2" d="M48.96,242.71l9.54-9.54-9.54-9.54c-5.27,5.27-5.27,13.81,0,19.09h0Z"></path>
    <path class="cls-2" d="M108.63,242.71c5.27-5.27,5.27-13.81,0-19.09l-9.54,9.54,9.54,9.54h0Z"></path>
    <path class="cls-2" d="M89.54,242.71l9.54-9.54-9.54-9.54c-5.27,5.27-5.27,13.81,0,19.09h0Z"></path>
    <path class="cls-2" d="M149.21,242.71c5.27-5.27,5.27-13.81,0-19.09l-9.54,9.54,9.54,9.54h0Z"></path>
    <path class="cls-2" d="M130.12,242.71l9.54-9.54-9.54-9.54c-5.27,5.27-5.27,13.81,0,19.09h0Z"></path>
    <path class="cls-2" d="M189.79,242.71c5.27-5.27,5.27-13.81,0-19.09l-9.54,9.54,9.54,9.54h0Z"></path>
    <path class="cls-2" d="M170.7,242.71l9.54-9.54-9.54-9.54c-5.27,5.27-5.27,13.81,0,19.09h0Z"></path>
    <path class="cls-2" d="M270.95,242.71c5.27-5.27,5.27-13.81,0-19.09l-9.54,9.54,9.54,9.54h0Z"></path>
    <path class="cls-2" d="M251.87,242.71l9.54-9.54-9.54-9.54c-5.27,5.27-5.27,13.81,0,19.09h0Z"></path>
    <path class="cls-2" d="M311.54,242.71c5.27-5.27,5.27-13.81,0-19.09l-9.54,9.54,9.54,9.54h0Z"></path>
    <path class="cls-2" d="M292.45,242.71l9.54-9.54-9.54-9.54c-5.27,5.27-5.27,13.81,0,19.09h0Z"></path>
    <path class="cls-2" d="M352.12,242.71c5.27-5.27,5.27-13.81,0-19.09l-9.54,9.54,9.54,9.54h0Z"></path>
    <path class="cls-2" d="M333.03,242.71l9.54-9.54-9.54-9.54c-5.27,5.27-5.27,13.81,0,19.09h0Z"></path>
    <path class="cls-2" d="M395.43,242.71c5.27-5.27,5.27-13.81,0-19.09l-9.54,9.54,9.54,9.54h0Z"></path>
    <path class="cls-2" d="M376.34,242.71l9.54-9.54-9.54-9.54c-5.27,5.27-5.27,13.81,0,19.09h0Z"></path>
    <path class="cls-2" d="M68.04,273.73c5.27-5.27,5.27-13.81,0-19.09l-9.54,9.54,9.54,9.54h0Z"></path>
    <path class="cls-2" d="M48.96,273.73l9.54-9.54-9.54-9.54c-5.27,5.27-5.27,13.81,0,19.09h0Z"></path>
    <path class="cls-2" d="M108.63,273.73c5.27-5.27,5.27-13.81,0-19.09l-9.54,9.54,9.54,9.54h0Z"></path>
    <path class="cls-2" d="M89.54,273.73l9.54-9.54-9.54-9.54c-5.27,5.27-5.27,13.81,0,19.09h0Z"></path>
    <path class="cls-2" d="M149.21,273.73c5.27-5.27,5.27-13.81,0-19.09l-9.54,9.54,9.54,9.54h0Z"></path>
    <path class="cls-2" d="M130.12,273.73l9.54-9.54-9.54-9.54c-5.27,5.27-5.27,13.81,0,19.09h0Z"></path>
    <path class="cls-2" d="M189.79,273.73c5.27-5.27,5.27-13.81,0-19.09l-9.54,9.54,9.54,9.54h0Z"></path>
    <path class="cls-2" d="M170.7,273.73l9.54-9.54-9.54-9.54c-5.27,5.27-5.27,13.81,0,19.09h0Z"></path>
    <path class="cls-2" d="M270.95,273.73c5.27-5.27,5.27-13.81,0-19.09l-9.54,9.54,9.54,9.54h0Z"></path>
    <path class="cls-2" d="M251.87,273.73l9.54-9.54-9.54-9.54c-5.27,5.27-5.27,13.81,0,19.09h0Z"></path>
    <path class="cls-2" d="M311.54,273.73c5.27-5.27,5.27-13.81,0-19.09l-9.54,9.54,9.54,9.54h0Z"></path>
    <path class="cls-2" d="M292.45,273.73l9.54-9.54-9.54-9.54c-5.27,5.27-5.27,13.81,0,19.09h0Z"></path>
    <path class="cls-2" d="M352.12,273.73c5.27-5.27,5.27-13.81,0-19.09l-9.54,9.54,9.54,9.54h0Z"></path>
    <path class="cls-2" d="M333.03,273.73l9.54-9.54-9.54-9.54c-5.27,5.27-5.27,13.81,0,19.09h0Z"></path>
    <path class="cls-2" d="M395.43,273.73c5.27-5.27,5.27-13.81,0-19.09l-9.54,9.54,9.54,9.54h0Z"></path>
    <path class="cls-2" d="M376.34,273.73l9.54-9.54-9.54-9.54c-5.27,5.27-5.27,13.81,0,19.09h0Z"></path>
    <path class="cls-2" d="M68.04,304.75c5.27-5.27,5.27-13.81,0-19.09l-9.54,9.54,9.54,9.54h0Z"></path>
    <path class="cls-2" d="M48.96,304.75l9.54-9.54-9.54-9.54c-5.27,5.27-5.27,13.81,0,19.09h0Z"></path>
    <path class="cls-2" d="M108.63,304.75c5.27-5.27,5.27-13.81,0-19.09l-9.54,9.54,9.54,9.54h0Z"></path>
    <path class="cls-2" d="M89.54,304.75l9.54-9.54-9.54-9.54c-5.27,5.27-5.27,13.81,0,19.09h0Z"></path>
    <path class="cls-2" d="M149.21,304.75c5.27-5.27,5.27-13.81,0-19.09l-9.54,9.54,9.54,9.54h0Z"></path>
    <path class="cls-2" d="M130.12,304.75l9.54-9.54-9.54-9.54c-5.27,5.27-5.27,13.81,0,19.09h0Z"></path>
    <path class="cls-2" d="M189.79,304.75c5.27-5.27,5.27-13.81,0-19.09l-9.54,9.54,9.54,9.54h0Z"></path>
    <path class="cls-2" d="M170.7,304.75l9.54-9.54-9.54-9.54c-5.27,5.27-5.27,13.81,0,19.09h0Z"></path>
    <path class="cls-2" d="M270.95,304.75c5.27-5.27,5.27-13.81,0-19.09l-9.54,9.54,9.54,9.54h0Z"></path>
    <path class="cls-2" d="M251.87,304.75l9.54-9.54-9.54-9.54c-5.27,5.27-5.27,13.81,0,19.09h0Z"></path>
    <path class="cls-2" d="M311.54,304.75c5.27-5.27,5.27-13.81,0-19.09l-9.54,9.54,9.54,9.54h0Z"></path>
    <path class="cls-2" d="M292.45,304.75l9.54-9.54-9.54-9.54c-5.27,5.27-5.27,13.81,0,19.09h0Z"></path>
    <path class="cls-2" d="M352.12,304.75c5.27-5.27,5.27-13.81,0-19.09l-9.54,9.54,9.54,9.54h0Z"></path>
    <path class="cls-2" d="M333.03,304.75l9.54-9.54-9.54-9.54c-5.27,5.27-5.27,13.81,0,19.09h0Z"></path>
    <path class="cls-2" d="M395.43,304.75c5.27-5.27,5.27-13.81,0-19.09l-9.54,9.54,9.54,9.54h0Z"></path>
    <path class="cls-2" d="M376.34,304.75l9.54-9.54-9.54-9.54c-5.27,5.27-5.27,13.81,0,19.09h0Z"></path>
    <path class="cls-2" d="M68.04,335.77c5.27-5.27,5.27-13.81,0-19.09l-9.54,9.54,9.54,9.54h0Z"></path>
    <path class="cls-2" d="M48.96,335.77l9.54-9.54-9.54-9.54c-5.27,5.27-5.27,13.81,0,19.09h0Z"></path>
    <path class="cls-2" d="M108.63,335.77c5.27-5.27,5.27-13.81,0-19.09l-9.54,9.54,9.54,9.54h0Z"></path>
    <path class="cls-2" d="M89.54,335.77l9.54-9.54-9.54-9.54c-5.27,5.27-5.27,13.81,0,19.09h0Z"></path>
    <path class="cls-2" d="M149.21,335.77c5.27-5.27,5.27-13.81,0-19.09l-9.54,9.54,9.54,9.54h0Z"></path>
    <path class="cls-2" d="M130.12,335.77l9.54-9.54-9.54-9.54c-5.27,5.27-5.27,13.81,0,19.09h0Z"></path>
    <path class="cls-2" d="M189.79,335.77c5.27-5.27,5.27-13.81,0-19.09l-9.54,9.54,9.54,9.54h0Z"></path>
    <path class="cls-2" d="M170.7,335.77l9.54-9.54-9.54-9.54c-5.27,5.27-5.27,13.81,0,19.09h0Z"></path>
    <path class="cls-2" d="M270.95,335.77c5.27-5.27,5.27-13.81,0-19.09l-9.54,9.54,9.54,9.54h0Z"></path>
    <path class="cls-2" d="M251.87,335.77l9.54-9.54-9.54-9.54c-5.27,5.27-5.27,13.81,0,19.09h0Z"></path>
    <path class="cls-2" d="M311.54,335.77c5.27-5.27,5.27-13.81,0-19.09l-9.54,9.54,9.54,9.54h0Z"></path>
    <path class="cls-2" d="M292.45,335.77l9.54-9.54-9.54-9.54c-5.27,5.27-5.27,13.81,0,19.09h0Z"></path>
    <path class="cls-2" d="M352.12,335.77c5.27-5.27,5.27-13.81,0-19.09l-9.54,9.54,9.54,9.54h0Z"></path>
    <path class="cls-2" d="M333.03,335.77l9.54-9.54-9.54-9.54c-5.27,5.27-5.27,13.81,0,19.09h0Z"></path>
    <path class="cls-2" d="M395.43,335.77c5.27-5.27,5.27-13.81,0-19.09l-9.54,9.54,9.54,9.54h0Z"></path>
    <path class="cls-2" d="M376.34,335.77l9.54-9.54-9.54-9.54c-5.27,5.27-5.27,13.81,0,19.09h0Z"></path>
    <path class="cls-2" d="M68.04,366.79c5.27-5.27,5.27-13.81,0-19.09l-9.54,9.54,9.54,9.54h0Z"></path>
    <path class="cls-2" d="M48.96,366.79l9.54-9.54-9.54-9.54c-5.27,5.27-5.27,13.81,0,19.09h0Z"></path>
    <path class="cls-2" d="M108.63,366.79c5.27-5.27,5.27-13.81,0-19.09l-9.54,9.54,9.54,9.54h0Z"></path>
    <path class="cls-2" d="M89.54,366.79l9.54-9.54-9.54-9.54c-5.27,5.27-5.27,13.81,0,19.09h0Z"></path>
    <path class="cls-2" d="M149.21,366.79c5.27-5.27,5.27-13.81,0-19.09l-9.54,9.54,9.54,9.54h0Z"></path>
    <path class="cls-2" d="M130.12,366.79l9.54-9.54-9.54-9.54c-5.27,5.27-5.27,13.81,0,19.09h0Z"></path>
    <path class="cls-2" d="M189.79,366.79c5.27-5.27,5.27-13.81,0-19.09l-9.54,9.54,9.54,9.54h0Z"></path>
    <path class="cls-2" d="M170.7,366.79l9.54-9.54-9.54-9.54c-5.27,5.27-5.27,13.81,0,19.09h0Z"></path>
    <path class="cls-2" d="M270.95,366.79c5.27-5.27,5.27-13.81,0-19.09l-9.54,9.54,9.54,9.54h0Z"></path>
    <path class="cls-2" d="M251.87,366.79l9.54-9.54-9.54-9.54c-5.27,5.27-5.27,13.81,0,19.09h0Z"></path>
    <path class="cls-2" d="M311.54,366.79c5.27-5.27,5.27-13.81,0-19.09l-9.54,9.54,9.54,9.54h0Z"></path>
    <path class="cls-2" d="M292.45,366.79l9.54-9.54-9.54-9.54c-5.27,5.27-5.27,13.81,0,19.09h0Z"></path>
    <path class="cls-2" d="M352.12,366.79c5.27-5.27,5.27-13.81,0-19.09l-9.54,9.54,9.54,9.54h0Z"></path>
    <path class="cls-2" d="M333.03,366.79l9.54-9.54-9.54-9.54c-5.27,5.27-5.27,13.81,0,19.09h0Z"></path>
    <path class="cls-2" d="M395.43,366.79c5.27-5.27,5.27-13.81,0-19.09l-9.54,9.54,9.54,9.54h0Z"></path>
    <path class="cls-2" d="M376.34,366.79l9.54-9.54-9.54-9.54c-5.27,5.27-5.27,13.81,0,19.09h0Z"></path>
    <path class="cls-2" d="M68.04,397.8c5.27-5.27,5.27-13.81,0-19.09l-9.54,9.54,9.54,9.54h0Z"></path>
    <path class="cls-2" d="M48.96,397.8l9.54-9.54-9.54-9.54c-5.27,5.27-5.27,13.81,0,19.09h0Z"></path>
    <path class="cls-2" d="M108.63,397.8c5.27-5.27,5.27-13.81,0-19.09l-9.54,9.54,9.54,9.54h0Z"></path>
    <path class="cls-2" d="M89.54,397.8l9.54-9.54-9.54-9.54c-5.27,5.27-5.27,13.81,0,19.09h0Z"></path>
    <path class="cls-2" d="M149.21,397.8c5.27-5.27,5.27-13.81,0-19.09l-9.54,9.54,9.54,9.54h0Z"></path>
    <path class="cls-2" d="M130.12,397.8l9.54-9.54-9.54-9.54c-5.27,5.27-5.27,13.81,0,19.09h0Z"></path>
    <path class="cls-2" d="M189.79,397.8c5.27-5.27,5.27-13.81,0-19.09l-9.54,9.54,9.54,9.54h0Z"></path>
    <path class="cls-2" d="M170.7,397.8l9.54-9.54-9.54-9.54c-5.27,5.27-5.27,13.81,0,19.09h0Z"></path>
    <path class="cls-2" d="M270.95,397.8c5.27-5.27,5.27-13.81,0-19.09l-9.54,9.54,9.54,9.54h0Z"></path>
    <path class="cls-2" d="M251.87,397.8l9.54-9.54-9.54-9.54c-5.27,5.27-5.27,13.81,0,19.09h0Z"></path>
    <path class="cls-2" d="M311.54,397.8c5.27-5.27,5.27-13.81,0-19.09l-9.54,9.54,9.54,9.54h0Z"></path>
    <path class="cls-2" d="M292.45,397.8l9.54-9.54-9.54-9.54c-5.27,5.27-5.27,13.81,0,19.09h0Z"></path>
    <path class="cls-2" d="M352.12,397.8c5.27-5.27,5.27-13.81,0-19.09l-9.54,9.54,9.54,9.54h0Z"></path>
    <path class="cls-2" d="M333.03,397.8l9.54-9.54-9.54-9.54c-5.27,5.27-5.27,13.81,0,19.09h0Z"></path>
    <path class="cls-2" d="M395.43,397.8c5.27-5.27,5.27-13.81,0-19.09l-9.54,9.54,9.54,9.54h0Z"></path>
    <path class="cls-2" d="M376.34,397.8l9.54-9.54-9.54-9.54c-5.27,5.27-5.27,13.81,0,19.09h0Z"></path>
    <path class="cls-2" d="M68.04,428.83c5.27-5.27,5.27-13.81,0-19.09l-9.54,9.54,9.54,9.54h0Z"></path>
    <path class="cls-2" d="M48.96,428.83l9.54-9.54-9.54-9.54c-5.27,5.27-5.27,13.81,0,19.09h0Z"></path>
    <path class="cls-2" d="M108.63,428.83c5.27-5.27,5.27-13.81,0-19.09l-9.54,9.54,9.54,9.54h0Z"></path>
    <path class="cls-2" d="M89.54,428.83l9.54-9.54-9.54-9.54c-5.27,5.27-5.27,13.81,0,19.09h0Z"></path>
    <path class="cls-2" d="M149.21,428.83c5.27-5.27,5.27-13.81,0-19.09l-9.54,9.54,9.54,9.54h0Z"></path>
    <path class="cls-2" d="M130.12,428.83l9.54-9.54-9.54-9.54c-5.27,5.27-5.27,13.81,0,19.09h0Z"></path>
    <path class="cls-2" d="M189.79,428.83c5.27-5.27,5.27-13.81,0-19.09l-9.54,9.54,9.54,9.54h0Z"></path>
    <path class="cls-2" d="M170.7,428.83l9.54-9.54-9.54-9.54c-5.27,5.27-5.27,13.81,0,19.09h0Z"></path>
    <path class="cls-2" d="M270.95,428.83c5.27-5.27,5.27-13.81,0-19.09l-9.54,9.54,9.54,9.54h0Z"></path>
    <path class="cls-2" d="M251.87,428.83l9.54-9.54-9.54-9.54c-5.27,5.27-5.27,13.81,0,19.09h0Z"></path>
    <path class="cls-2" d="M311.54,428.83c5.27-5.27,5.27-13.81,0-19.09l-9.54,9.54,9.54,9.54h0Z"></path>
    <path class="cls-2" d="M292.45,428.83l9.54-9.54-9.54-9.54c-5.27,5.27-5.27,13.81,0,19.09h0Z"></path>
    <path class="cls-2" d="M352.12,428.83c5.27-5.27,5.27-13.81,0-19.09l-9.54,9.54,9.54,9.54h0Z"></path>
    <path class="cls-2" d="M333.03,428.83l9.54-9.54-9.54-9.54c-5.27,5.27-5.27,13.81,0,19.09h0Z"></path>
    <path class="cls-2" d="M395.43,428.83c5.27-5.27,5.27-13.81,0-19.09l-9.54,9.54,9.54,9.54h0Z"></path>
    <path class="cls-2" d="M376.34,428.83l9.54-9.54-9.54-9.54c-5.27,5.27-5.27,13.81,0,19.09h0Z"></path>
    <path class="cls-2" d="M68.04,459.84c5.27-5.27,5.27-13.81,0-19.09l-9.54,9.54,9.54,9.54h0Z"></path>
    <path class="cls-2" d="M48.96,459.84l9.54-9.54-9.54-9.54c-5.27,5.27-5.27,13.81,0,19.09h0Z"></path>
    <path class="cls-2" d="M108.63,459.84c5.27-5.27,5.27-13.81,0-19.09l-9.54,9.54,9.54,9.54h0Z"></path>
    <path class="cls-2" d="M89.54,459.84l9.54-9.54-9.54-9.54c-5.27,5.27-5.27,13.81,0,19.09h0Z"></path>
    <path class="cls-2" d="M149.21,459.84c5.27-5.27,5.27-13.81,0-19.09l-9.54,9.54,9.54,9.54h0Z"></path>
    <path class="cls-2" d="M130.12,459.84l9.54-9.54-9.54-9.54c-5.27,5.27-5.27,13.81,0,19.09h0Z"></path>
    <path class="cls-2" d="M189.79,459.84c5.27-5.27,5.27-13.81,0-19.09l-9.54,9.54,9.54,9.54h0Z"></path>
    <path class="cls-2" d="M170.7,459.84l9.54-9.54-9.54-9.54c-5.27,5.27-5.27,13.81,0,19.09h0Z"></path>
    <path class="cls-2" d="M270.95,459.84c5.27-5.27,5.27-13.81,0-19.09l-9.54,9.54,9.54,9.54h0Z"></path>
    <path class="cls-2" d="M251.87,459.84l9.54-9.54-9.54-9.54c-5.27,5.27-5.27,13.81,0,19.09h0Z"></path>
    <path class="cls-2" d="M311.54,459.84c5.27-5.27,5.27-13.81,0-19.09l-9.54,9.54,9.54,9.54h0Z"></path>
    <path class="cls-2" d="M292.45,459.84l9.54-9.54-9.54-9.54c-5.27,5.27-5.27,13.81,0,19.09h0Z"></path>
    <path class="cls-2" d="M352.12,459.84c5.27-5.27,5.27-13.81,0-19.09l-9.54,9.54,9.54,9.54h0Z"></path>
    <path class="cls-2" d="M333.03,459.84l9.54-9.54-9.54-9.54c-5.27,5.27-5.27,13.81,0,19.09h0Z"></path>
    <path class="cls-2" d="M395.43,459.84c5.27-5.27,5.27-13.81,0-19.09l-9.54,9.54,9.54,9.54h0Z"></path>
    <path class="cls-2" d="M376.34,459.84l9.54-9.54-9.54-9.54c-5.27,5.27-5.27,13.81,0,19.09h0Z"></path>
    <path class="cls-2" d="M68.04,490.86c5.27-5.27,5.27-13.81,0-19.09l-9.54,9.54,9.54,9.54h0Z"></path>
    <path class="cls-2" d="M48.96,490.86l9.54-9.54-9.54-9.54c-5.27,5.27-5.27,13.81,0,19.09h0Z"></path>
    <path class="cls-2" d="M108.63,490.86c5.27-5.27,5.27-13.81,0-19.09l-9.54,9.54,9.54,9.54h0Z"></path>
    <path class="cls-2" d="M89.54,490.86l9.54-9.54-9.54-9.54c-5.27,5.27-5.27,13.81,0,19.09h0Z"></path>
    <path class="cls-2" d="M149.21,490.86c5.27-5.27,5.27-13.81,0-19.09l-9.54,9.54,9.54,9.54h0Z"></path>
    <path class="cls-2" d="M130.12,490.86l9.54-9.54-9.54-9.54c-5.27,5.27-5.27,13.81,0,19.09h0Z"></path>
    <path class="cls-2" d="M189.79,490.86c5.27-5.27,5.27-13.81,0-19.09l-9.54,9.54,9.54,9.54h0Z"></path>
    <path class="cls-2" d="M170.7,490.86l9.54-9.54-9.54-9.54c-5.27,5.27-5.27,13.81,0,19.09h0Z"></path>
    <path class="cls-2" d="M270.95,490.86c5.27-5.27,5.27-13.81,0-19.09l-9.54,9.54,9.54,9.54h0Z"></path>
    <path class="cls-2" d="M251.87,490.86l9.54-9.54-9.54-9.54c-5.27,5.27-5.27,13.81,0,19.09h0Z"></path>
    <path class="cls-2" d="M311.54,490.86c5.27-5.27,5.27-13.81,0-19.09l-9.54,9.54,9.54,9.54h0Z"></path>
    <path class="cls-2" d="M292.45,490.86l9.54-9.54-9.54-9.54c-5.27,5.27-5.27,13.81,0,19.09h0Z"></path>
    <path class="cls-2" d="M352.12,490.86c5.27-5.27,5.27-13.81,0-19.09l-9.54,9.54,9.54,9.54h0Z"></path>
    <path class="cls-2" d="M333.03,490.86l9.54-9.54-9.54-9.54c-5.27,5.27-5.27,13.81,0,19.09h0Z"></path>
    <path class="cls-2" d="M395.43,490.86c5.27-5.27,5.27-13.81,0-19.09l-9.54,9.54,9.54,9.54h0Z"></path>
    <path class="cls-2" d="M376.34,490.86l9.54-9.54-9.54-9.54c-5.27,5.27-5.27,13.81,0,19.09h0Z"></path>
    <path class="cls-2" d="M68.04,521.88c5.27-5.27,5.27-13.81,0-19.09l-9.54,9.54,9.54,9.54h0Z"></path>
    <path class="cls-2" d="M48.96,521.88l9.54-9.54-9.54-9.54c-5.27,5.27-5.27,13.81,0,19.09h0Z"></path>
    <path class="cls-2" d="M108.63,521.88c5.27-5.27,5.27-13.81,0-19.09l-9.54,9.54,9.54,9.54h0Z"></path>
    <path class="cls-2" d="M89.54,521.88l9.54-9.54-9.54-9.54c-5.27,5.27-5.27,13.81,0,19.09h0Z"></path>
    <path class="cls-2" d="M149.21,521.88c5.27-5.27,5.27-13.81,0-19.09l-9.54,9.54,9.54,9.54h0Z"></path>
    <path class="cls-2" d="M130.12,521.88l9.54-9.54-9.54-9.54c-5.27,5.27-5.27,13.81,0,19.09h0Z"></path>
    <path class="cls-2" d="M189.79,521.88c5.27-5.27,5.27-13.81,0-19.09l-9.54,9.54,9.54,9.54h0Z"></path>
    <path class="cls-2" d="M170.7,521.88l9.54-9.54-9.54-9.54c-5.27,5.27-5.27,13.81,0,19.09h0Z"></path>
    <path class="cls-2" d="M270.95,521.88c5.27-5.27,5.27-13.81,0-19.09l-9.54,9.54,9.54,9.54h0Z"></path>
    <path class="cls-2" d="M251.87,521.88l9.54-9.54-9.54-9.54c-5.27,5.27-5.27,13.81,0,19.09h0Z"></path>
    <path class="cls-2" d="M311.54,521.88c5.27-5.27,5.27-13.81,0-19.09l-9.54,9.54,9.54,9.54h0Z"></path>
    <path class="cls-2" d="M292.45,521.88l9.54-9.54-9.54-9.54c-5.27,5.27-5.27,13.81,0,19.09h0Z"></path>
    <path class="cls-2" d="M352.12,521.88c5.27-5.27,5.27-13.81,0-19.09l-9.54,9.54,9.54,9.54h0Z"></path>
    <path class="cls-2" d="M333.03,521.88l9.54-9.54-9.54-9.54c-5.27,5.27-5.27,13.81,0,19.09h0Z"></path>
    <path class="cls-2" d="M395.43,521.88c5.27-5.27,5.27-13.81,0-19.09l-9.54,9.54,9.54,9.54h0Z"></path>
    <path class="cls-2" d="M376.34,521.88l9.54-9.54-9.54-9.54c-5.27,5.27-5.27,13.81,0,19.09h0Z"></path>
    <g class="cls-1">
      <path class="cls-5" d="M27.46,56.6c5.27-5.27,5.27-13.81,0-19.09l-9.54,9.54,9.54,9.54h0Z"></path>
      <path class="cls-5" d="M8.38,56.6l9.54-9.54-9.54-9.54c-5.27,5.27-5.27,13.81,0,19.09h0Z"></path>
    </g>
    <g class="cls-1">
      <path class="cls-5" d="M27.46,87.62c5.27-5.27,5.27-13.81,0-19.09l-9.54,9.54,9.54,9.54h0Z"></path>
      <path class="cls-5" d="M8.38,87.62l9.54-9.54-9.54-9.54c-5.27,5.27-5.27,13.81,0,19.09h0Z"></path>
    </g>
    <g class="cls-1">
      <path class="cls-5" d="M27.46,118.64c5.27-5.27,5.27-13.81,0-19.09l-9.54,9.54,9.54,9.54h0Z"></path>
      <path class="cls-5" d="M8.38,118.64l9.54-9.54-9.54-9.54c-5.27,5.27-5.27,13.81,0,19.09h0Z"></path>
    </g>
    <g class="cls-1">
      <path class="cls-5" d="M27.46,149.65c5.27-5.27,5.27-13.81,0-19.09l-9.54,9.54,9.54,9.54h0Z"></path>
      <path class="cls-5" d="M8.38,149.65l9.54-9.54-9.54-9.54c-5.27,5.27-5.27,13.81,0,19.09h0Z"></path>
    </g>
    <g class="cls-1">
      <path class="cls-5" d="M27.46,180.68c5.27-5.27,5.27-13.81,0-19.09l-9.54,9.54,9.54,9.54h0Z"></path>
      <path class="cls-5" d="M8.38,180.68l9.54-9.54-9.54-9.54c-5.27,5.27-5.27,13.81,0,19.09h0Z"></path>
    </g>
    <g class="cls-1">
      <path class="cls-5" d="M27.46,211.69c5.27-5.27,5.27-13.81,0-19.09l-9.54,9.54,9.54,9.54h0Z"></path>
      <path class="cls-5" d="M8.38,211.69l9.54-9.54-9.54-9.54c-5.27,5.27-5.27,13.81,0,19.09h0Z"></path>
    </g>
    <g class="cls-1">
      <path class="cls-5" d="M27.46,242.71c5.27-5.27,5.27-13.81,0-19.09l-9.54,9.54,9.54,9.54h0Z"></path>
      <path class="cls-5" d="M8.38,242.71l9.54-9.54-9.54-9.54c-5.27,5.27-5.27,13.81,0,19.09h0Z"></path>
    </g>
    <g class="cls-1">
      <path class="cls-5" d="M27.46,273.73c5.27-5.27,5.27-13.81,0-19.09l-9.54,9.54,9.54,9.54h0Z"></path>
      <path class="cls-5" d="M8.38,273.73l9.54-9.54-9.54-9.54c-5.27,5.27-5.27,13.81,0,19.09h0Z"></path>
    </g>
    <g class="cls-1">
      <path class="cls-5" d="M27.46,304.75c5.27-5.27,5.27-13.81,0-19.09l-9.54,9.54,9.54,9.54h0Z"></path>
      <path class="cls-5" d="M8.38,304.75l9.54-9.54-9.54-9.54c-5.27,5.27-5.27,13.81,0,19.09h0Z"></path>
    </g>
    <g class="cls-1">
      <path class="cls-5" d="M27.46,335.77c5.27-5.27,5.27-13.81,0-19.09l-9.54,9.54,9.54,9.54h0Z"></path>
      <path class="cls-5" d="M8.38,335.77l9.54-9.54-9.54-9.54c-5.27,5.27-5.27,13.81,0,19.09h0Z"></path>
    </g>
    <g class="cls-1">
      <path class="cls-5" d="M27.46,366.79c5.27-5.27,5.27-13.81,0-19.09l-9.54,9.54,9.54,9.54h0Z"></path>
      <path class="cls-5" d="M8.38,366.79l9.54-9.54-9.54-9.54c-5.27,5.27-5.27,13.81,0,19.09h0Z"></path>
    </g>
    <g class="cls-1">
      <path class="cls-5" d="M27.46,397.8c5.27-5.27,5.27-13.81,0-19.09l-9.54,9.54,9.54,9.54h0Z"></path>
      <path class="cls-5" d="M8.38,397.8l9.54-9.54-9.54-9.54c-5.27,5.27-5.27,13.81,0,19.09h0Z"></path>
    </g>
    <g class="cls-1">
      <path class="cls-5" d="M27.46,428.83c5.27-5.27,5.27-13.81,0-19.09l-9.54,9.54,9.54,9.54h0Z"></path>
      <path class="cls-5" d="M8.38,428.83l9.54-9.54-9.54-9.54c-5.27,5.27-5.27,13.81,0,19.09h0Z"></path>
    </g>
    <g class="cls-1">
      <path class="cls-5" d="M27.46,459.84c5.27-5.27,5.27-13.81,0-19.09l-9.54,9.54,9.54,9.54h0Z"></path>
      <path class="cls-5" d="M8.38,459.84l9.54-9.54-9.54-9.54c-5.27,5.27-5.27,13.81,0,19.09h0Z"></path>
    </g>
    <g class="cls-1">
      <path class="cls-5" d="M27.46,490.86c5.27-5.27,5.27-13.81,0-19.09l-9.54,9.54,9.54,9.54h0Z"></path>
      <path class="cls-5" d="M8.38,490.86l9.54-9.54-9.54-9.54c-5.27,5.27-5.27,13.81,0,19.09h0Z"></path>
    </g>
    <g class="cls-1">
      <path class="cls-5" d="M27.46,521.88c5.27-5.27,5.27-13.81,0-19.09l-9.54,9.54,9.54,9.54h0Z"></path>
      <path class="cls-5" d="M8.38,521.88l9.54-9.54-9.54-9.54c-5.27,5.27-5.27,13.81,0,19.09h0Z"></path>
    </g>
    <g class="cls-1">
      <path class="cls-5" d="M27.46,25.58c5.27-5.27,5.27-13.81,0-19.09l-9.54,9.54,9.54,9.54h0Z"></path>
      <path class="cls-5" d="M8.38,25.58l9.54-9.54L8.38,6.5c-5.27,5.27-5.27,13.81,0,19.09h0Z"></path>
    </g>
    <path class="cls-2" d="M68.04,25.58c5.27-5.27,5.27-13.81,0-19.09l-9.54,9.54,9.54,9.54h0Z"></path>
    <path class="cls-2" d="M48.96,25.58l9.54-9.54-9.54-9.54c-5.27,5.27-5.27,13.81,0,19.09h0Z"></path>
    <path class="cls-2" d="M108.63,25.58c5.27-5.27,5.27-13.81,0-19.09l-9.54,9.54,9.54,9.54h0Z"></path>
    <path class="cls-2" d="M89.54,25.58l9.54-9.54-9.54-9.54c-5.27,5.27-5.27,13.81,0,19.09h0Z"></path>
    <path class="cls-2" d="M149.21,25.58c5.27-5.27,5.27-13.81,0-19.09l-9.54,9.54,9.54,9.54h0Z"></path>
    <path class="cls-2" d="M130.12,25.58l9.54-9.54-9.54-9.54c-5.27,5.27-5.27,13.81,0,19.09h0Z"></path>
    <path class="cls-2" d="M189.79,25.58c5.27-5.27,5.27-13.81,0-19.09l-9.54,9.54,9.54,9.54h0Z"></path>
    <path class="cls-2" d="M170.7,25.58l9.54-9.54-9.54-9.54c-5.27,5.27-5.27,13.81,0,19.09h0Z"></path>
    <g class="cls-1">
      <path class="cls-5" d="M230.37,56.6c5.27-5.27,5.27-13.81,0-19.09l-9.54,9.54,9.54,9.54h0Z"></path>
      <path class="cls-5" d="M211.29,56.6l9.54-9.54-9.54-9.54c-5.27,5.27-5.27,13.81,0,19.09h0Z"></path>
    </g>
    <g class="cls-1">
      <path class="cls-5" d="M230.37,87.62c5.27-5.27,5.27-13.81,0-19.09l-9.54,9.54,9.54,9.54h0Z"></path>
      <path class="cls-5" d="M211.29,87.62l9.54-9.54-9.54-9.54c-5.27,5.27-5.27,13.81,0,19.09h0Z"></path>
    </g>
    <g class="cls-1">
      <path class="cls-5" d="M230.37,118.64c5.27-5.27,5.27-13.81,0-19.09l-9.54,9.54,9.54,9.54h0Z"></path>
      <path class="cls-5" d="M211.29,118.64l9.54-9.54-9.54-9.54c-5.27,5.27-5.27,13.81,0,19.09h0Z"></path>
    </g>
    <g class="cls-1">
      <path class="cls-5" d="M230.37,149.65c5.27-5.27,5.27-13.81,0-19.09l-9.54,9.54,9.54,9.54h0Z"></path>
      <path class="cls-5" d="M211.29,149.65l9.54-9.54-9.54-9.54c-5.27,5.27-5.27,13.81,0,19.09h0Z"></path>
    </g>
    <g class="cls-1">
      <path class="cls-5" d="M230.37,180.68c5.27-5.27,5.27-13.81,0-19.09l-9.54,9.54,9.54,9.54h0Z"></path>
      <path class="cls-5" d="M211.29,180.68l9.54-9.54-9.54-9.54c-5.27,5.27-5.27,13.81,0,19.09h0Z"></path>
    </g>
    <g class="cls-1">
      <path class="cls-5" d="M230.37,211.69c5.27-5.27,5.27-13.81,0-19.09l-9.54,9.54,9.54,9.54h0Z"></path>
      <path class="cls-5" d="M211.29,211.69l9.54-9.54-9.54-9.54c-5.27,5.27-5.27,13.81,0,19.09h0Z"></path>
    </g>
    <g class="cls-1">
      <path class="cls-5" d="M230.37,242.71c5.27-5.27,5.27-13.81,0-19.09l-9.54,9.54,9.54,9.54h0Z"></path>
      <path class="cls-5" d="M211.29,242.71l9.54-9.54-9.54-9.54c-5.27,5.27-5.27,13.81,0,19.09h0Z"></path>
    </g>
    <g class="cls-1">
      <path class="cls-5" d="M230.37,273.73c5.27-5.27,5.27-13.81,0-19.09l-9.54,9.54,9.54,9.54h0Z"></path>
      <path class="cls-5" d="M211.29,273.73l9.54-9.54-9.54-9.54c-5.27,5.27-5.27,13.81,0,19.09h0Z"></path>
    </g>
    <g class="cls-1">
      <path class="cls-5" d="M230.37,304.75c5.27-5.27,5.27-13.81,0-19.09l-9.54,9.54,9.54,9.54h0Z"></path>
      <path class="cls-5" d="M211.29,304.75l9.54-9.54-9.54-9.54c-5.27,5.27-5.27,13.81,0,19.09h0Z"></path>
    </g>
    <g class="cls-1">
      <path class="cls-5" d="M230.37,335.77c5.27-5.27,5.27-13.81,0-19.09l-9.54,9.54,9.54,9.54h0Z"></path>
      <path class="cls-5" d="M211.29,335.77l9.54-9.54-9.54-9.54c-5.27,5.27-5.27,13.81,0,19.09h0Z"></path>
    </g>
    <g class="cls-1">
      <path class="cls-5" d="M230.37,366.79c5.27-5.27,5.27-13.81,0-19.09l-9.54,9.54,9.54,9.54h0Z"></path>
      <path class="cls-5" d="M211.29,366.79l9.54-9.54-9.54-9.54c-5.27,5.27-5.27,13.81,0,19.09h0Z"></path>
    </g>
    <g class="cls-1">
      <path class="cls-5" d="M230.37,397.8c5.27-5.27,5.27-13.81,0-19.09l-9.54,9.54,9.54,9.54h0Z"></path>
      <path class="cls-5" d="M211.29,397.8l9.54-9.54-9.54-9.54c-5.27,5.27-5.27,13.81,0,19.09h0Z"></path>
    </g>
    <g class="cls-1">
      <path class="cls-5" d="M230.37,428.83c5.27-5.27,5.27-13.81,0-19.09l-9.54,9.54,9.54,9.54h0Z"></path>
      <path class="cls-5" d="M211.29,428.83l9.54-9.54-9.54-9.54c-5.27,5.27-5.27,13.81,0,19.09h0Z"></path>
    </g>
    <g class="cls-1">
      <path class="cls-5" d="M230.37,459.84c5.27-5.27,5.27-13.81,0-19.09l-9.54,9.54,9.54,9.54h0Z"></path>
      <path class="cls-5" d="M211.29,459.84l9.54-9.54-9.54-9.54c-5.27,5.27-5.27,13.81,0,19.09h0Z"></path>
    </g>
    <g class="cls-1">
      <path class="cls-5" d="M230.37,490.86c5.27-5.27,5.27-13.81,0-19.09l-9.54,9.54,9.54,9.54h0Z"></path>
      <path class="cls-5" d="M211.29,490.86l9.54-9.54-9.54-9.54c-5.27,5.27-5.27,13.81,0,19.09h0Z"></path>
    </g>
    <g class="cls-1">
      <path class="cls-5" d="M230.37,521.88c5.27-5.27,5.27-13.81,0-19.09l-9.54,9.54,9.54,9.54h0Z"></path>
      <path class="cls-5" d="M211.29,521.88l9.54-9.54-9.54-9.54c-5.27,5.27-5.27,13.81,0,19.09h0Z"></path>
    </g>
    <g class="cls-1">
      <path class="cls-5" d="M230.37,25.58c5.27-5.27,5.27-13.81,0-19.09l-9.54,9.54,9.54,9.54h0Z"></path>
      <path class="cls-5" d="M211.29,25.58l9.54-9.54-9.54-9.54c-5.27,5.27-5.27,13.81,0,19.09h0Z"></path>
    </g>
    <path class="cls-2" d="M270.95,25.58c5.27-5.27,5.27-13.81,0-19.09l-9.54,9.54,9.54,9.54h0Z"></path>
    <path class="cls-2" d="M251.87,25.58l9.54-9.54-9.54-9.54c-5.27,5.27-5.27,13.81,0,19.09h0Z"></path>
    <path class="cls-2" d="M311.54,25.58c5.27-5.27,5.27-13.81,0-19.09l-9.54,9.54,9.54,9.54h0Z"></path>
    <path class="cls-2" d="M292.45,25.58l9.54-9.54-9.54-9.54c-5.27,5.27-5.27,13.81,0,19.09h0Z"></path>
    <path class="cls-2" d="M352.12,25.58c5.27-5.27,5.27-13.81,0-19.09l-9.54,9.54,9.54,9.54h0Z"></path>
    <path class="cls-2" d="M333.03,25.58l9.54-9.54-9.54-9.54c-5.27,5.27-5.27,13.81,0,19.09h0Z"></path>
    <path class="cls-2" d="M395.43,25.58c5.27-5.27,5.27-13.81,0-19.09l-9.54,9.54,9.54,9.54h0Z"></path>
    <path class="cls-2" d="M376.34,25.58l9.54-9.54-9.54-9.54c-5.27,5.27-5.27,13.81,0,19.09h0Z"></path>
  </g>
  <circle class="cls-6" cx="202.5" cy="392.91" r="45"></circle>
  <text class="cls-10" transform="translate(63.56 118.64)">
    <tspan class="cls-9" x="0" y="0">T</tspan>
    <tspan x="11.07" y="0">he fundame</tspan>
    <tspan class="cls-14" x="118.52" y="0">n</tspan>
    <tspan x="130.09" y="0">tal p</tspan>
    <tspan class="cls-22" x="168.63" y="0">r</tspan>
    <tspan class="cls-15" x="174.99" y="0">o</tspan>
    <tspan class="cls-21" x="186.39" y="0">t</tspan>
    <tspan x="193.39" y="0">o</tspan>
    <tspan class="cls-15" x="204.94" y="0">c</tspan>
    <tspan x="214.32" y="0">ol th</tspan>
    <tspan class="cls-19" x="254.01" y="0">a</tspan>
    <tspan x="263.88" y="0">t </tspan>
    <tspan x="0" y="36">al</tspan>
    <tspan class="cls-18" x="15.04" y="36">lo</tspan>
    <tspan class="cls-16" x="31.33" y="36">ws a</tspan>
    <tspan class="cls-12" x="70.06" y="36">n</tspan>
    <tspan class="cls-19" x="81.5" y="36">y</tspan>
    <tspan x="91.9" y="36">one </tspan>
    <tspan class="cls-13" x="130.66" y="36">t</tspan>
    <tspan x="137.65" y="36">o c</tspan>
    <tspan class="cls-24" x="163.46" y="36">r</tspan>
    <tspan x="169.82" y="36">e</tspan>
    <tspan class="cls-19" x="180.58" y="36">a</tspan>
    <tspan class="cls-21" x="190.45" y="36">t</tspan>
    <tspan x="197.44" y="36">e and </tspan>
    <tspan class="cls-18" x="0" y="72">e</tspan>
    <tspan class="cls-11" x="10.65" y="72">x</tspan>
    <tspan class="cls-16" x="20.22" y="72">change </tspan>
    <tspan class="cls-3" x="88.89" y="72">v</tspan>
    <tspan class="cls-20" x="99.1" y="72">alue, p</tspan>
    <tspan class="cls-23" x="156.85" y="72">ow</tspan>
    <tspan x="183.41" y="72">e</tspan>
    <tspan class="cls-22" x="194.16" y="72">r</tspan>
    <tspan x="200.53" y="72">ed </tspan>
    <tspan class="cls-17" x="0" y="108">b</tspan>
    <tspan class="cls-20" x="11.42" y="108">y </tspan>
    <tspan class="cls-17" x="26.75" y="108">z</tspan>
    <tspan class="cls-20" x="36.41" y="108">e</tspan>
    <tspan class="cls-22" x="47.17" y="108">r</tspan>
    <tspan x="53.53" y="108">o-kn</tspan>
    <tspan class="cls-18" x="95.13" y="108">o</tspan>
    <tspan class="cls-16" x="106.57" y="108">w</tspan>
    <tspan class="cls-18" x="121.8" y="108">l</tspan>
    <tspan class="cls-20" x="126.65" y="108">edge </tspan>
    <tspan class="cls-21" x="174.99" y="108">t</tspan>
    <tspan x="181.98" y="108">echno</tspan>
    <tspan class="cls-23" x="236.94" y="108">l</tspan>
    <tspan x="241.79" y="108">og</tspan>
    <tspan class="cls-8" x="263.8" y="108">y</tspan>
    <tspan x="273.75" y="108">.</tspan>
  </text>
  <path class="cls-7" d="M217.11,383.28c-1.04-.59-2.37-.59-3.56,0l-8.31,4.9-5.64,3.12-8.16,4.9c-1.04,.59-2.37,.59-3.56,0l-6.38-3.86c-1.04-.59-1.78-1.78-1.78-3.12v-7.42c0-1.19,.59-2.37,1.78-3.12l6.38-3.71c1.04-.59,2.37-.59,3.56,0l6.38,3.86c1.04,.59,1.78,1.78,1.78,3.12v4.9l5.64-3.26v-5.04c0-1.19-.59-2.37-1.78-3.12l-11.87-6.97c-1.04-.59-2.37-.59-3.56,0l-12.17,7.12c-1.19,.59-1.78,1.78-1.78,2.97v13.95c0,1.19,.59,2.37,1.78,3.12l12.02,6.97c1.04,.59,2.37,.59,3.56,0l8.16-4.75,5.64-3.26,8.16-4.75c1.04-.59,2.37-.59,3.56,0l6.38,3.71c1.04,.59,1.78,1.78,1.78,3.12v7.42c0,1.19-.59,2.37-1.78,3.12l-6.23,3.71c-1.04,.59-2.37,.59-3.56,0l-6.38-3.71c-1.04-.59-1.78-1.78-1.78-3.12v-4.75l-5.64,3.26v4.9c0,1.19,.59,2.37,1.78,3.12l12.02,6.97c1.04,.59,2.37,.59,3.56,0l12.02-6.97c1.04-.59,1.78-1.78,1.78-3.12v-14.09c0-1.19-.59-2.37-1.78-3.12l-12.02-6.97Z"></path>
</svg>
