<?xml version="1.0" encoding="UTF-8"?>
<svg xmlns="http://www.w3.org/2000/svg" id="_图层_1" data-name="图层 1" viewBox="0 0 405 525">
  <defs>
    <style>
      .cls-1 {
        letter-spacing: -.08em;
      }

      .cls-2 {
        letter-spacing: -.02em;
      }

      .cls-3, .cls-4 {
        opacity: .1;
      }

      .cls-5 {
        fill: #0030d4;
      }

      .cls-6 {
        fill: #f3c186;
      }

      .cls-7, .cls-4, .cls-8 {
        fill: #fff;
      }

      .cls-9 {
        letter-spacing: 0em;
      }

      .cls-10 {
        fill: #fffefd;
        font-family: Cabin-Regular, Cabin;
        font-size: 21px;
        font-variation-settings: 'wght' 400, 'wdth' 100;
      }

      .cls-11 {
        letter-spacing: -.07em;
      }

      .cls-12 {
        letter-spacing: -.01em;
      }

      .cls-13 {
        letter-spacing: 0em;
      }

      .cls-14 {
        letter-spacing: 0em;
      }

      .cls-15 {
        letter-spacing: 0em;
      }

      .cls-16 {
        letter-spacing: 0em;
      }

      .cls-17 {
        letter-spacing: -.01em;
      }

      .cls-18 {
        letter-spacing: 0em;
      }

      .cls-4 {
        isolation: isolate;
      }

      .cls-19 {
        letter-spacing: 0em;
      }

      .cls-20 {
        letter-spacing: 0em;
      }

      .cls-8 {
        stroke: #1e1e1e;
        stroke-miterlimit: 10;
        stroke-width: .75px;
      }

      .cls-21 {
        letter-spacing: -.01em;
      }

      .cls-22 {
        letter-spacing: 0em;
      }
    </style>
  </defs>
  <g>
    <rect class="cls-5" x="-3.51" y="-4.1" width="412.01" height="533.19"></rect>
    <path class="cls-4" d="M68.04,56.6c5.27-5.27,5.27-13.81,0-19.09l-9.54,9.54,9.54,9.54h0Z"></path>
    <path class="cls-4" d="M48.96,56.6l9.54-9.54-9.54-9.54c-5.27,5.27-5.27,13.81,0,19.09h0Z"></path>
    <path class="cls-4" d="M108.63,56.6c5.27-5.27,5.27-13.81,0-19.09l-9.54,9.54,9.54,9.54h0Z"></path>
    <path class="cls-4" d="M89.54,56.6l9.54-9.54-9.54-9.54c-5.27,5.27-5.27,13.81,0,19.09h0Z"></path>
    <path class="cls-4" d="M149.21,56.6c5.27-5.27,5.27-13.81,0-19.09l-9.54,9.54,9.54,9.54h0Z"></path>
    <path class="cls-4" d="M130.12,56.6l9.54-9.54-9.54-9.54c-5.27,5.27-5.27,13.81,0,19.09h0Z"></path>
    <path class="cls-4" d="M189.79,56.6c5.27-5.27,5.27-13.81,0-19.09l-9.54,9.54,9.54,9.54h0Z"></path>
    <path class="cls-4" d="M170.7,56.6l9.54-9.54-9.54-9.54c-5.27,5.27-5.27,13.81,0,19.09h0Z"></path>
    <path class="cls-4" d="M270.95,56.6c5.27-5.27,5.27-13.81,0-19.09l-9.54,9.54,9.54,9.54h0Z"></path>
    <path class="cls-4" d="M251.87,56.6l9.54-9.54-9.54-9.54c-5.27,5.27-5.27,13.81,0,19.09h0Z"></path>
    <path class="cls-4" d="M311.54,56.6c5.27-5.27,5.27-13.81,0-19.09l-9.54,9.54,9.54,9.54h0Z"></path>
    <path class="cls-4" d="M292.45,56.6l9.54-9.54-9.54-9.54c-5.27,5.27-5.27,13.81,0,19.09h0Z"></path>
    <path class="cls-4" d="M352.12,56.6c5.27-5.27,5.27-13.81,0-19.09l-9.54,9.54,9.54,9.54h0Z"></path>
    <path class="cls-4" d="M333.03,56.6l9.54-9.54-9.54-9.54c-5.27,5.27-5.27,13.81,0,19.09h0Z"></path>
    <path class="cls-4" d="M395.43,56.6c5.27-5.27,5.27-13.81,0-19.09l-9.54,9.54,9.54,9.54h0Z"></path>
    <path class="cls-4" d="M376.34,56.6l9.54-9.54-9.54-9.54c-5.27,5.27-5.27,13.81,0,19.09h0Z"></path>
    <path class="cls-4" d="M68.04,87.62c5.27-5.27,5.27-13.81,0-19.09l-9.54,9.54,9.54,9.54h0Z"></path>
    <path class="cls-4" d="M48.96,87.62l9.54-9.54-9.54-9.54c-5.27,5.27-5.27,13.81,0,19.09h0Z"></path>
    <path class="cls-4" d="M108.63,87.62c5.27-5.27,5.27-13.81,0-19.09l-9.54,9.54,9.54,9.54h0Z"></path>
    <path class="cls-4" d="M89.54,87.62l9.54-9.54-9.54-9.54c-5.27,5.27-5.27,13.81,0,19.09h0Z"></path>
    <path class="cls-4" d="M149.21,87.62c5.27-5.27,5.27-13.81,0-19.09l-9.54,9.54,9.54,9.54h0Z"></path>
    <path class="cls-4" d="M130.12,87.62l9.54-9.54-9.54-9.54c-5.27,5.27-5.27,13.81,0,19.09h0Z"></path>
    <path class="cls-4" d="M189.79,87.62c5.27-5.27,5.27-13.81,0-19.09l-9.54,9.54,9.54,9.54h0Z"></path>
    <path class="cls-4" d="M170.7,87.62l9.54-9.54-9.54-9.54c-5.27,5.27-5.27,13.81,0,19.09h0Z"></path>
    <path class="cls-4" d="M270.95,87.62c5.27-5.27,5.27-13.81,0-19.09l-9.54,9.54,9.54,9.54h0Z"></path>
    <path class="cls-4" d="M251.87,87.62l9.54-9.54-9.54-9.54c-5.27,5.27-5.27,13.81,0,19.09h0Z"></path>
    <path class="cls-4" d="M311.54,87.62c5.27-5.27,5.27-13.81,0-19.09l-9.54,9.54,9.54,9.54h0Z"></path>
    <path class="cls-4" d="M292.45,87.62l9.54-9.54-9.54-9.54c-5.27,5.27-5.27,13.81,0,19.09h0Z"></path>
    <path class="cls-4" d="M352.12,87.62c5.27-5.27,5.27-13.81,0-19.09l-9.54,9.54,9.54,9.54h0Z"></path>
    <path class="cls-4" d="M333.03,87.62l9.54-9.54-9.54-9.54c-5.27,5.27-5.27,13.81,0,19.09h0Z"></path>
    <path class="cls-4" d="M395.43,87.62c5.27-5.27,5.27-13.81,0-19.09l-9.54,9.54,9.54,9.54h0Z"></path>
    <path class="cls-4" d="M376.34,87.62l9.54-9.54-9.54-9.54c-5.27,5.27-5.27,13.81,0,19.09h0Z"></path>
    <path class="cls-4" d="M68.04,118.64c5.27-5.27,5.27-13.81,0-19.09l-9.54,9.54,9.54,9.54h0Z"></path>
    <path class="cls-4" d="M48.96,118.64l9.54-9.54-9.54-9.54c-5.27,5.27-5.27,13.81,0,19.09h0Z"></path>
    <path class="cls-4" d="M108.63,118.64c5.27-5.27,5.27-13.81,0-19.09l-9.54,9.54,9.54,9.54h0Z"></path>
    <path class="cls-4" d="M89.54,118.64l9.54-9.54-9.54-9.54c-5.27,5.27-5.27,13.81,0,19.09h0Z"></path>
    <path class="cls-4" d="M149.21,118.64c5.27-5.27,5.27-13.81,0-19.09l-9.54,9.54,9.54,9.54h0Z"></path>
    <path class="cls-4" d="M130.12,118.64l9.54-9.54-9.54-9.54c-5.27,5.27-5.27,13.81,0,19.09h0Z"></path>
    <path class="cls-4" d="M189.79,118.64c5.27-5.27,5.27-13.81,0-19.09l-9.54,9.54,9.54,9.54h0Z"></path>
    <path class="cls-4" d="M170.7,118.64l9.54-9.54-9.54-9.54c-5.27,5.27-5.27,13.81,0,19.09h0Z"></path>
    <path class="cls-4" d="M270.95,118.64c5.27-5.27,5.27-13.81,0-19.09l-9.54,9.54,9.54,9.54h0Z"></path>
    <path class="cls-4" d="M251.87,118.64l9.54-9.54-9.54-9.54c-5.27,5.27-5.27,13.81,0,19.09h0Z"></path>
    <path class="cls-4" d="M311.54,118.64c5.27-5.27,5.27-13.81,0-19.09l-9.54,9.54,9.54,9.54h0Z"></path>
    <path class="cls-4" d="M292.45,118.64l9.54-9.54-9.54-9.54c-5.27,5.27-5.27,13.81,0,19.09h0Z"></path>
    <path class="cls-4" d="M352.12,118.64c5.27-5.27,5.27-13.81,0-19.09l-9.54,9.54,9.54,9.54h0Z"></path>
    <path class="cls-4" d="M333.03,118.64l9.54-9.54-9.54-9.54c-5.27,5.27-5.27,13.81,0,19.09h0Z"></path>
    <path class="cls-4" d="M395.43,118.64c5.27-5.27,5.27-13.81,0-19.09l-9.54,9.54,9.54,9.54h0Z"></path>
    <path class="cls-4" d="M376.34,118.64l9.54-9.54-9.54-9.54c-5.27,5.27-5.27,13.81,0,19.09h0Z"></path>
    <path class="cls-4" d="M68.04,149.65c5.27-5.27,5.27-13.81,0-19.09l-9.54,9.54,9.54,9.54h0Z"></path>
    <path class="cls-4" d="M48.96,149.65l9.54-9.54-9.54-9.54c-5.27,5.27-5.27,13.81,0,19.09h0Z"></path>
    <path class="cls-4" d="M108.63,149.65c5.27-5.27,5.27-13.81,0-19.09l-9.54,9.54,9.54,9.54h0Z"></path>
    <path class="cls-4" d="M89.54,149.65l9.54-9.54-9.54-9.54c-5.27,5.27-5.27,13.81,0,19.09h0Z"></path>
    <path class="cls-4" d="M149.21,149.65c5.27-5.27,5.27-13.81,0-19.09l-9.54,9.54,9.54,9.54h0Z"></path>
    <path class="cls-4" d="M130.12,149.65l9.54-9.54-9.54-9.54c-5.27,5.27-5.27,13.81,0,19.09h0Z"></path>
    <path class="cls-4" d="M189.79,149.65c5.27-5.27,5.27-13.81,0-19.09l-9.54,9.54,9.54,9.54h0Z"></path>
    <path class="cls-4" d="M170.7,149.65l9.54-9.54-9.54-9.54c-5.27,5.27-5.27,13.81,0,19.09h0Z"></path>
    <path class="cls-4" d="M270.95,149.65c5.27-5.27,5.27-13.81,0-19.09l-9.54,9.54,9.54,9.54h0Z"></path>
    <path class="cls-4" d="M251.87,149.65l9.54-9.54-9.54-9.54c-5.27,5.27-5.27,13.81,0,19.09h0Z"></path>
    <path class="cls-4" d="M311.54,149.65c5.27-5.27,5.27-13.81,0-19.09l-9.54,9.54,9.54,9.54h0Z"></path>
    <path class="cls-4" d="M292.45,149.65l9.54-9.54-9.54-9.54c-5.27,5.27-5.27,13.81,0,19.09h0Z"></path>
    <path class="cls-4" d="M352.12,149.65c5.27-5.27,5.27-13.81,0-19.09l-9.54,9.54,9.54,9.54h0Z"></path>
    <path class="cls-4" d="M333.03,149.65l9.54-9.54-9.54-9.54c-5.27,5.27-5.27,13.81,0,19.09h0Z"></path>
    <path class="cls-4" d="M395.43,149.65c5.27-5.27,5.27-13.81,0-19.09l-9.54,9.54,9.54,9.54h0Z"></path>
    <path class="cls-4" d="M376.34,149.65l9.54-9.54-9.54-9.54c-5.27,5.27-5.27,13.81,0,19.09h0Z"></path>
    <path class="cls-4" d="M68.04,180.68c5.27-5.27,5.27-13.81,0-19.09l-9.54,9.54,9.54,9.54h0Z"></path>
    <path class="cls-4" d="M48.96,180.68l9.54-9.54-9.54-9.54c-5.27,5.27-5.27,13.81,0,19.09h0Z"></path>
    <path class="cls-4" d="M108.63,180.68c5.27-5.27,5.27-13.81,0-19.09l-9.54,9.54,9.54,9.54h0Z"></path>
    <path class="cls-4" d="M89.54,180.68l9.54-9.54-9.54-9.54c-5.27,5.27-5.27,13.81,0,19.09h0Z"></path>
    <path class="cls-4" d="M149.21,180.68c5.27-5.27,5.27-13.81,0-19.09l-9.54,9.54,9.54,9.54h0Z"></path>
    <path class="cls-4" d="M130.12,180.68l9.54-9.54-9.54-9.54c-5.27,5.27-5.27,13.81,0,19.09h0Z"></path>
    <path class="cls-4" d="M189.79,180.68c5.27-5.27,5.27-13.81,0-19.09l-9.54,9.54,9.54,9.54h0Z"></path>
    <path class="cls-4" d="M170.7,180.68l9.54-9.54-9.54-9.54c-5.27,5.27-5.27,13.81,0,19.09h0Z"></path>
    <path class="cls-4" d="M270.95,180.68c5.27-5.27,5.27-13.81,0-19.09l-9.54,9.54,9.54,9.54h0Z"></path>
    <path class="cls-4" d="M251.87,180.68l9.54-9.54-9.54-9.54c-5.27,5.27-5.27,13.81,0,19.09h0Z"></path>
    <path class="cls-4" d="M311.54,180.68c5.27-5.27,5.27-13.81,0-19.09l-9.54,9.54,9.54,9.54h0Z"></path>
    <path class="cls-4" d="M292.45,180.68l9.54-9.54-9.54-9.54c-5.27,5.27-5.27,13.81,0,19.09h0Z"></path>
    <path class="cls-4" d="M352.12,180.68c5.27-5.27,5.27-13.81,0-19.09l-9.54,9.54,9.54,9.54h0Z"></path>
    <path class="cls-4" d="M333.03,180.68l9.54-9.54-9.54-9.54c-5.27,5.27-5.27,13.81,0,19.09h0Z"></path>
    <path class="cls-4" d="M395.43,180.68c5.27-5.27,5.27-13.81,0-19.09l-9.54,9.54,9.54,9.54h0Z"></path>
    <path class="cls-4" d="M376.34,180.68l9.54-9.54-9.54-9.54c-5.27,5.27-5.27,13.81,0,19.09h0Z"></path>
    <path class="cls-4" d="M68.04,211.69c5.27-5.27,5.27-13.81,0-19.09l-9.54,9.54,9.54,9.54h0Z"></path>
    <path class="cls-4" d="M48.96,211.69l9.54-9.54-9.54-9.54c-5.27,5.27-5.27,13.81,0,19.09h0Z"></path>
    <path class="cls-4" d="M108.63,211.69c5.27-5.27,5.27-13.81,0-19.09l-9.54,9.54,9.54,9.54h0Z"></path>
    <path class="cls-4" d="M89.54,211.69l9.54-9.54-9.54-9.54c-5.27,5.27-5.27,13.81,0,19.09h0Z"></path>
    <path class="cls-4" d="M149.21,211.69c5.27-5.27,5.27-13.81,0-19.09l-9.54,9.54,9.54,9.54h0Z"></path>
    <path class="cls-4" d="M130.12,211.69l9.54-9.54-9.54-9.54c-5.27,5.27-5.27,13.81,0,19.09h0Z"></path>
    <path class="cls-4" d="M189.79,211.69c5.27-5.27,5.27-13.81,0-19.09l-9.54,9.54,9.54,9.54h0Z"></path>
    <path class="cls-4" d="M170.7,211.69l9.54-9.54-9.54-9.54c-5.27,5.27-5.27,13.81,0,19.09h0Z"></path>
    <path class="cls-4" d="M270.95,211.69c5.27-5.27,5.27-13.81,0-19.09l-9.54,9.54,9.54,9.54h0Z"></path>
    <path class="cls-4" d="M251.87,211.69l9.54-9.54-9.54-9.54c-5.27,5.27-5.27,13.81,0,19.09h0Z"></path>
    <path class="cls-4" d="M311.54,211.69c5.27-5.27,5.27-13.81,0-19.09l-9.54,9.54,9.54,9.54h0Z"></path>
    <path class="cls-4" d="M292.45,211.69l9.54-9.54-9.54-9.54c-5.27,5.27-5.27,13.81,0,19.09h0Z"></path>
    <path class="cls-4" d="M352.12,211.69c5.27-5.27,5.27-13.81,0-19.09l-9.54,9.54,9.54,9.54h0Z"></path>
    <path class="cls-4" d="M333.03,211.69l9.54-9.54-9.54-9.54c-5.27,5.27-5.27,13.81,0,19.09h0Z"></path>
    <path class="cls-4" d="M395.43,211.69c5.27-5.27,5.27-13.81,0-19.09l-9.54,9.54,9.54,9.54h0Z"></path>
    <path class="cls-4" d="M376.34,211.69l9.54-9.54-9.54-9.54c-5.27,5.27-5.27,13.81,0,19.09h0Z"></path>
    <path class="cls-4" d="M68.04,242.71c5.27-5.27,5.27-13.81,0-19.09l-9.54,9.54,9.54,9.54h0Z"></path>
    <path class="cls-4" d="M48.96,242.71l9.54-9.54-9.54-9.54c-5.27,5.27-5.27,13.81,0,19.09h0Z"></path>
    <path class="cls-4" d="M108.63,242.71c5.27-5.27,5.27-13.81,0-19.09l-9.54,9.54,9.54,9.54h0Z"></path>
    <path class="cls-4" d="M89.54,242.71l9.54-9.54-9.54-9.54c-5.27,5.27-5.27,13.81,0,19.09h0Z"></path>
    <path class="cls-4" d="M149.21,242.71c5.27-5.27,5.27-13.81,0-19.09l-9.54,9.54,9.54,9.54h0Z"></path>
    <path class="cls-4" d="M130.12,242.71l9.54-9.54-9.54-9.54c-5.27,5.27-5.27,13.81,0,19.09h0Z"></path>
    <path class="cls-4" d="M189.79,242.71c5.27-5.27,5.27-13.81,0-19.09l-9.54,9.54,9.54,9.54h0Z"></path>
    <path class="cls-4" d="M170.7,242.71l9.54-9.54-9.54-9.54c-5.27,5.27-5.27,13.81,0,19.09h0Z"></path>
    <path class="cls-4" d="M270.95,242.71c5.27-5.27,5.27-13.81,0-19.09l-9.54,9.54,9.54,9.54h0Z"></path>
    <path class="cls-4" d="M251.87,242.71l9.54-9.54-9.54-9.54c-5.27,5.27-5.27,13.81,0,19.09h0Z"></path>
    <path class="cls-4" d="M311.54,242.71c5.27-5.27,5.27-13.81,0-19.09l-9.54,9.54,9.54,9.54h0Z"></path>
    <path class="cls-4" d="M292.45,242.71l9.54-9.54-9.54-9.54c-5.27,5.27-5.27,13.81,0,19.09h0Z"></path>
    <path class="cls-4" d="M352.12,242.71c5.27-5.27,5.27-13.81,0-19.09l-9.54,9.54,9.54,9.54h0Z"></path>
    <path class="cls-4" d="M333.03,242.71l9.54-9.54-9.54-9.54c-5.27,5.27-5.27,13.81,0,19.09h0Z"></path>
    <path class="cls-4" d="M395.43,242.71c5.27-5.27,5.27-13.81,0-19.09l-9.54,9.54,9.54,9.54h0Z"></path>
    <path class="cls-4" d="M376.34,242.71l9.54-9.54-9.54-9.54c-5.27,5.27-5.27,13.81,0,19.09h0Z"></path>
    <path class="cls-4" d="M68.04,273.73c5.27-5.27,5.27-13.81,0-19.09l-9.54,9.54,9.54,9.54h0Z"></path>
    <path class="cls-4" d="M48.96,273.73l9.54-9.54-9.54-9.54c-5.27,5.27-5.27,13.81,0,19.09h0Z"></path>
    <path class="cls-4" d="M108.63,273.73c5.27-5.27,5.27-13.81,0-19.09l-9.54,9.54,9.54,9.54h0Z"></path>
    <path class="cls-4" d="M89.54,273.73l9.54-9.54-9.54-9.54c-5.27,5.27-5.27,13.81,0,19.09h0Z"></path>
    <path class="cls-4" d="M149.21,273.73c5.27-5.27,5.27-13.81,0-19.09l-9.54,9.54,9.54,9.54h0Z"></path>
    <path class="cls-4" d="M130.12,273.73l9.54-9.54-9.54-9.54c-5.27,5.27-5.27,13.81,0,19.09h0Z"></path>
    <path class="cls-4" d="M189.79,273.73c5.27-5.27,5.27-13.81,0-19.09l-9.54,9.54,9.54,9.54h0Z"></path>
    <path class="cls-4" d="M170.7,273.73l9.54-9.54-9.54-9.54c-5.27,5.27-5.27,13.81,0,19.09h0Z"></path>
    <path class="cls-4" d="M270.95,273.73c5.27-5.27,5.27-13.81,0-19.09l-9.54,9.54,9.54,9.54h0Z"></path>
    <path class="cls-4" d="M251.87,273.73l9.54-9.54-9.54-9.54c-5.27,5.27-5.27,13.81,0,19.09h0Z"></path>
    <path class="cls-4" d="M311.54,273.73c5.27-5.27,5.27-13.81,0-19.09l-9.54,9.54,9.54,9.54h0Z"></path>
    <path class="cls-4" d="M292.45,273.73l9.54-9.54-9.54-9.54c-5.27,5.27-5.27,13.81,0,19.09h0Z"></path>
    <path class="cls-4" d="M352.12,273.73c5.27-5.27,5.27-13.81,0-19.09l-9.54,9.54,9.54,9.54h0Z"></path>
    <path class="cls-4" d="M333.03,273.73l9.54-9.54-9.54-9.54c-5.27,5.27-5.27,13.81,0,19.09h0Z"></path>
    <path class="cls-4" d="M395.43,273.73c5.27-5.27,5.27-13.81,0-19.09l-9.54,9.54,9.54,9.54h0Z"></path>
    <path class="cls-4" d="M376.34,273.73l9.54-9.54-9.54-9.54c-5.27,5.27-5.27,13.81,0,19.09h0Z"></path>
    <path class="cls-4" d="M68.04,304.75c5.27-5.27,5.27-13.81,0-19.09l-9.54,9.54,9.54,9.54h0Z"></path>
    <path class="cls-4" d="M48.96,304.75l9.54-9.54-9.54-9.54c-5.27,5.27-5.27,13.81,0,19.09h0Z"></path>
    <path class="cls-4" d="M108.63,304.75c5.27-5.27,5.27-13.81,0-19.09l-9.54,9.54,9.54,9.54h0Z"></path>
    <path class="cls-4" d="M89.54,304.75l9.54-9.54-9.54-9.54c-5.27,5.27-5.27,13.81,0,19.09h0Z"></path>
    <path class="cls-4" d="M149.21,304.75c5.27-5.27,5.27-13.81,0-19.09l-9.54,9.54,9.54,9.54h0Z"></path>
    <path class="cls-4" d="M130.12,304.75l9.54-9.54-9.54-9.54c-5.27,5.27-5.27,13.81,0,19.09h0Z"></path>
    <path class="cls-4" d="M189.79,304.75c5.27-5.27,5.27-13.81,0-19.09l-9.54,9.54,9.54,9.54h0Z"></path>
    <path class="cls-4" d="M170.7,304.75l9.54-9.54-9.54-9.54c-5.27,5.27-5.27,13.81,0,19.09h0Z"></path>
    <path class="cls-4" d="M270.95,304.75c5.27-5.27,5.27-13.81,0-19.09l-9.54,9.54,9.54,9.54h0Z"></path>
    <path class="cls-4" d="M251.87,304.75l9.54-9.54-9.54-9.54c-5.27,5.27-5.27,13.81,0,19.09h0Z"></path>
    <path class="cls-4" d="M311.54,304.75c5.27-5.27,5.27-13.81,0-19.09l-9.54,9.54,9.54,9.54h0Z"></path>
    <path class="cls-4" d="M292.45,304.75l9.54-9.54-9.54-9.54c-5.27,5.27-5.27,13.81,0,19.09h0Z"></path>
    <path class="cls-4" d="M352.12,304.75c5.27-5.27,5.27-13.81,0-19.09l-9.54,9.54,9.54,9.54h0Z"></path>
    <path class="cls-4" d="M333.03,304.75l9.54-9.54-9.54-9.54c-5.27,5.27-5.27,13.81,0,19.09h0Z"></path>
    <path class="cls-4" d="M395.43,304.75c5.27-5.27,5.27-13.81,0-19.09l-9.54,9.54,9.54,9.54h0Z"></path>
    <path class="cls-4" d="M376.34,304.75l9.54-9.54-9.54-9.54c-5.27,5.27-5.27,13.81,0,19.09h0Z"></path>
    <path class="cls-4" d="M68.04,335.77c5.27-5.27,5.27-13.81,0-19.09l-9.54,9.54,9.54,9.54h0Z"></path>
    <path class="cls-4" d="M48.96,335.77l9.54-9.54-9.54-9.54c-5.27,5.27-5.27,13.81,0,19.09h0Z"></path>
    <path class="cls-4" d="M108.63,335.77c5.27-5.27,5.27-13.81,0-19.09l-9.54,9.54,9.54,9.54h0Z"></path>
    <path class="cls-4" d="M89.54,335.77l9.54-9.54-9.54-9.54c-5.27,5.27-5.27,13.81,0,19.09h0Z"></path>
    <path class="cls-4" d="M149.21,335.77c5.27-5.27,5.27-13.81,0-19.09l-9.54,9.54,9.54,9.54h0Z"></path>
    <path class="cls-4" d="M130.12,335.77l9.54-9.54-9.54-9.54c-5.27,5.27-5.27,13.81,0,19.09h0Z"></path>
    <path class="cls-4" d="M189.79,335.77c5.27-5.27,5.27-13.81,0-19.09l-9.54,9.54,9.54,9.54h0Z"></path>
    <path class="cls-4" d="M170.7,335.77l9.54-9.54-9.54-9.54c-5.27,5.27-5.27,13.81,0,19.09h0Z"></path>
    <path class="cls-4" d="M270.95,335.77c5.27-5.27,5.27-13.81,0-19.09l-9.54,9.54,9.54,9.54h0Z"></path>
    <path class="cls-4" d="M251.87,335.77l9.54-9.54-9.54-9.54c-5.27,5.27-5.27,13.81,0,19.09h0Z"></path>
    <path class="cls-4" d="M311.54,335.77c5.27-5.27,5.27-13.81,0-19.09l-9.54,9.54,9.54,9.54h0Z"></path>
    <path class="cls-4" d="M292.45,335.77l9.54-9.54-9.54-9.54c-5.27,5.27-5.27,13.81,0,19.09h0Z"></path>
    <path class="cls-4" d="M352.12,335.77c5.27-5.27,5.27-13.81,0-19.09l-9.54,9.54,9.54,9.54h0Z"></path>
    <path class="cls-4" d="M333.03,335.77l9.54-9.54-9.54-9.54c-5.27,5.27-5.27,13.81,0,19.09h0Z"></path>
    <path class="cls-4" d="M395.43,335.77c5.27-5.27,5.27-13.81,0-19.09l-9.54,9.54,9.54,9.54h0Z"></path>
    <path class="cls-4" d="M376.34,335.77l9.54-9.54-9.54-9.54c-5.27,5.27-5.27,13.81,0,19.09h0Z"></path>
    <path class="cls-4" d="M68.04,366.79c5.27-5.27,5.27-13.81,0-19.09l-9.54,9.54,9.54,9.54h0Z"></path>
    <path class="cls-4" d="M48.96,366.79l9.54-9.54-9.54-9.54c-5.27,5.27-5.27,13.81,0,19.09h0Z"></path>
    <path class="cls-4" d="M108.63,366.79c5.27-5.27,5.27-13.81,0-19.09l-9.54,9.54,9.54,9.54h0Z"></path>
    <path class="cls-4" d="M89.54,366.79l9.54-9.54-9.54-9.54c-5.27,5.27-5.27,13.81,0,19.09h0Z"></path>
    <path class="cls-4" d="M149.21,366.79c5.27-5.27,5.27-13.81,0-19.09l-9.54,9.54,9.54,9.54h0Z"></path>
    <path class="cls-4" d="M130.12,366.79l9.54-9.54-9.54-9.54c-5.27,5.27-5.27,13.81,0,19.09h0Z"></path>
    <path class="cls-4" d="M189.79,366.79c5.27-5.27,5.27-13.81,0-19.09l-9.54,9.54,9.54,9.54h0Z"></path>
    <path class="cls-4" d="M170.7,366.79l9.54-9.54-9.54-9.54c-5.27,5.27-5.27,13.81,0,19.09h0Z"></path>
    <path class="cls-4" d="M270.95,366.79c5.27-5.27,5.27-13.81,0-19.09l-9.54,9.54,9.54,9.54h0Z"></path>
    <path class="cls-4" d="M251.87,366.79l9.54-9.54-9.54-9.54c-5.27,5.27-5.27,13.81,0,19.09h0Z"></path>
    <path class="cls-4" d="M311.54,366.79c5.27-5.27,5.27-13.81,0-19.09l-9.54,9.54,9.54,9.54h0Z"></path>
    <path class="cls-4" d="M292.45,366.79l9.54-9.54-9.54-9.54c-5.27,5.27-5.27,13.81,0,19.09h0Z"></path>
    <path class="cls-4" d="M352.12,366.79c5.27-5.27,5.27-13.81,0-19.09l-9.54,9.54,9.54,9.54h0Z"></path>
    <path class="cls-4" d="M333.03,366.79l9.54-9.54-9.54-9.54c-5.27,5.27-5.27,13.81,0,19.09h0Z"></path>
    <path class="cls-4" d="M395.43,366.79c5.27-5.27,5.27-13.81,0-19.09l-9.54,9.54,9.54,9.54h0Z"></path>
    <path class="cls-4" d="M376.34,366.79l9.54-9.54-9.54-9.54c-5.27,5.27-5.27,13.81,0,19.09h0Z"></path>
    <path class="cls-4" d="M68.04,397.8c5.27-5.27,5.27-13.81,0-19.09l-9.54,9.54,9.54,9.54h0Z"></path>
    <path class="cls-4" d="M48.96,397.8l9.54-9.54-9.54-9.54c-5.27,5.27-5.27,13.81,0,19.09h0Z"></path>
    <path class="cls-4" d="M108.63,397.8c5.27-5.27,5.27-13.81,0-19.09l-9.54,9.54,9.54,9.54h0Z"></path>
    <path class="cls-4" d="M89.54,397.8l9.54-9.54-9.54-9.54c-5.27,5.27-5.27,13.81,0,19.09h0Z"></path>
    <path class="cls-4" d="M149.21,397.8c5.27-5.27,5.27-13.81,0-19.09l-9.54,9.54,9.54,9.54h0Z"></path>
    <path class="cls-4" d="M130.12,397.8l9.54-9.54-9.54-9.54c-5.27,5.27-5.27,13.81,0,19.09h0Z"></path>
    <path class="cls-4" d="M189.79,397.8c5.27-5.27,5.27-13.81,0-19.09l-9.54,9.54,9.54,9.54h0Z"></path>
    <path class="cls-4" d="M170.7,397.8l9.54-9.54-9.54-9.54c-5.27,5.27-5.27,13.81,0,19.09h0Z"></path>
    <path class="cls-4" d="M270.95,397.8c5.27-5.27,5.27-13.81,0-19.09l-9.54,9.54,9.54,9.54h0Z"></path>
    <path class="cls-4" d="M251.87,397.8l9.54-9.54-9.54-9.54c-5.27,5.27-5.27,13.81,0,19.09h0Z"></path>
    <path class="cls-4" d="M311.54,397.8c5.27-5.27,5.27-13.81,0-19.09l-9.54,9.54,9.54,9.54h0Z"></path>
    <path class="cls-4" d="M292.45,397.8l9.54-9.54-9.54-9.54c-5.27,5.27-5.27,13.81,0,19.09h0Z"></path>
    <path class="cls-4" d="M352.12,397.8c5.27-5.27,5.27-13.81,0-19.09l-9.54,9.54,9.54,9.54h0Z"></path>
    <path class="cls-4" d="M333.03,397.8l9.54-9.54-9.54-9.54c-5.27,5.27-5.27,13.81,0,19.09h0Z"></path>
    <path class="cls-4" d="M395.43,397.8c5.27-5.27,5.27-13.81,0-19.09l-9.54,9.54,9.54,9.54h0Z"></path>
    <path class="cls-4" d="M376.34,397.8l9.54-9.54-9.54-9.54c-5.27,5.27-5.27,13.81,0,19.09h0Z"></path>
    <path class="cls-4" d="M68.04,428.83c5.27-5.27,5.27-13.81,0-19.09l-9.54,9.54,9.54,9.54h0Z"></path>
    <path class="cls-4" d="M48.96,428.83l9.54-9.54-9.54-9.54c-5.27,5.27-5.27,13.81,0,19.09h0Z"></path>
    <path class="cls-4" d="M108.63,428.83c5.27-5.27,5.27-13.81,0-19.09l-9.54,9.54,9.54,9.54h0Z"></path>
    <path class="cls-4" d="M89.54,428.83l9.54-9.54-9.54-9.54c-5.27,5.27-5.27,13.81,0,19.09h0Z"></path>
    <path class="cls-4" d="M149.21,428.83c5.27-5.27,5.27-13.81,0-19.09l-9.54,9.54,9.54,9.54h0Z"></path>
    <path class="cls-4" d="M130.12,428.83l9.54-9.54-9.54-9.54c-5.27,5.27-5.27,13.81,0,19.09h0Z"></path>
    <path class="cls-4" d="M189.79,428.83c5.27-5.27,5.27-13.81,0-19.09l-9.54,9.54,9.54,9.54h0Z"></path>
    <path class="cls-4" d="M170.7,428.83l9.54-9.54-9.54-9.54c-5.27,5.27-5.27,13.81,0,19.09h0Z"></path>
    <path class="cls-4" d="M270.95,428.83c5.27-5.27,5.27-13.81,0-19.09l-9.54,9.54,9.54,9.54h0Z"></path>
    <path class="cls-4" d="M251.87,428.83l9.54-9.54-9.54-9.54c-5.27,5.27-5.27,13.81,0,19.09h0Z"></path>
    <path class="cls-4" d="M311.54,428.83c5.27-5.27,5.27-13.81,0-19.09l-9.54,9.54,9.54,9.54h0Z"></path>
    <path class="cls-4" d="M292.45,428.83l9.54-9.54-9.54-9.54c-5.27,5.27-5.27,13.81,0,19.09h0Z"></path>
    <path class="cls-4" d="M352.12,428.83c5.27-5.27,5.27-13.81,0-19.09l-9.54,9.54,9.54,9.54h0Z"></path>
    <path class="cls-4" d="M333.03,428.83l9.54-9.54-9.54-9.54c-5.27,5.27-5.27,13.81,0,19.09h0Z"></path>
    <path class="cls-4" d="M395.43,428.83c5.27-5.27,5.27-13.81,0-19.09l-9.54,9.54,9.54,9.54h0Z"></path>
    <path class="cls-4" d="M376.34,428.83l9.54-9.54-9.54-9.54c-5.27,5.27-5.27,13.81,0,19.09h0Z"></path>
    <path class="cls-4" d="M68.04,459.84c5.27-5.27,5.27-13.81,0-19.09l-9.54,9.54,9.54,9.54h0Z"></path>
    <path class="cls-4" d="M48.96,459.84l9.54-9.54-9.54-9.54c-5.27,5.27-5.27,13.81,0,19.09h0Z"></path>
    <path class="cls-4" d="M108.63,459.84c5.27-5.27,5.27-13.81,0-19.09l-9.54,9.54,9.54,9.54h0Z"></path>
    <path class="cls-4" d="M89.54,459.84l9.54-9.54-9.54-9.54c-5.27,5.27-5.27,13.81,0,19.09h0Z"></path>
    <path class="cls-4" d="M149.21,459.84c5.27-5.27,5.27-13.81,0-19.09l-9.54,9.54,9.54,9.54h0Z"></path>
    <path class="cls-4" d="M130.12,459.84l9.54-9.54-9.54-9.54c-5.27,5.27-5.27,13.81,0,19.09h0Z"></path>
    <path class="cls-4" d="M189.79,459.84c5.27-5.27,5.27-13.81,0-19.09l-9.54,9.54,9.54,9.54h0Z"></path>
    <path class="cls-4" d="M170.7,459.84l9.54-9.54-9.54-9.54c-5.27,5.27-5.27,13.81,0,19.09h0Z"></path>
    <path class="cls-4" d="M270.95,459.84c5.27-5.27,5.27-13.81,0-19.09l-9.54,9.54,9.54,9.54h0Z"></path>
    <path class="cls-4" d="M251.87,459.84l9.54-9.54-9.54-9.54c-5.27,5.27-5.27,13.81,0,19.09h0Z"></path>
    <path class="cls-4" d="M311.54,459.84c5.27-5.27,5.27-13.81,0-19.09l-9.54,9.54,9.54,9.54h0Z"></path>
    <path class="cls-4" d="M292.45,459.84l9.54-9.54-9.54-9.54c-5.27,5.27-5.27,13.81,0,19.09h0Z"></path>
    <path class="cls-4" d="M352.12,459.84c5.27-5.27,5.27-13.81,0-19.09l-9.54,9.54,9.54,9.54h0Z"></path>
    <path class="cls-4" d="M333.03,459.84l9.54-9.54-9.54-9.54c-5.27,5.27-5.27,13.81,0,19.09h0Z"></path>
    <path class="cls-4" d="M395.43,459.84c5.27-5.27,5.27-13.81,0-19.09l-9.54,9.54,9.54,9.54h0Z"></path>
    <path class="cls-4" d="M376.34,459.84l9.54-9.54-9.54-9.54c-5.27,5.27-5.27,13.81,0,19.09h0Z"></path>
    <path class="cls-4" d="M68.04,490.86c5.27-5.27,5.27-13.81,0-19.09l-9.54,9.54,9.54,9.54h0Z"></path>
    <path class="cls-4" d="M48.96,490.86l9.54-9.54-9.54-9.54c-5.27,5.27-5.27,13.81,0,19.09h0Z"></path>
    <path class="cls-4" d="M108.63,490.86c5.27-5.27,5.27-13.81,0-19.09l-9.54,9.54,9.54,9.54h0Z"></path>
    <path class="cls-4" d="M89.54,490.86l9.54-9.54-9.54-9.54c-5.27,5.27-5.27,13.81,0,19.09h0Z"></path>
    <path class="cls-4" d="M149.21,490.86c5.27-5.27,5.27-13.81,0-19.09l-9.54,9.54,9.54,9.54h0Z"></path>
    <path class="cls-4" d="M130.12,490.86l9.54-9.54-9.54-9.54c-5.27,5.27-5.27,13.81,0,19.09h0Z"></path>
    <path class="cls-4" d="M189.79,490.86c5.27-5.27,5.27-13.81,0-19.09l-9.54,9.54,9.54,9.54h0Z"></path>
    <path class="cls-4" d="M170.7,490.86l9.54-9.54-9.54-9.54c-5.27,5.27-5.27,13.81,0,19.09h0Z"></path>
    <path class="cls-4" d="M270.95,490.86c5.27-5.27,5.27-13.81,0-19.09l-9.54,9.54,9.54,9.54h0Z"></path>
    <path class="cls-4" d="M251.87,490.86l9.54-9.54-9.54-9.54c-5.27,5.27-5.27,13.81,0,19.09h0Z"></path>
    <path class="cls-4" d="M311.54,490.86c5.27-5.27,5.27-13.81,0-19.09l-9.54,9.54,9.54,9.54h0Z"></path>
    <path class="cls-4" d="M292.45,490.86l9.54-9.54-9.54-9.54c-5.27,5.27-5.27,13.81,0,19.09h0Z"></path>
    <path class="cls-4" d="M352.12,490.86c5.27-5.27,5.27-13.81,0-19.09l-9.54,9.54,9.54,9.54h0Z"></path>
    <path class="cls-4" d="M333.03,490.86l9.54-9.54-9.54-9.54c-5.27,5.27-5.27,13.81,0,19.09h0Z"></path>
    <path class="cls-4" d="M395.43,490.86c5.27-5.27,5.27-13.81,0-19.09l-9.54,9.54,9.54,9.54h0Z"></path>
    <path class="cls-4" d="M376.34,490.86l9.54-9.54-9.54-9.54c-5.27,5.27-5.27,13.81,0,19.09h0Z"></path>
    <path class="cls-4" d="M68.04,521.88c5.27-5.27,5.27-13.81,0-19.09l-9.54,9.54,9.54,9.54h0Z"></path>
    <path class="cls-4" d="M48.96,521.88l9.54-9.54-9.54-9.54c-5.27,5.27-5.27,13.81,0,19.09h0Z"></path>
    <path class="cls-4" d="M108.63,521.88c5.27-5.27,5.27-13.81,0-19.09l-9.54,9.54,9.54,9.54h0Z"></path>
    <path class="cls-4" d="M89.54,521.88l9.54-9.54-9.54-9.54c-5.27,5.27-5.27,13.81,0,19.09h0Z"></path>
    <path class="cls-4" d="M149.21,521.88c5.27-5.27,5.27-13.81,0-19.09l-9.54,9.54,9.54,9.54h0Z"></path>
    <path class="cls-4" d="M130.12,521.88l9.54-9.54-9.54-9.54c-5.27,5.27-5.27,13.81,0,19.09h0Z"></path>
    <path class="cls-4" d="M189.79,521.88c5.27-5.27,5.27-13.81,0-19.09l-9.54,9.54,9.54,9.54h0Z"></path>
    <path class="cls-4" d="M170.7,521.88l9.54-9.54-9.54-9.54c-5.27,5.27-5.27,13.81,0,19.09h0Z"></path>
    <path class="cls-4" d="M270.95,521.88c5.27-5.27,5.27-13.81,0-19.09l-9.54,9.54,9.54,9.54h0Z"></path>
    <path class="cls-4" d="M251.87,521.88l9.54-9.54-9.54-9.54c-5.27,5.27-5.27,13.81,0,19.09h0Z"></path>
    <path class="cls-4" d="M311.54,521.88c5.27-5.27,5.27-13.81,0-19.09l-9.54,9.54,9.54,9.54h0Z"></path>
    <path class="cls-4" d="M292.45,521.88l9.54-9.54-9.54-9.54c-5.27,5.27-5.27,13.81,0,19.09h0Z"></path>
    <path class="cls-4" d="M352.12,521.88c5.27-5.27,5.27-13.81,0-19.09l-9.54,9.54,9.54,9.54h0Z"></path>
    <path class="cls-4" d="M333.03,521.88l9.54-9.54-9.54-9.54c-5.27,5.27-5.27,13.81,0,19.09h0Z"></path>
    <path class="cls-4" d="M395.43,521.88c5.27-5.27,5.27-13.81,0-19.09l-9.54,9.54,9.54,9.54h0Z"></path>
    <path class="cls-4" d="M376.34,521.88l9.54-9.54-9.54-9.54c-5.27,5.27-5.27,13.81,0,19.09h0Z"></path>
    <g class="cls-3">
      <path class="cls-7" d="M27.46,56.6c5.27-5.27,5.27-13.81,0-19.09l-9.54,9.54,9.54,9.54h0Z"></path>
      <path class="cls-7" d="M8.38,56.6l9.54-9.54-9.54-9.54c-5.27,5.27-5.27,13.81,0,19.09h0Z"></path>
    </g>
    <g class="cls-3">
      <path class="cls-7" d="M27.46,87.62c5.27-5.27,5.27-13.81,0-19.09l-9.54,9.54,9.54,9.54h0Z"></path>
      <path class="cls-7" d="M8.38,87.62l9.54-9.54-9.54-9.54c-5.27,5.27-5.27,13.81,0,19.09h0Z"></path>
    </g>
    <g class="cls-3">
      <path class="cls-7" d="M27.46,118.64c5.27-5.27,5.27-13.81,0-19.09l-9.54,9.54,9.54,9.54h0Z"></path>
      <path class="cls-7" d="M8.38,118.64l9.54-9.54-9.54-9.54c-5.27,5.27-5.27,13.81,0,19.09h0Z"></path>
    </g>
    <g class="cls-3">
      <path class="cls-7" d="M27.46,149.65c5.27-5.27,5.27-13.81,0-19.09l-9.54,9.54,9.54,9.54h0Z"></path>
      <path class="cls-7" d="M8.38,149.65l9.54-9.54-9.54-9.54c-5.27,5.27-5.27,13.81,0,19.09h0Z"></path>
    </g>
    <g class="cls-3">
      <path class="cls-7" d="M27.46,180.68c5.27-5.27,5.27-13.81,0-19.09l-9.54,9.54,9.54,9.54h0Z"></path>
      <path class="cls-7" d="M8.38,180.68l9.54-9.54-9.54-9.54c-5.27,5.27-5.27,13.81,0,19.09h0Z"></path>
    </g>
    <g class="cls-3">
      <path class="cls-7" d="M27.46,211.69c5.27-5.27,5.27-13.81,0-19.09l-9.54,9.54,9.54,9.54h0Z"></path>
      <path class="cls-7" d="M8.38,211.69l9.54-9.54-9.54-9.54c-5.27,5.27-5.27,13.81,0,19.09h0Z"></path>
    </g>
    <g class="cls-3">
      <path class="cls-7" d="M27.46,242.71c5.27-5.27,5.27-13.81,0-19.09l-9.54,9.54,9.54,9.54h0Z"></path>
      <path class="cls-7" d="M8.38,242.71l9.54-9.54-9.54-9.54c-5.27,5.27-5.27,13.81,0,19.09h0Z"></path>
    </g>
    <g class="cls-3">
      <path class="cls-7" d="M27.46,273.73c5.27-5.27,5.27-13.81,0-19.09l-9.54,9.54,9.54,9.54h0Z"></path>
      <path class="cls-7" d="M8.38,273.73l9.54-9.54-9.54-9.54c-5.27,5.27-5.27,13.81,0,19.09h0Z"></path>
    </g>
    <g class="cls-3">
      <path class="cls-7" d="M27.46,304.75c5.27-5.27,5.27-13.81,0-19.09l-9.54,9.54,9.54,9.54h0Z"></path>
      <path class="cls-7" d="M8.38,304.75l9.54-9.54-9.54-9.54c-5.27,5.27-5.27,13.81,0,19.09h0Z"></path>
    </g>
    <g class="cls-3">
      <path class="cls-7" d="M27.46,335.77c5.27-5.27,5.27-13.81,0-19.09l-9.54,9.54,9.54,9.54h0Z"></path>
      <path class="cls-7" d="M8.38,335.77l9.54-9.54-9.54-9.54c-5.27,5.27-5.27,13.81,0,19.09h0Z"></path>
    </g>
    <g class="cls-3">
      <path class="cls-7" d="M27.46,366.79c5.27-5.27,5.27-13.81,0-19.09l-9.54,9.54,9.54,9.54h0Z"></path>
      <path class="cls-7" d="M8.38,366.79l9.54-9.54-9.54-9.54c-5.27,5.27-5.27,13.81,0,19.09h0Z"></path>
    </g>
    <g class="cls-3">
      <path class="cls-7" d="M27.46,397.8c5.27-5.27,5.27-13.81,0-19.09l-9.54,9.54,9.54,9.54h0Z"></path>
      <path class="cls-7" d="M8.38,397.8l9.54-9.54-9.54-9.54c-5.27,5.27-5.27,13.81,0,19.09h0Z"></path>
    </g>
    <g class="cls-3">
      <path class="cls-7" d="M27.46,428.83c5.27-5.27,5.27-13.81,0-19.09l-9.54,9.54,9.54,9.54h0Z"></path>
      <path class="cls-7" d="M8.38,428.83l9.54-9.54-9.54-9.54c-5.27,5.27-5.27,13.81,0,19.09h0Z"></path>
    </g>
    <g class="cls-3">
      <path class="cls-7" d="M27.46,459.84c5.27-5.27,5.27-13.81,0-19.09l-9.54,9.54,9.54,9.54h0Z"></path>
      <path class="cls-7" d="M8.38,459.84l9.54-9.54-9.54-9.54c-5.27,5.27-5.27,13.81,0,19.09h0Z"></path>
    </g>
    <g class="cls-3">
      <path class="cls-7" d="M27.46,490.86c5.27-5.27,5.27-13.81,0-19.09l-9.54,9.54,9.54,9.54h0Z"></path>
      <path class="cls-7" d="M8.38,490.86l9.54-9.54-9.54-9.54c-5.27,5.27-5.27,13.81,0,19.09h0Z"></path>
    </g>
    <g class="cls-3">
      <path class="cls-7" d="M27.46,521.88c5.27-5.27,5.27-13.81,0-19.09l-9.54,9.54,9.54,9.54h0Z"></path>
      <path class="cls-7" d="M8.38,521.88l9.54-9.54-9.54-9.54c-5.27,5.27-5.27,13.81,0,19.09h0Z"></path>
    </g>
    <g class="cls-3">
      <path class="cls-7" d="M27.46,25.58c5.27-5.27,5.27-13.81,0-19.09l-9.54,9.54,9.54,9.54h0Z"></path>
      <path class="cls-7" d="M8.38,25.58l9.54-9.54L8.38,6.5c-5.27,5.27-5.27,13.81,0,19.09h0Z"></path>
    </g>
    <path class="cls-4" d="M68.04,25.58c5.27-5.27,5.27-13.81,0-19.09l-9.54,9.54,9.54,9.54h0Z"></path>
    <path class="cls-4" d="M48.96,25.58l9.54-9.54-9.54-9.54c-5.27,5.27-5.27,13.81,0,19.09h0Z"></path>
    <path class="cls-4" d="M108.63,25.58c5.27-5.27,5.27-13.81,0-19.09l-9.54,9.54,9.54,9.54h0Z"></path>
    <path class="cls-4" d="M89.54,25.58l9.54-9.54-9.54-9.54c-5.27,5.27-5.27,13.81,0,19.09h0Z"></path>
    <path class="cls-4" d="M149.21,25.58c5.27-5.27,5.27-13.81,0-19.09l-9.54,9.54,9.54,9.54h0Z"></path>
    <path class="cls-4" d="M130.12,25.58l9.54-9.54-9.54-9.54c-5.27,5.27-5.27,13.81,0,19.09h0Z"></path>
    <path class="cls-4" d="M189.79,25.58c5.27-5.27,5.27-13.81,0-19.09l-9.54,9.54,9.54,9.54h0Z"></path>
    <path class="cls-4" d="M170.7,25.58l9.54-9.54-9.54-9.54c-5.27,5.27-5.27,13.81,0,19.09h0Z"></path>
    <g class="cls-3">
      <path class="cls-7" d="M230.37,56.6c5.27-5.27,5.27-13.81,0-19.09l-9.54,9.54,9.54,9.54h0Z"></path>
      <path class="cls-7" d="M211.29,56.6l9.54-9.54-9.54-9.54c-5.27,5.27-5.27,13.81,0,19.09h0Z"></path>
    </g>
    <g class="cls-3">
      <path class="cls-7" d="M230.37,87.62c5.27-5.27,5.27-13.81,0-19.09l-9.54,9.54,9.54,9.54h0Z"></path>
      <path class="cls-7" d="M211.29,87.62l9.54-9.54-9.54-9.54c-5.27,5.27-5.27,13.81,0,19.09h0Z"></path>
    </g>
    <g class="cls-3">
      <path class="cls-7" d="M230.37,118.64c5.27-5.27,5.27-13.81,0-19.09l-9.54,9.54,9.54,9.54h0Z"></path>
      <path class="cls-7" d="M211.29,118.64l9.54-9.54-9.54-9.54c-5.27,5.27-5.27,13.81,0,19.09h0Z"></path>
    </g>
    <g class="cls-3">
      <path class="cls-7" d="M230.37,149.65c5.27-5.27,5.27-13.81,0-19.09l-9.54,9.54,9.54,9.54h0Z"></path>
      <path class="cls-7" d="M211.29,149.65l9.54-9.54-9.54-9.54c-5.27,5.27-5.27,13.81,0,19.09h0Z"></path>
    </g>
    <g class="cls-3">
      <path class="cls-7" d="M230.37,180.68c5.27-5.27,5.27-13.81,0-19.09l-9.54,9.54,9.54,9.54h0Z"></path>
      <path class="cls-7" d="M211.29,180.68l9.54-9.54-9.54-9.54c-5.27,5.27-5.27,13.81,0,19.09h0Z"></path>
    </g>
    <g class="cls-3">
      <path class="cls-7" d="M230.37,211.69c5.27-5.27,5.27-13.81,0-19.09l-9.54,9.54,9.54,9.54h0Z"></path>
      <path class="cls-7" d="M211.29,211.69l9.54-9.54-9.54-9.54c-5.27,5.27-5.27,13.81,0,19.09h0Z"></path>
    </g>
    <g class="cls-3">
      <path class="cls-7" d="M230.37,242.71c5.27-5.27,5.27-13.81,0-19.09l-9.54,9.54,9.54,9.54h0Z"></path>
      <path class="cls-7" d="M211.29,242.71l9.54-9.54-9.54-9.54c-5.27,5.27-5.27,13.81,0,19.09h0Z"></path>
    </g>
    <g class="cls-3">
      <path class="cls-7" d="M230.37,273.73c5.27-5.27,5.27-13.81,0-19.09l-9.54,9.54,9.54,9.54h0Z"></path>
      <path class="cls-7" d="M211.29,273.73l9.54-9.54-9.54-9.54c-5.27,5.27-5.27,13.81,0,19.09h0Z"></path>
    </g>
    <g class="cls-3">
      <path class="cls-7" d="M230.37,304.75c5.27-5.27,5.27-13.81,0-19.09l-9.54,9.54,9.54,9.54h0Z"></path>
      <path class="cls-7" d="M211.29,304.75l9.54-9.54-9.54-9.54c-5.27,5.27-5.27,13.81,0,19.09h0Z"></path>
    </g>
    <g class="cls-3">
      <path class="cls-7" d="M230.37,335.77c5.27-5.27,5.27-13.81,0-19.09l-9.54,9.54,9.54,9.54h0Z"></path>
      <path class="cls-7" d="M211.29,335.77l9.54-9.54-9.54-9.54c-5.27,5.27-5.27,13.81,0,19.09h0Z"></path>
    </g>
    <g class="cls-3">
      <path class="cls-7" d="M230.37,366.79c5.27-5.27,5.27-13.81,0-19.09l-9.54,9.54,9.54,9.54h0Z"></path>
      <path class="cls-7" d="M211.29,366.79l9.54-9.54-9.54-9.54c-5.27,5.27-5.27,13.81,0,19.09h0Z"></path>
    </g>
    <g class="cls-3">
      <path class="cls-7" d="M230.37,397.8c5.27-5.27,5.27-13.81,0-19.09l-9.54,9.54,9.54,9.54h0Z"></path>
      <path class="cls-7" d="M211.29,397.8l9.54-9.54-9.54-9.54c-5.27,5.27-5.27,13.81,0,19.09h0Z"></path>
    </g>
    <g class="cls-3">
      <path class="cls-7" d="M230.37,428.83c5.27-5.27,5.27-13.81,0-19.09l-9.54,9.54,9.54,9.54h0Z"></path>
      <path class="cls-7" d="M211.29,428.83l9.54-9.54-9.54-9.54c-5.27,5.27-5.27,13.81,0,19.09h0Z"></path>
    </g>
    <g class="cls-3">
      <path class="cls-7" d="M230.37,459.84c5.27-5.27,5.27-13.81,0-19.09l-9.54,9.54,9.54,9.54h0Z"></path>
      <path class="cls-7" d="M211.29,459.84l9.54-9.54-9.54-9.54c-5.27,5.27-5.27,13.81,0,19.09h0Z"></path>
    </g>
    <g class="cls-3">
      <path class="cls-7" d="M230.37,490.86c5.27-5.27,5.27-13.81,0-19.09l-9.54,9.54,9.54,9.54h0Z"></path>
      <path class="cls-7" d="M211.29,490.86l9.54-9.54-9.54-9.54c-5.27,5.27-5.27,13.81,0,19.09h0Z"></path>
    </g>
    <g class="cls-3">
      <path class="cls-7" d="M230.37,521.88c5.27-5.27,5.27-13.81,0-19.09l-9.54,9.54,9.54,9.54h0Z"></path>
      <path class="cls-7" d="M211.29,521.88l9.54-9.54-9.54-9.54c-5.27,5.27-5.27,13.81,0,19.09h0Z"></path>
    </g>
    <g class="cls-3">
      <path class="cls-7" d="M230.37,25.58c5.27-5.27,5.27-13.81,0-19.09l-9.54,9.54,9.54,9.54h0Z"></path>
      <path class="cls-7" d="M211.29,25.58l9.54-9.54-9.54-9.54c-5.27,5.27-5.27,13.81,0,19.09h0Z"></path>
    </g>
    <path class="cls-4" d="M270.95,25.58c5.27-5.27,5.27-13.81,0-19.09l-9.54,9.54,9.54,9.54h0Z"></path>
    <path class="cls-4" d="M251.87,25.58l9.54-9.54-9.54-9.54c-5.27,5.27-5.27,13.81,0,19.09h0Z"></path>
    <path class="cls-4" d="M311.54,25.58c5.27-5.27,5.27-13.81,0-19.09l-9.54,9.54,9.54,9.54h0Z"></path>
    <path class="cls-4" d="M292.45,25.58l9.54-9.54-9.54-9.54c-5.27,5.27-5.27,13.81,0,19.09h0Z"></path>
    <path class="cls-4" d="M352.12,25.58c5.27-5.27,5.27-13.81,0-19.09l-9.54,9.54,9.54,9.54h0Z"></path>
    <path class="cls-4" d="M333.03,25.58l9.54-9.54-9.54-9.54c-5.27,5.27-5.27,13.81,0,19.09h0Z"></path>
    <path class="cls-4" d="M395.43,25.58c5.27-5.27,5.27-13.81,0-19.09l-9.54,9.54,9.54,9.54h0Z"></path>
    <path class="cls-4" d="M376.34,25.58l9.54-9.54-9.54-9.54c-5.27,5.27-5.27,13.81,0,19.09h0Z"></path>
  </g>
  <circle class="cls-8" cx="202.5" cy="392.91" r="45"></circle>
  <text class="cls-10" transform="translate(63.56 118.64)">
    <tspan x="0" y="0">Sc</tspan>
    <tspan class="cls-21" x="21.8" y="0">r</tspan>
    <tspan x="28.16" y="0">oll seam</tspan>
    <tspan class="cls-18" x="102.29" y="0">l</tspan>
    <tspan x="107.14" y="0">ess</tspan>
    <tspan class="cls-15" x="135.28" y="0">l</tspan>
    <tspan class="cls-19" x="140.09" y="0">y </tspan>
    <tspan class="cls-22" x="155.42" y="0">e</tspan>
    <tspan x="166.07" y="0">x</tspan>
    <tspan class="cls-20" x="176.02" y="0">t</tspan>
    <tspan x="183.01" y="0">ends </tspan>
    <tspan class="cls-12" x="0" y="36">E</tspan>
    <tspan x="11.34" y="36">the</tspan>
    <tspan class="cls-21" x="40.55" y="36">r</tspan>
    <tspan x="46.91" y="36">eu</tspan>
    <tspan class="cls-11" x="68.67" y="36">m</tspan>
    <tspan class="cls-1" x="85.57" y="36">’</tspan>
    <tspan x="87.91" y="36">s capabilities th</tspan>
    <tspan class="cls-21" x="222.39" y="36">r</tspan>
    <tspan x="228.75" y="36">ough </tspan>
    <tspan class="cls-17" x="0" y="72">z</tspan>
    <tspan x="9.66" y="72">e</tspan>
    <tspan class="cls-21" x="20.41" y="72">r</tspan>
    <tspan class="cls-19" x="26.78" y="72">o kn</tspan>
    <tspan class="cls-22" x="64.2" y="72">o</tspan>
    <tspan x="75.64" y="72">w</tspan>
    <tspan class="cls-18" x="90.87" y="72">l</tspan>
    <tspan x="95.72" y="72">edge </tspan>
    <tspan class="cls-13" x="144.06" y="72">t</tspan>
    <tspan x="151.05" y="72">ech </tspan>
    <tspan x="0" y="108">and E</tspan>
    <tspan class="cls-2" x="49.83" y="108">V</tspan>
    <tspan class="cls-14" x="62.2" y="108">M equi</tspan>
    <tspan class="cls-9" x="121.88" y="108">v</tspan>
    <tspan x="132.09" y="108">a</tspan>
    <tspan class="cls-18" x="142.17" y="108">l</tspan>
    <tspan x="147.02" y="108">en</tspan>
    <tspan class="cls-16" x="169.51" y="108">c</tspan>
    <tspan x="178.9" y="108">e. </tspan>
  </text>
  <g id="pA3mGA">
    <g>
      <path class="cls-6" d="M226.42,399.9c-2.6-.11-3.38-1.29-3.32-3.84,.18-8.11,.03-16.23,.1-24.35,.02-2.04-.63-2.79-2.77-2.77-10.73,.09-21.46,.06-32.19,.04-4.46,0-7.71,2.06-9.48,6.02-1.76,3.92-.92,7.63,1.93,10.88,.87,1,2.71,2.03,.99,3.53-1.5,1.31-2.49-.35-3.38-1.29-3.86-4.09-4.77-8.9-2.75-14.06,2.03-5.17,6.08-8.27,11.61-8.39,11.45-.25,22.91-.12,34.36-.07,2.66,0,4.83,1.85,4.86,4.34,.1,9.98,.04,19.97,.04,29.96Z"></path>
      <path class="cls-6" d="M205.69,387.4c-3.54,0-7.09-.06-10.63,.03-1.31,.03-1.53-.48-1.53-1.63,0-1.18,.27-1.62,1.55-1.61,7.09,.06,14.17,.03,21.26,.02,1.17,0,2.29,.11,2.29,1.62,0,1.51-1.14,1.59-2.3,1.58-3.54-.02-7.09,0-10.63,0Z"></path>
      <path class="cls-6" d="M204.23,376.43c2.9,0,5.8,.02,8.7,0,1.13-.01,2.12,.18,2.18,1.52,.07,1.5-1,1.7-2.2,1.7-5.95-.01-11.9-.04-17.84,.02-1.33,.02-1.52-.51-1.54-1.66-.02-1.2,.28-1.64,1.56-1.6,3.04,.09,6.09,.03,9.14,.03Z"></path>
      <path class="cls-6" d="M203.99,395.19c-3.03,0-6.07-.08-9.1,.04-1.35,.05-1.35-.63-1.33-1.58,.02-.88-.14-1.69,1.25-1.68,6.14,.06,12.28,.03,18.42,.03,1.06,0,1.9,.32,1.89,1.55,0,1.32-.88,1.66-2.04,1.66-3.03-.02-6.07,0-9.1,0Z"></path>
      <path class="cls-6" d="M229.5,406.65c-1.75-3.77-4.9-5.64-9.02-5.68-7.68-.07-15.37,.14-23.06-.06-7.43-.2-6.42,2.12-6.45,6.97,0,.07,0,.14,.02,.22,.22,1.97,1.44,3.14,3.45,3.16,.66,0,1.84,.55,1.79-.81-.03-.86,.8-2.15-1.15-2.44-1.73-.26-.62-1.9-.77-2.89-.18-1.26,.94-.82,1.53-.78,3.52,.26,6.14,4.34,5.12,7.87-.96,3.3-3.98,5.34-7.25,4.89-3.51-.48-5.83-3.05-5.87-6.68-.06-5.22-.01-10.44-.02-15.66,0-5.29,.04-10.58-.02-15.87-.02-2.48-2.52-3.99-4.78-3.05-.79,.33-.53,.97-.49,1.47,.04,.58-.41,1.67,.41,1.65,2.18-.05,1.55,1.42,1.56,2.5,.03,9.71-.02,19.43,.03,29.14,.03,5.96,3.44,9.71,9.03,9.78,9.21,.12,18.42,.09,27.62,.07,2.84,0,5.21-1.24,6.98-3.43,2.56-3.16,3.04-6.71,1.34-10.38Zm-8.71,10.54c-3.4,.12-6.81-.01-10.22-.03-2.65,0-5.31,0-8.33,0,3.01-4.41,2.79-8.56,.12-12.82,6.5,0,12.72-.12,18.93,.05,3.36,.09,5.93,3.14,5.87,6.39-.07,3.5-2.73,6.29-6.37,6.41Z"></path>
    </g>
  </g>
</svg>
