<?xml version="1.0" encoding="UTF-8"?>
<svg xmlns="http://www.w3.org/2000/svg" xmlns:xlink="http://www.w3.org/1999/xlink" id="_图层_1" data-name="图层 1" viewBox="0 0 405 525">
  <defs>
    <style>
      .cls-1 {
        fill: url(#_未命名的渐变_3-3);
      }

      .cls-2 {
        fill: url(#_未命名的渐变_3-2);
      }

      .cls-3 {
        letter-spacing: 0em;
      }

      .cls-4, .cls-5 {
        opacity: .1;
      }

      .cls-6 {
        fill: #0030d4;
      }

      .cls-7, .cls-8, .cls-5 {
        fill: #fff;
      }

      .cls-9 {
        letter-spacing: 0em;
      }

      .cls-10 {
        letter-spacing: 0em;
      }

      .cls-11 {
        letter-spacing: 0em;
      }

      .cls-12 {
        fill: #fffefd;
        font-family: Cabin-Regular, Cabin;
        font-size: 21px;
        font-variation-settings: 'wght' 400, 'wdth' 100;
      }

      .cls-8 {
        stroke: #231815;
        stroke-miterlimit: 10;
        stroke-width: .5px;
      }

      .cls-13 {
        letter-spacing: 0em;
      }

      .cls-14 {
        letter-spacing: 0em;
      }

      .cls-15 {
        letter-spacing: 0em;
      }

      .cls-16 {
        letter-spacing: -.02em;
      }

      .cls-17 {
        fill: url(#_未命名的渐变_3);
      }

      .cls-18 {
        letter-spacing: 0em;
      }

      .cls-5 {
        isolation: isolate;
      }

      .cls-19 {
        letter-spacing: 0em;
      }

      .cls-20 {
        letter-spacing: 0em;
      }

      .cls-21 {
        letter-spacing: 0em;
      }

      .cls-22 {
        letter-spacing: 0em;
      }
    </style>
    <linearGradient id="_未命名的渐变_3" data-name="未命名的渐变 3" x1="226.94" y1="292.23" x2="193.81" y2="355.7" gradientTransform="translate(0 159)" gradientUnits="userSpaceOnUse">
      <stop offset="0" stop-color="#00ffa3"></stop>
      <stop offset="1" stop-color="#dc1fff"></stop>
    </linearGradient>
    <linearGradient id="_未命名的渐变_3-2" data-name="未命名的渐变 3" x1="212.45" y1="284.66" x2="179.32" y2="348.14" xlink:href="#_未命名的渐变_3"></linearGradient>
    <linearGradient id="_未命名的渐变_3-3" data-name="未命名的渐变 3" x1="219.65" y1="288.42" x2="186.52" y2="351.89" xlink:href="#_未命名的渐变_3"></linearGradient>
  </defs>
  <g>
    <rect class="cls-6" x="-3.51" y="-4.1" width="412.01" height="533.19"></rect>
    <path class="cls-5" d="M68.04,56.6c5.27-5.27,5.27-13.81,0-19.09l-9.54,9.54,9.54,9.54h0Z"></path>
    <path class="cls-5" d="M48.96,56.6l9.54-9.54-9.54-9.54c-5.27,5.27-5.27,13.81,0,19.09h0Z"></path>
    <path class="cls-5" d="M108.63,56.6c5.27-5.27,5.27-13.81,0-19.09l-9.54,9.54,9.54,9.54h0Z"></path>
    <path class="cls-5" d="M89.54,56.6l9.54-9.54-9.54-9.54c-5.27,5.27-5.27,13.81,0,19.09h0Z"></path>
    <path class="cls-5" d="M149.21,56.6c5.27-5.27,5.27-13.81,0-19.09l-9.54,9.54,9.54,9.54h0Z"></path>
    <path class="cls-5" d="M130.12,56.6l9.54-9.54-9.54-9.54c-5.27,5.27-5.27,13.81,0,19.09h0Z"></path>
    <path class="cls-5" d="M189.79,56.6c5.27-5.27,5.27-13.81,0-19.09l-9.54,9.54,9.54,9.54h0Z"></path>
    <path class="cls-5" d="M170.7,56.6l9.54-9.54-9.54-9.54c-5.27,5.27-5.27,13.81,0,19.09h0Z"></path>
    <path class="cls-5" d="M270.95,56.6c5.27-5.27,5.27-13.81,0-19.09l-9.54,9.54,9.54,9.54h0Z"></path>
    <path class="cls-5" d="M251.87,56.6l9.54-9.54-9.54-9.54c-5.27,5.27-5.27,13.81,0,19.09h0Z"></path>
    <path class="cls-5" d="M311.54,56.6c5.27-5.27,5.27-13.81,0-19.09l-9.54,9.54,9.54,9.54h0Z"></path>
    <path class="cls-5" d="M292.45,56.6l9.54-9.54-9.54-9.54c-5.27,5.27-5.27,13.81,0,19.09h0Z"></path>
    <path class="cls-5" d="M352.12,56.6c5.27-5.27,5.27-13.81,0-19.09l-9.54,9.54,9.54,9.54h0Z"></path>
    <path class="cls-5" d="M333.03,56.6l9.54-9.54-9.54-9.54c-5.27,5.27-5.27,13.81,0,19.09h0Z"></path>
    <path class="cls-5" d="M395.43,56.6c5.27-5.27,5.27-13.81,0-19.09l-9.54,9.54,9.54,9.54h0Z"></path>
    <path class="cls-5" d="M376.34,56.6l9.54-9.54-9.54-9.54c-5.27,5.27-5.27,13.81,0,19.09h0Z"></path>
    <path class="cls-5" d="M68.04,87.62c5.27-5.27,5.27-13.81,0-19.09l-9.54,9.54,9.54,9.54h0Z"></path>
    <path class="cls-5" d="M48.96,87.62l9.54-9.54-9.54-9.54c-5.27,5.27-5.27,13.81,0,19.09h0Z"></path>
    <path class="cls-5" d="M108.63,87.62c5.27-5.27,5.27-13.81,0-19.09l-9.54,9.54,9.54,9.54h0Z"></path>
    <path class="cls-5" d="M89.54,87.62l9.54-9.54-9.54-9.54c-5.27,5.27-5.27,13.81,0,19.09h0Z"></path>
    <path class="cls-5" d="M149.21,87.62c5.27-5.27,5.27-13.81,0-19.09l-9.54,9.54,9.54,9.54h0Z"></path>
    <path class="cls-5" d="M130.12,87.62l9.54-9.54-9.54-9.54c-5.27,5.27-5.27,13.81,0,19.09h0Z"></path>
    <path class="cls-5" d="M189.79,87.62c5.27-5.27,5.27-13.81,0-19.09l-9.54,9.54,9.54,9.54h0Z"></path>
    <path class="cls-5" d="M170.7,87.62l9.54-9.54-9.54-9.54c-5.27,5.27-5.27,13.81,0,19.09h0Z"></path>
    <path class="cls-5" d="M270.95,87.62c5.27-5.27,5.27-13.81,0-19.09l-9.54,9.54,9.54,9.54h0Z"></path>
    <path class="cls-5" d="M251.87,87.62l9.54-9.54-9.54-9.54c-5.27,5.27-5.27,13.81,0,19.09h0Z"></path>
    <path class="cls-5" d="M311.54,87.62c5.27-5.27,5.27-13.81,0-19.09l-9.54,9.54,9.54,9.54h0Z"></path>
    <path class="cls-5" d="M292.45,87.62l9.54-9.54-9.54-9.54c-5.27,5.27-5.27,13.81,0,19.09h0Z"></path>
    <path class="cls-5" d="M352.12,87.62c5.27-5.27,5.27-13.81,0-19.09l-9.54,9.54,9.54,9.54h0Z"></path>
    <path class="cls-5" d="M333.03,87.62l9.54-9.54-9.54-9.54c-5.27,5.27-5.27,13.81,0,19.09h0Z"></path>
    <path class="cls-5" d="M395.43,87.62c5.27-5.27,5.27-13.81,0-19.09l-9.54,9.54,9.54,9.54h0Z"></path>
    <path class="cls-5" d="M376.34,87.62l9.54-9.54-9.54-9.54c-5.27,5.27-5.27,13.81,0,19.09h0Z"></path>
    <path class="cls-5" d="M68.04,118.64c5.27-5.27,5.27-13.81,0-19.09l-9.54,9.54,9.54,9.54h0Z"></path>
    <path class="cls-5" d="M48.96,118.64l9.54-9.54-9.54-9.54c-5.27,5.27-5.27,13.81,0,19.09h0Z"></path>
    <path class="cls-5" d="M108.63,118.64c5.27-5.27,5.27-13.81,0-19.09l-9.54,9.54,9.54,9.54h0Z"></path>
    <path class="cls-5" d="M89.54,118.64l9.54-9.54-9.54-9.54c-5.27,5.27-5.27,13.81,0,19.09h0Z"></path>
    <path class="cls-5" d="M149.21,118.64c5.27-5.27,5.27-13.81,0-19.09l-9.54,9.54,9.54,9.54h0Z"></path>
    <path class="cls-5" d="M130.12,118.64l9.54-9.54-9.54-9.54c-5.27,5.27-5.27,13.81,0,19.09h0Z"></path>
    <path class="cls-5" d="M189.79,118.64c5.27-5.27,5.27-13.81,0-19.09l-9.54,9.54,9.54,9.54h0Z"></path>
    <path class="cls-5" d="M170.7,118.64l9.54-9.54-9.54-9.54c-5.27,5.27-5.27,13.81,0,19.09h0Z"></path>
    <path class="cls-5" d="M270.95,118.64c5.27-5.27,5.27-13.81,0-19.09l-9.54,9.54,9.54,9.54h0Z"></path>
    <path class="cls-5" d="M251.87,118.64l9.54-9.54-9.54-9.54c-5.27,5.27-5.27,13.81,0,19.09h0Z"></path>
    <path class="cls-5" d="M311.54,118.64c5.27-5.27,5.27-13.81,0-19.09l-9.54,9.54,9.54,9.54h0Z"></path>
    <path class="cls-5" d="M292.45,118.64l9.54-9.54-9.54-9.54c-5.27,5.27-5.27,13.81,0,19.09h0Z"></path>
    <path class="cls-5" d="M352.12,118.64c5.27-5.27,5.27-13.81,0-19.09l-9.54,9.54,9.54,9.54h0Z"></path>
    <path class="cls-5" d="M333.03,118.64l9.54-9.54-9.54-9.54c-5.27,5.27-5.27,13.81,0,19.09h0Z"></path>
    <path class="cls-5" d="M395.43,118.64c5.27-5.27,5.27-13.81,0-19.09l-9.54,9.54,9.54,9.54h0Z"></path>
    <path class="cls-5" d="M376.34,118.64l9.54-9.54-9.54-9.54c-5.27,5.27-5.27,13.81,0,19.09h0Z"></path>
    <path class="cls-5" d="M68.04,149.65c5.27-5.27,5.27-13.81,0-19.09l-9.54,9.54,9.54,9.54h0Z"></path>
    <path class="cls-5" d="M48.96,149.65l9.54-9.54-9.54-9.54c-5.27,5.27-5.27,13.81,0,19.09h0Z"></path>
    <path class="cls-5" d="M108.63,149.65c5.27-5.27,5.27-13.81,0-19.09l-9.54,9.54,9.54,9.54h0Z"></path>
    <path class="cls-5" d="M89.54,149.65l9.54-9.54-9.54-9.54c-5.27,5.27-5.27,13.81,0,19.09h0Z"></path>
    <path class="cls-5" d="M149.21,149.65c5.27-5.27,5.27-13.81,0-19.09l-9.54,9.54,9.54,9.54h0Z"></path>
    <path class="cls-5" d="M130.12,149.65l9.54-9.54-9.54-9.54c-5.27,5.27-5.27,13.81,0,19.09h0Z"></path>
    <path class="cls-5" d="M189.79,149.65c5.27-5.27,5.27-13.81,0-19.09l-9.54,9.54,9.54,9.54h0Z"></path>
    <path class="cls-5" d="M170.7,149.65l9.54-9.54-9.54-9.54c-5.27,5.27-5.27,13.81,0,19.09h0Z"></path>
    <path class="cls-5" d="M270.95,149.65c5.27-5.27,5.27-13.81,0-19.09l-9.54,9.54,9.54,9.54h0Z"></path>
    <path class="cls-5" d="M251.87,149.65l9.54-9.54-9.54-9.54c-5.27,5.27-5.27,13.81,0,19.09h0Z"></path>
    <path class="cls-5" d="M311.54,149.65c5.27-5.27,5.27-13.81,0-19.09l-9.54,9.54,9.54,9.54h0Z"></path>
    <path class="cls-5" d="M292.45,149.65l9.54-9.54-9.54-9.54c-5.27,5.27-5.27,13.81,0,19.09h0Z"></path>
    <path class="cls-5" d="M352.12,149.65c5.27-5.27,5.27-13.81,0-19.09l-9.54,9.54,9.54,9.54h0Z"></path>
    <path class="cls-5" d="M333.03,149.65l9.54-9.54-9.54-9.54c-5.27,5.27-5.27,13.81,0,19.09h0Z"></path>
    <path class="cls-5" d="M395.43,149.65c5.27-5.27,5.27-13.81,0-19.09l-9.54,9.54,9.54,9.54h0Z"></path>
    <path class="cls-5" d="M376.34,149.65l9.54-9.54-9.54-9.54c-5.27,5.27-5.27,13.81,0,19.09h0Z"></path>
    <path class="cls-5" d="M68.04,180.68c5.27-5.27,5.27-13.81,0-19.09l-9.54,9.54,9.54,9.54h0Z"></path>
    <path class="cls-5" d="M48.96,180.68l9.54-9.54-9.54-9.54c-5.27,5.27-5.27,13.81,0,19.09h0Z"></path>
    <path class="cls-5" d="M108.63,180.68c5.27-5.27,5.27-13.81,0-19.09l-9.54,9.54,9.54,9.54h0Z"></path>
    <path class="cls-5" d="M89.54,180.68l9.54-9.54-9.54-9.54c-5.27,5.27-5.27,13.81,0,19.09h0Z"></path>
    <path class="cls-5" d="M149.21,180.68c5.27-5.27,5.27-13.81,0-19.09l-9.54,9.54,9.54,9.54h0Z"></path>
    <path class="cls-5" d="M130.12,180.68l9.54-9.54-9.54-9.54c-5.27,5.27-5.27,13.81,0,19.09h0Z"></path>
    <path class="cls-5" d="M189.79,180.68c5.27-5.27,5.27-13.81,0-19.09l-9.54,9.54,9.54,9.54h0Z"></path>
    <path class="cls-5" d="M170.7,180.68l9.54-9.54-9.54-9.54c-5.27,5.27-5.27,13.81,0,19.09h0Z"></path>
    <path class="cls-5" d="M270.95,180.68c5.27-5.27,5.27-13.81,0-19.09l-9.54,9.54,9.54,9.54h0Z"></path>
    <path class="cls-5" d="M251.87,180.68l9.54-9.54-9.54-9.54c-5.27,5.27-5.27,13.81,0,19.09h0Z"></path>
    <path class="cls-5" d="M311.54,180.68c5.27-5.27,5.27-13.81,0-19.09l-9.54,9.54,9.54,9.54h0Z"></path>
    <path class="cls-5" d="M292.45,180.68l9.54-9.54-9.54-9.54c-5.27,5.27-5.27,13.81,0,19.09h0Z"></path>
    <path class="cls-5" d="M352.12,180.68c5.27-5.27,5.27-13.81,0-19.09l-9.54,9.54,9.54,9.54h0Z"></path>
    <path class="cls-5" d="M333.03,180.68l9.54-9.54-9.54-9.54c-5.27,5.27-5.27,13.81,0,19.09h0Z"></path>
    <path class="cls-5" d="M395.43,180.68c5.27-5.27,5.27-13.81,0-19.09l-9.54,9.54,9.54,9.54h0Z"></path>
    <path class="cls-5" d="M376.34,180.68l9.54-9.54-9.54-9.54c-5.27,5.27-5.27,13.81,0,19.09h0Z"></path>
    <path class="cls-5" d="M68.04,211.69c5.27-5.27,5.27-13.81,0-19.09l-9.54,9.54,9.54,9.54h0Z"></path>
    <path class="cls-5" d="M48.96,211.69l9.54-9.54-9.54-9.54c-5.27,5.27-5.27,13.81,0,19.09h0Z"></path>
    <path class="cls-5" d="M108.63,211.69c5.27-5.27,5.27-13.81,0-19.09l-9.54,9.54,9.54,9.54h0Z"></path>
    <path class="cls-5" d="M89.54,211.69l9.54-9.54-9.54-9.54c-5.27,5.27-5.27,13.81,0,19.09h0Z"></path>
    <path class="cls-5" d="M149.21,211.69c5.27-5.27,5.27-13.81,0-19.09l-9.54,9.54,9.54,9.54h0Z"></path>
    <path class="cls-5" d="M130.12,211.69l9.54-9.54-9.54-9.54c-5.27,5.27-5.27,13.81,0,19.09h0Z"></path>
    <path class="cls-5" d="M189.79,211.69c5.27-5.27,5.27-13.81,0-19.09l-9.54,9.54,9.54,9.54h0Z"></path>
    <path class="cls-5" d="M170.7,211.69l9.54-9.54-9.54-9.54c-5.27,5.27-5.27,13.81,0,19.09h0Z"></path>
    <path class="cls-5" d="M270.95,211.69c5.27-5.27,5.27-13.81,0-19.09l-9.54,9.54,9.54,9.54h0Z"></path>
    <path class="cls-5" d="M251.87,211.69l9.54-9.54-9.54-9.54c-5.27,5.27-5.27,13.81,0,19.09h0Z"></path>
    <path class="cls-5" d="M311.54,211.69c5.27-5.27,5.27-13.81,0-19.09l-9.54,9.54,9.54,9.54h0Z"></path>
    <path class="cls-5" d="M292.45,211.69l9.54-9.54-9.54-9.54c-5.27,5.27-5.27,13.81,0,19.09h0Z"></path>
    <path class="cls-5" d="M352.12,211.69c5.27-5.27,5.27-13.81,0-19.09l-9.54,9.54,9.54,9.54h0Z"></path>
    <path class="cls-5" d="M333.03,211.69l9.54-9.54-9.54-9.54c-5.27,5.27-5.27,13.81,0,19.09h0Z"></path>
    <path class="cls-5" d="M395.43,211.69c5.27-5.27,5.27-13.81,0-19.09l-9.54,9.54,9.54,9.54h0Z"></path>
    <path class="cls-5" d="M376.34,211.69l9.54-9.54-9.54-9.54c-5.27,5.27-5.27,13.81,0,19.09h0Z"></path>
    <path class="cls-5" d="M68.04,242.71c5.27-5.27,5.27-13.81,0-19.09l-9.54,9.54,9.54,9.54h0Z"></path>
    <path class="cls-5" d="M48.96,242.71l9.54-9.54-9.54-9.54c-5.27,5.27-5.27,13.81,0,19.09h0Z"></path>
    <path class="cls-5" d="M108.63,242.71c5.27-5.27,5.27-13.81,0-19.09l-9.54,9.54,9.54,9.54h0Z"></path>
    <path class="cls-5" d="M89.54,242.71l9.54-9.54-9.54-9.54c-5.27,5.27-5.27,13.81,0,19.09h0Z"></path>
    <path class="cls-5" d="M149.21,242.71c5.27-5.27,5.27-13.81,0-19.09l-9.54,9.54,9.54,9.54h0Z"></path>
    <path class="cls-5" d="M130.12,242.71l9.54-9.54-9.54-9.54c-5.27,5.27-5.27,13.81,0,19.09h0Z"></path>
    <path class="cls-5" d="M189.79,242.71c5.27-5.27,5.27-13.81,0-19.09l-9.54,9.54,9.54,9.54h0Z"></path>
    <path class="cls-5" d="M170.7,242.71l9.54-9.54-9.54-9.54c-5.27,5.27-5.27,13.81,0,19.09h0Z"></path>
    <path class="cls-5" d="M270.95,242.71c5.27-5.27,5.27-13.81,0-19.09l-9.54,9.54,9.54,9.54h0Z"></path>
    <path class="cls-5" d="M251.87,242.71l9.54-9.54-9.54-9.54c-5.27,5.27-5.27,13.81,0,19.09h0Z"></path>
    <path class="cls-5" d="M311.54,242.71c5.27-5.27,5.27-13.81,0-19.09l-9.54,9.54,9.54,9.54h0Z"></path>
    <path class="cls-5" d="M292.45,242.71l9.54-9.54-9.54-9.54c-5.27,5.27-5.27,13.81,0,19.09h0Z"></path>
    <path class="cls-5" d="M352.12,242.71c5.27-5.27,5.27-13.81,0-19.09l-9.54,9.54,9.54,9.54h0Z"></path>
    <path class="cls-5" d="M333.03,242.71l9.54-9.54-9.54-9.54c-5.27,5.27-5.27,13.81,0,19.09h0Z"></path>
    <path class="cls-5" d="M395.43,242.71c5.27-5.27,5.27-13.81,0-19.09l-9.54,9.54,9.54,9.54h0Z"></path>
    <path class="cls-5" d="M376.34,242.71l9.54-9.54-9.54-9.54c-5.27,5.27-5.27,13.81,0,19.09h0Z"></path>
    <path class="cls-5" d="M68.04,273.73c5.27-5.27,5.27-13.81,0-19.09l-9.54,9.54,9.54,9.54h0Z"></path>
    <path class="cls-5" d="M48.96,273.73l9.54-9.54-9.54-9.54c-5.27,5.27-5.27,13.81,0,19.09h0Z"></path>
    <path class="cls-5" d="M108.63,273.73c5.27-5.27,5.27-13.81,0-19.09l-9.54,9.54,9.54,9.54h0Z"></path>
    <path class="cls-5" d="M89.54,273.73l9.54-9.54-9.54-9.54c-5.27,5.27-5.27,13.81,0,19.09h0Z"></path>
    <path class="cls-5" d="M149.21,273.73c5.27-5.27,5.27-13.81,0-19.09l-9.54,9.54,9.54,9.54h0Z"></path>
    <path class="cls-5" d="M130.12,273.73l9.54-9.54-9.54-9.54c-5.27,5.27-5.27,13.81,0,19.09h0Z"></path>
    <path class="cls-5" d="M189.79,273.73c5.27-5.27,5.27-13.81,0-19.09l-9.54,9.54,9.54,9.54h0Z"></path>
    <path class="cls-5" d="M170.7,273.73l9.54-9.54-9.54-9.54c-5.27,5.27-5.27,13.81,0,19.09h0Z"></path>
    <path class="cls-5" d="M270.95,273.73c5.27-5.27,5.27-13.81,0-19.09l-9.54,9.54,9.54,9.54h0Z"></path>
    <path class="cls-5" d="M251.87,273.73l9.54-9.54-9.54-9.54c-5.27,5.27-5.27,13.81,0,19.09h0Z"></path>
    <path class="cls-5" d="M311.54,273.73c5.27-5.27,5.27-13.81,0-19.09l-9.54,9.54,9.54,9.54h0Z"></path>
    <path class="cls-5" d="M292.45,273.73l9.54-9.54-9.54-9.54c-5.27,5.27-5.27,13.81,0,19.09h0Z"></path>
    <path class="cls-5" d="M352.12,273.73c5.27-5.27,5.27-13.81,0-19.09l-9.54,9.54,9.54,9.54h0Z"></path>
    <path class="cls-5" d="M333.03,273.73l9.54-9.54-9.54-9.54c-5.27,5.27-5.27,13.81,0,19.09h0Z"></path>
    <path class="cls-5" d="M395.43,273.73c5.27-5.27,5.27-13.81,0-19.09l-9.54,9.54,9.54,9.54h0Z"></path>
    <path class="cls-5" d="M376.34,273.73l9.54-9.54-9.54-9.54c-5.27,5.27-5.27,13.81,0,19.09h0Z"></path>
    <path class="cls-5" d="M68.04,304.75c5.27-5.27,5.27-13.81,0-19.09l-9.54,9.54,9.54,9.54h0Z"></path>
    <path class="cls-5" d="M48.96,304.75l9.54-9.54-9.54-9.54c-5.27,5.27-5.27,13.81,0,19.09h0Z"></path>
    <path class="cls-5" d="M108.63,304.75c5.27-5.27,5.27-13.81,0-19.09l-9.54,9.54,9.54,9.54h0Z"></path>
    <path class="cls-5" d="M89.54,304.75l9.54-9.54-9.54-9.54c-5.27,5.27-5.27,13.81,0,19.09h0Z"></path>
    <path class="cls-5" d="M149.21,304.75c5.27-5.27,5.27-13.81,0-19.09l-9.54,9.54,9.54,9.54h0Z"></path>
    <path class="cls-5" d="M130.12,304.75l9.54-9.54-9.54-9.54c-5.27,5.27-5.27,13.81,0,19.09h0Z"></path>
    <path class="cls-5" d="M189.79,304.75c5.27-5.27,5.27-13.81,0-19.09l-9.54,9.54,9.54,9.54h0Z"></path>
    <path class="cls-5" d="M170.7,304.75l9.54-9.54-9.54-9.54c-5.27,5.27-5.27,13.81,0,19.09h0Z"></path>
    <path class="cls-5" d="M270.95,304.75c5.27-5.27,5.27-13.81,0-19.09l-9.54,9.54,9.54,9.54h0Z"></path>
    <path class="cls-5" d="M251.87,304.75l9.54-9.54-9.54-9.54c-5.27,5.27-5.27,13.81,0,19.09h0Z"></path>
    <path class="cls-5" d="M311.54,304.75c5.27-5.27,5.27-13.81,0-19.09l-9.54,9.54,9.54,9.54h0Z"></path>
    <path class="cls-5" d="M292.45,304.75l9.54-9.54-9.54-9.54c-5.27,5.27-5.27,13.81,0,19.09h0Z"></path>
    <path class="cls-5" d="M352.12,304.75c5.27-5.27,5.27-13.81,0-19.09l-9.54,9.54,9.54,9.54h0Z"></path>
    <path class="cls-5" d="M333.03,304.75l9.54-9.54-9.54-9.54c-5.27,5.27-5.27,13.81,0,19.09h0Z"></path>
    <path class="cls-5" d="M395.43,304.75c5.27-5.27,5.27-13.81,0-19.09l-9.54,9.54,9.54,9.54h0Z"></path>
    <path class="cls-5" d="M376.34,304.75l9.54-9.54-9.54-9.54c-5.27,5.27-5.27,13.81,0,19.09h0Z"></path>
    <path class="cls-5" d="M68.04,335.77c5.27-5.27,5.27-13.81,0-19.09l-9.54,9.54,9.54,9.54h0Z"></path>
    <path class="cls-5" d="M48.96,335.77l9.54-9.54-9.54-9.54c-5.27,5.27-5.27,13.81,0,19.09h0Z"></path>
    <path class="cls-5" d="M108.63,335.77c5.27-5.27,5.27-13.81,0-19.09l-9.54,9.54,9.54,9.54h0Z"></path>
    <path class="cls-5" d="M89.54,335.77l9.54-9.54-9.54-9.54c-5.27,5.27-5.27,13.81,0,19.09h0Z"></path>
    <path class="cls-5" d="M149.21,335.77c5.27-5.27,5.27-13.81,0-19.09l-9.54,9.54,9.54,9.54h0Z"></path>
    <path class="cls-5" d="M130.12,335.77l9.54-9.54-9.54-9.54c-5.27,5.27-5.27,13.81,0,19.09h0Z"></path>
    <path class="cls-5" d="M189.79,335.77c5.27-5.27,5.27-13.81,0-19.09l-9.54,9.54,9.54,9.54h0Z"></path>
    <path class="cls-5" d="M170.7,335.77l9.54-9.54-9.54-9.54c-5.27,5.27-5.27,13.81,0,19.09h0Z"></path>
    <path class="cls-5" d="M270.95,335.77c5.27-5.27,5.27-13.81,0-19.09l-9.54,9.54,9.54,9.54h0Z"></path>
    <path class="cls-5" d="M251.87,335.77l9.54-9.54-9.54-9.54c-5.27,5.27-5.27,13.81,0,19.09h0Z"></path>
    <path class="cls-5" d="M311.54,335.77c5.27-5.27,5.27-13.81,0-19.09l-9.54,9.54,9.54,9.54h0Z"></path>
    <path class="cls-5" d="M292.45,335.77l9.54-9.54-9.54-9.54c-5.27,5.27-5.27,13.81,0,19.09h0Z"></path>
    <path class="cls-5" d="M352.12,335.77c5.27-5.27,5.27-13.81,0-19.09l-9.54,9.54,9.54,9.54h0Z"></path>
    <path class="cls-5" d="M333.03,335.77l9.54-9.54-9.54-9.54c-5.27,5.27-5.27,13.81,0,19.09h0Z"></path>
    <path class="cls-5" d="M395.43,335.77c5.27-5.27,5.27-13.81,0-19.09l-9.54,9.54,9.54,9.54h0Z"></path>
    <path class="cls-5" d="M376.34,335.77l9.54-9.54-9.54-9.54c-5.27,5.27-5.27,13.81,0,19.09h0Z"></path>
    <path class="cls-5" d="M68.04,366.79c5.27-5.27,5.27-13.81,0-19.09l-9.54,9.54,9.54,9.54h0Z"></path>
    <path class="cls-5" d="M48.96,366.79l9.54-9.54-9.54-9.54c-5.27,5.27-5.27,13.81,0,19.09h0Z"></path>
    <path class="cls-5" d="M108.63,366.79c5.27-5.27,5.27-13.81,0-19.09l-9.54,9.54,9.54,9.54h0Z"></path>
    <path class="cls-5" d="M89.54,366.79l9.54-9.54-9.54-9.54c-5.27,5.27-5.27,13.81,0,19.09h0Z"></path>
    <path class="cls-5" d="M149.21,366.79c5.27-5.27,5.27-13.81,0-19.09l-9.54,9.54,9.54,9.54h0Z"></path>
    <path class="cls-5" d="M130.12,366.79l9.54-9.54-9.54-9.54c-5.27,5.27-5.27,13.81,0,19.09h0Z"></path>
    <path class="cls-5" d="M189.79,366.79c5.27-5.27,5.27-13.81,0-19.09l-9.54,9.54,9.54,9.54h0Z"></path>
    <path class="cls-5" d="M170.7,366.79l9.54-9.54-9.54-9.54c-5.27,5.27-5.27,13.81,0,19.09h0Z"></path>
    <path class="cls-5" d="M270.95,366.79c5.27-5.27,5.27-13.81,0-19.09l-9.54,9.54,9.54,9.54h0Z"></path>
    <path class="cls-5" d="M251.87,366.79l9.54-9.54-9.54-9.54c-5.27,5.27-5.27,13.81,0,19.09h0Z"></path>
    <path class="cls-5" d="M311.54,366.79c5.27-5.27,5.27-13.81,0-19.09l-9.54,9.54,9.54,9.54h0Z"></path>
    <path class="cls-5" d="M292.45,366.79l9.54-9.54-9.54-9.54c-5.27,5.27-5.27,13.81,0,19.09h0Z"></path>
    <path class="cls-5" d="M352.12,366.79c5.27-5.27,5.27-13.81,0-19.09l-9.54,9.54,9.54,9.54h0Z"></path>
    <path class="cls-5" d="M333.03,366.79l9.54-9.54-9.54-9.54c-5.27,5.27-5.27,13.81,0,19.09h0Z"></path>
    <path class="cls-5" d="M395.43,366.79c5.27-5.27,5.27-13.81,0-19.09l-9.54,9.54,9.54,9.54h0Z"></path>
    <path class="cls-5" d="M376.34,366.79l9.54-9.54-9.54-9.54c-5.27,5.27-5.27,13.81,0,19.09h0Z"></path>
    <path class="cls-5" d="M68.04,397.8c5.27-5.27,5.27-13.81,0-19.09l-9.54,9.54,9.54,9.54h0Z"></path>
    <path class="cls-5" d="M48.96,397.8l9.54-9.54-9.54-9.54c-5.27,5.27-5.27,13.81,0,19.09h0Z"></path>
    <path class="cls-5" d="M108.63,397.8c5.27-5.27,5.27-13.81,0-19.09l-9.54,9.54,9.54,9.54h0Z"></path>
    <path class="cls-5" d="M89.54,397.8l9.54-9.54-9.54-9.54c-5.27,5.27-5.27,13.81,0,19.09h0Z"></path>
    <path class="cls-5" d="M149.21,397.8c5.27-5.27,5.27-13.81,0-19.09l-9.54,9.54,9.54,9.54h0Z"></path>
    <path class="cls-5" d="M130.12,397.8l9.54-9.54-9.54-9.54c-5.27,5.27-5.27,13.81,0,19.09h0Z"></path>
    <path class="cls-5" d="M189.79,397.8c5.27-5.27,5.27-13.81,0-19.09l-9.54,9.54,9.54,9.54h0Z"></path>
    <path class="cls-5" d="M170.7,397.8l9.54-9.54-9.54-9.54c-5.27,5.27-5.27,13.81,0,19.09h0Z"></path>
    <path class="cls-5" d="M270.95,397.8c5.27-5.27,5.27-13.81,0-19.09l-9.54,9.54,9.54,9.54h0Z"></path>
    <path class="cls-5" d="M251.87,397.8l9.54-9.54-9.54-9.54c-5.27,5.27-5.27,13.81,0,19.09h0Z"></path>
    <path class="cls-5" d="M311.54,397.8c5.27-5.27,5.27-13.81,0-19.09l-9.54,9.54,9.54,9.54h0Z"></path>
    <path class="cls-5" d="M292.45,397.8l9.54-9.54-9.54-9.54c-5.27,5.27-5.27,13.81,0,19.09h0Z"></path>
    <path class="cls-5" d="M352.12,397.8c5.27-5.27,5.27-13.81,0-19.09l-9.54,9.54,9.54,9.54h0Z"></path>
    <path class="cls-5" d="M333.03,397.8l9.54-9.54-9.54-9.54c-5.27,5.27-5.27,13.81,0,19.09h0Z"></path>
    <path class="cls-5" d="M395.43,397.8c5.27-5.27,5.27-13.81,0-19.09l-9.54,9.54,9.54,9.54h0Z"></path>
    <path class="cls-5" d="M376.34,397.8l9.54-9.54-9.54-9.54c-5.27,5.27-5.27,13.81,0,19.09h0Z"></path>
    <path class="cls-5" d="M68.04,428.83c5.27-5.27,5.27-13.81,0-19.09l-9.54,9.54,9.54,9.54h0Z"></path>
    <path class="cls-5" d="M48.96,428.83l9.54-9.54-9.54-9.54c-5.27,5.27-5.27,13.81,0,19.09h0Z"></path>
    <path class="cls-5" d="M108.63,428.83c5.27-5.27,5.27-13.81,0-19.09l-9.54,9.54,9.54,9.54h0Z"></path>
    <path class="cls-5" d="M89.54,428.83l9.54-9.54-9.54-9.54c-5.27,5.27-5.27,13.81,0,19.09h0Z"></path>
    <path class="cls-5" d="M149.21,428.83c5.27-5.27,5.27-13.81,0-19.09l-9.54,9.54,9.54,9.54h0Z"></path>
    <path class="cls-5" d="M130.12,428.83l9.54-9.54-9.54-9.54c-5.27,5.27-5.27,13.81,0,19.09h0Z"></path>
    <path class="cls-5" d="M189.79,428.83c5.27-5.27,5.27-13.81,0-19.09l-9.54,9.54,9.54,9.54h0Z"></path>
    <path class="cls-5" d="M170.7,428.83l9.54-9.54-9.54-9.54c-5.27,5.27-5.27,13.81,0,19.09h0Z"></path>
    <path class="cls-5" d="M270.95,428.83c5.27-5.27,5.27-13.81,0-19.09l-9.54,9.54,9.54,9.54h0Z"></path>
    <path class="cls-5" d="M251.87,428.83l9.54-9.54-9.54-9.54c-5.27,5.27-5.27,13.81,0,19.09h0Z"></path>
    <path class="cls-5" d="M311.54,428.83c5.27-5.27,5.27-13.81,0-19.09l-9.54,9.54,9.54,9.54h0Z"></path>
    <path class="cls-5" d="M292.45,428.83l9.54-9.54-9.54-9.54c-5.27,5.27-5.27,13.81,0,19.09h0Z"></path>
    <path class="cls-5" d="M352.12,428.83c5.27-5.27,5.27-13.81,0-19.09l-9.54,9.54,9.54,9.54h0Z"></path>
    <path class="cls-5" d="M333.03,428.83l9.54-9.54-9.54-9.54c-5.27,5.27-5.27,13.81,0,19.09h0Z"></path>
    <path class="cls-5" d="M395.43,428.83c5.27-5.27,5.27-13.81,0-19.09l-9.54,9.54,9.54,9.54h0Z"></path>
    <path class="cls-5" d="M376.34,428.83l9.54-9.54-9.54-9.54c-5.27,5.27-5.27,13.81,0,19.09h0Z"></path>
    <path class="cls-5" d="M68.04,459.84c5.27-5.27,5.27-13.81,0-19.09l-9.54,9.54,9.54,9.54h0Z"></path>
    <path class="cls-5" d="M48.96,459.84l9.54-9.54-9.54-9.54c-5.27,5.27-5.27,13.81,0,19.09h0Z"></path>
    <path class="cls-5" d="M108.63,459.84c5.27-5.27,5.27-13.81,0-19.09l-9.54,9.54,9.54,9.54h0Z"></path>
    <path class="cls-5" d="M89.54,459.84l9.54-9.54-9.54-9.54c-5.27,5.27-5.27,13.81,0,19.09h0Z"></path>
    <path class="cls-5" d="M149.21,459.84c5.27-5.27,5.27-13.81,0-19.09l-9.54,9.54,9.54,9.54h0Z"></path>
    <path class="cls-5" d="M130.12,459.84l9.54-9.54-9.54-9.54c-5.27,5.27-5.27,13.81,0,19.09h0Z"></path>
    <path class="cls-5" d="M189.79,459.84c5.27-5.27,5.27-13.81,0-19.09l-9.54,9.54,9.54,9.54h0Z"></path>
    <path class="cls-5" d="M170.7,459.84l9.54-9.54-9.54-9.54c-5.27,5.27-5.27,13.81,0,19.09h0Z"></path>
    <path class="cls-5" d="M270.95,459.84c5.27-5.27,5.27-13.81,0-19.09l-9.54,9.54,9.54,9.54h0Z"></path>
    <path class="cls-5" d="M251.87,459.84l9.54-9.54-9.54-9.54c-5.27,5.27-5.27,13.81,0,19.09h0Z"></path>
    <path class="cls-5" d="M311.54,459.84c5.27-5.27,5.27-13.81,0-19.09l-9.54,9.54,9.54,9.54h0Z"></path>
    <path class="cls-5" d="M292.45,459.84l9.54-9.54-9.54-9.54c-5.27,5.27-5.27,13.81,0,19.09h0Z"></path>
    <path class="cls-5" d="M352.12,459.84c5.27-5.27,5.27-13.81,0-19.09l-9.54,9.54,9.54,9.54h0Z"></path>
    <path class="cls-5" d="M333.03,459.84l9.54-9.54-9.54-9.54c-5.27,5.27-5.27,13.81,0,19.09h0Z"></path>
    <path class="cls-5" d="M395.43,459.84c5.27-5.27,5.27-13.81,0-19.09l-9.54,9.54,9.54,9.54h0Z"></path>
    <path class="cls-5" d="M376.34,459.84l9.54-9.54-9.54-9.54c-5.27,5.27-5.27,13.81,0,19.09h0Z"></path>
    <path class="cls-5" d="M68.04,490.86c5.27-5.27,5.27-13.81,0-19.09l-9.54,9.54,9.54,9.54h0Z"></path>
    <path class="cls-5" d="M48.96,490.86l9.54-9.54-9.54-9.54c-5.27,5.27-5.27,13.81,0,19.09h0Z"></path>
    <path class="cls-5" d="M108.63,490.86c5.27-5.27,5.27-13.81,0-19.09l-9.54,9.54,9.54,9.54h0Z"></path>
    <path class="cls-5" d="M89.54,490.86l9.54-9.54-9.54-9.54c-5.27,5.27-5.27,13.81,0,19.09h0Z"></path>
    <path class="cls-5" d="M149.21,490.86c5.27-5.27,5.27-13.81,0-19.09l-9.54,9.54,9.54,9.54h0Z"></path>
    <path class="cls-5" d="M130.12,490.86l9.54-9.54-9.54-9.54c-5.27,5.27-5.27,13.81,0,19.09h0Z"></path>
    <path class="cls-5" d="M189.79,490.86c5.27-5.27,5.27-13.81,0-19.09l-9.54,9.54,9.54,9.54h0Z"></path>
    <path class="cls-5" d="M170.7,490.86l9.54-9.54-9.54-9.54c-5.27,5.27-5.27,13.81,0,19.09h0Z"></path>
    <path class="cls-5" d="M270.95,490.86c5.27-5.27,5.27-13.81,0-19.09l-9.54,9.54,9.54,9.54h0Z"></path>
    <path class="cls-5" d="M251.87,490.86l9.54-9.54-9.54-9.54c-5.27,5.27-5.27,13.81,0,19.09h0Z"></path>
    <path class="cls-5" d="M311.54,490.86c5.27-5.27,5.27-13.81,0-19.09l-9.54,9.54,9.54,9.54h0Z"></path>
    <path class="cls-5" d="M292.45,490.86l9.54-9.54-9.54-9.54c-5.27,5.27-5.27,13.81,0,19.09h0Z"></path>
    <path class="cls-5" d="M352.12,490.86c5.27-5.27,5.27-13.81,0-19.09l-9.54,9.54,9.54,9.54h0Z"></path>
    <path class="cls-5" d="M333.03,490.86l9.54-9.54-9.54-9.54c-5.27,5.27-5.27,13.81,0,19.09h0Z"></path>
    <path class="cls-5" d="M395.43,490.86c5.27-5.27,5.27-13.81,0-19.09l-9.54,9.54,9.54,9.54h0Z"></path>
    <path class="cls-5" d="M376.34,490.86l9.54-9.54-9.54-9.54c-5.27,5.27-5.27,13.81,0,19.09h0Z"></path>
    <path class="cls-5" d="M68.04,521.88c5.27-5.27,5.27-13.81,0-19.09l-9.54,9.54,9.54,9.54h0Z"></path>
    <path class="cls-5" d="M48.96,521.88l9.54-9.54-9.54-9.54c-5.27,5.27-5.27,13.81,0,19.09h0Z"></path>
    <path class="cls-5" d="M108.63,521.88c5.27-5.27,5.27-13.81,0-19.09l-9.54,9.54,9.54,9.54h0Z"></path>
    <path class="cls-5" d="M89.54,521.88l9.54-9.54-9.54-9.54c-5.27,5.27-5.27,13.81,0,19.09h0Z"></path>
    <path class="cls-5" d="M149.21,521.88c5.27-5.27,5.27-13.81,0-19.09l-9.54,9.54,9.54,9.54h0Z"></path>
    <path class="cls-5" d="M130.12,521.88l9.54-9.54-9.54-9.54c-5.27,5.27-5.27,13.81,0,19.09h0Z"></path>
    <path class="cls-5" d="M189.79,521.88c5.27-5.27,5.27-13.81,0-19.09l-9.54,9.54,9.54,9.54h0Z"></path>
    <path class="cls-5" d="M170.7,521.88l9.54-9.54-9.54-9.54c-5.27,5.27-5.27,13.81,0,19.09h0Z"></path>
    <path class="cls-5" d="M270.95,521.88c5.27-5.27,5.27-13.81,0-19.09l-9.54,9.54,9.54,9.54h0Z"></path>
    <path class="cls-5" d="M251.87,521.88l9.54-9.54-9.54-9.54c-5.27,5.27-5.27,13.81,0,19.09h0Z"></path>
    <path class="cls-5" d="M311.54,521.88c5.27-5.27,5.27-13.81,0-19.09l-9.54,9.54,9.54,9.54h0Z"></path>
    <path class="cls-5" d="M292.45,521.88l9.54-9.54-9.54-9.54c-5.27,5.27-5.27,13.81,0,19.09h0Z"></path>
    <path class="cls-5" d="M352.12,521.88c5.27-5.27,5.27-13.81,0-19.09l-9.54,9.54,9.54,9.54h0Z"></path>
    <path class="cls-5" d="M333.03,521.88l9.54-9.54-9.54-9.54c-5.27,5.27-5.27,13.81,0,19.09h0Z"></path>
    <path class="cls-5" d="M395.43,521.88c5.27-5.27,5.27-13.81,0-19.09l-9.54,9.54,9.54,9.54h0Z"></path>
    <path class="cls-5" d="M376.34,521.88l9.54-9.54-9.54-9.54c-5.27,5.27-5.27,13.81,0,19.09h0Z"></path>
    <g class="cls-4">
      <path class="cls-7" d="M27.46,56.6c5.27-5.27,5.27-13.81,0-19.09l-9.54,9.54,9.54,9.54h0Z"></path>
      <path class="cls-7" d="M8.38,56.6l9.54-9.54-9.54-9.54c-5.27,5.27-5.27,13.81,0,19.09h0Z"></path>
    </g>
    <g class="cls-4">
      <path class="cls-7" d="M27.46,87.62c5.27-5.27,5.27-13.81,0-19.09l-9.54,9.54,9.54,9.54h0Z"></path>
      <path class="cls-7" d="M8.38,87.62l9.54-9.54-9.54-9.54c-5.27,5.27-5.27,13.81,0,19.09h0Z"></path>
    </g>
    <g class="cls-4">
      <path class="cls-7" d="M27.46,118.64c5.27-5.27,5.27-13.81,0-19.09l-9.54,9.54,9.54,9.54h0Z"></path>
      <path class="cls-7" d="M8.38,118.64l9.54-9.54-9.54-9.54c-5.27,5.27-5.27,13.81,0,19.09h0Z"></path>
    </g>
    <g class="cls-4">
      <path class="cls-7" d="M27.46,149.65c5.27-5.27,5.27-13.81,0-19.09l-9.54,9.54,9.54,9.54h0Z"></path>
      <path class="cls-7" d="M8.38,149.65l9.54-9.54-9.54-9.54c-5.27,5.27-5.27,13.81,0,19.09h0Z"></path>
    </g>
    <g class="cls-4">
      <path class="cls-7" d="M27.46,180.68c5.27-5.27,5.27-13.81,0-19.09l-9.54,9.54,9.54,9.54h0Z"></path>
      <path class="cls-7" d="M8.38,180.68l9.54-9.54-9.54-9.54c-5.27,5.27-5.27,13.81,0,19.09h0Z"></path>
    </g>
    <g class="cls-4">
      <path class="cls-7" d="M27.46,211.69c5.27-5.27,5.27-13.81,0-19.09l-9.54,9.54,9.54,9.54h0Z"></path>
      <path class="cls-7" d="M8.38,211.69l9.54-9.54-9.54-9.54c-5.27,5.27-5.27,13.81,0,19.09h0Z"></path>
    </g>
    <g class="cls-4">
      <path class="cls-7" d="M27.46,242.71c5.27-5.27,5.27-13.81,0-19.09l-9.54,9.54,9.54,9.54h0Z"></path>
      <path class="cls-7" d="M8.38,242.71l9.54-9.54-9.54-9.54c-5.27,5.27-5.27,13.81,0,19.09h0Z"></path>
    </g>
    <g class="cls-4">
      <path class="cls-7" d="M27.46,273.73c5.27-5.27,5.27-13.81,0-19.09l-9.54,9.54,9.54,9.54h0Z"></path>
      <path class="cls-7" d="M8.38,273.73l9.54-9.54-9.54-9.54c-5.27,5.27-5.27,13.81,0,19.09h0Z"></path>
    </g>
    <g class="cls-4">
      <path class="cls-7" d="M27.46,304.75c5.27-5.27,5.27-13.81,0-19.09l-9.54,9.54,9.54,9.54h0Z"></path>
      <path class="cls-7" d="M8.38,304.75l9.54-9.54-9.54-9.54c-5.27,5.27-5.27,13.81,0,19.09h0Z"></path>
    </g>
    <g class="cls-4">
      <path class="cls-7" d="M27.46,335.77c5.27-5.27,5.27-13.81,0-19.09l-9.54,9.54,9.54,9.54h0Z"></path>
      <path class="cls-7" d="M8.38,335.77l9.54-9.54-9.54-9.54c-5.27,5.27-5.27,13.81,0,19.09h0Z"></path>
    </g>
    <g class="cls-4">
      <path class="cls-7" d="M27.46,366.79c5.27-5.27,5.27-13.81,0-19.09l-9.54,9.54,9.54,9.54h0Z"></path>
      <path class="cls-7" d="M8.38,366.79l9.54-9.54-9.54-9.54c-5.27,5.27-5.27,13.81,0,19.09h0Z"></path>
    </g>
    <g class="cls-4">
      <path class="cls-7" d="M27.46,397.8c5.27-5.27,5.27-13.81,0-19.09l-9.54,9.54,9.54,9.54h0Z"></path>
      <path class="cls-7" d="M8.38,397.8l9.54-9.54-9.54-9.54c-5.27,5.27-5.27,13.81,0,19.09h0Z"></path>
    </g>
    <g class="cls-4">
      <path class="cls-7" d="M27.46,428.83c5.27-5.27,5.27-13.81,0-19.09l-9.54,9.54,9.54,9.54h0Z"></path>
      <path class="cls-7" d="M8.38,428.83l9.54-9.54-9.54-9.54c-5.27,5.27-5.27,13.81,0,19.09h0Z"></path>
    </g>
    <g class="cls-4">
      <path class="cls-7" d="M27.46,459.84c5.27-5.27,5.27-13.81,0-19.09l-9.54,9.54,9.54,9.54h0Z"></path>
      <path class="cls-7" d="M8.38,459.84l9.54-9.54-9.54-9.54c-5.27,5.27-5.27,13.81,0,19.09h0Z"></path>
    </g>
    <g class="cls-4">
      <path class="cls-7" d="M27.46,490.86c5.27-5.27,5.27-13.81,0-19.09l-9.54,9.54,9.54,9.54h0Z"></path>
      <path class="cls-7" d="M8.38,490.86l9.54-9.54-9.54-9.54c-5.27,5.27-5.27,13.81,0,19.09h0Z"></path>
    </g>
    <g class="cls-4">
      <path class="cls-7" d="M27.46,521.88c5.27-5.27,5.27-13.81,0-19.09l-9.54,9.54,9.54,9.54h0Z"></path>
      <path class="cls-7" d="M8.38,521.88l9.54-9.54-9.54-9.54c-5.27,5.27-5.27,13.81,0,19.09h0Z"></path>
    </g>
    <g class="cls-4">
      <path class="cls-7" d="M27.46,25.58c5.27-5.27,5.27-13.81,0-19.09l-9.54,9.54,9.54,9.54h0Z"></path>
      <path class="cls-7" d="M8.38,25.58l9.54-9.54L8.38,6.5c-5.27,5.27-5.27,13.81,0,19.09h0Z"></path>
    </g>
    <path class="cls-5" d="M68.04,25.58c5.27-5.27,5.27-13.81,0-19.09l-9.54,9.54,9.54,9.54h0Z"></path>
    <path class="cls-5" d="M48.96,25.58l9.54-9.54-9.54-9.54c-5.27,5.27-5.27,13.81,0,19.09h0Z"></path>
    <path class="cls-5" d="M108.63,25.58c5.27-5.27,5.27-13.81,0-19.09l-9.54,9.54,9.54,9.54h0Z"></path>
    <path class="cls-5" d="M89.54,25.58l9.54-9.54-9.54-9.54c-5.27,5.27-5.27,13.81,0,19.09h0Z"></path>
    <path class="cls-5" d="M149.21,25.58c5.27-5.27,5.27-13.81,0-19.09l-9.54,9.54,9.54,9.54h0Z"></path>
    <path class="cls-5" d="M130.12,25.58l9.54-9.54-9.54-9.54c-5.27,5.27-5.27,13.81,0,19.09h0Z"></path>
    <path class="cls-5" d="M189.79,25.58c5.27-5.27,5.27-13.81,0-19.09l-9.54,9.54,9.54,9.54h0Z"></path>
    <path class="cls-5" d="M170.7,25.58l9.54-9.54-9.54-9.54c-5.27,5.27-5.27,13.81,0,19.09h0Z"></path>
    <g class="cls-4">
      <path class="cls-7" d="M230.37,56.6c5.27-5.27,5.27-13.81,0-19.09l-9.54,9.54,9.54,9.54h0Z"></path>
      <path class="cls-7" d="M211.29,56.6l9.54-9.54-9.54-9.54c-5.27,5.27-5.27,13.81,0,19.09h0Z"></path>
    </g>
    <g class="cls-4">
      <path class="cls-7" d="M230.37,87.62c5.27-5.27,5.27-13.81,0-19.09l-9.54,9.54,9.54,9.54h0Z"></path>
      <path class="cls-7" d="M211.29,87.62l9.54-9.54-9.54-9.54c-5.27,5.27-5.27,13.81,0,19.09h0Z"></path>
    </g>
    <g class="cls-4">
      <path class="cls-7" d="M230.37,118.64c5.27-5.27,5.27-13.81,0-19.09l-9.54,9.54,9.54,9.54h0Z"></path>
      <path class="cls-7" d="M211.29,118.64l9.54-9.54-9.54-9.54c-5.27,5.27-5.27,13.81,0,19.09h0Z"></path>
    </g>
    <g class="cls-4">
      <path class="cls-7" d="M230.37,149.65c5.27-5.27,5.27-13.81,0-19.09l-9.54,9.54,9.54,9.54h0Z"></path>
      <path class="cls-7" d="M211.29,149.65l9.54-9.54-9.54-9.54c-5.27,5.27-5.27,13.81,0,19.09h0Z"></path>
    </g>
    <g class="cls-4">
      <path class="cls-7" d="M230.37,180.68c5.27-5.27,5.27-13.81,0-19.09l-9.54,9.54,9.54,9.54h0Z"></path>
      <path class="cls-7" d="M211.29,180.68l9.54-9.54-9.54-9.54c-5.27,5.27-5.27,13.81,0,19.09h0Z"></path>
    </g>
    <g class="cls-4">
      <path class="cls-7" d="M230.37,211.69c5.27-5.27,5.27-13.81,0-19.09l-9.54,9.54,9.54,9.54h0Z"></path>
      <path class="cls-7" d="M211.29,211.69l9.54-9.54-9.54-9.54c-5.27,5.27-5.27,13.81,0,19.09h0Z"></path>
    </g>
    <g class="cls-4">
      <path class="cls-7" d="M230.37,242.71c5.27-5.27,5.27-13.81,0-19.09l-9.54,9.54,9.54,9.54h0Z"></path>
      <path class="cls-7" d="M211.29,242.71l9.54-9.54-9.54-9.54c-5.27,5.27-5.27,13.81,0,19.09h0Z"></path>
    </g>
    <g class="cls-4">
      <path class="cls-7" d="M230.37,273.73c5.27-5.27,5.27-13.81,0-19.09l-9.54,9.54,9.54,9.54h0Z"></path>
      <path class="cls-7" d="M211.29,273.73l9.54-9.54-9.54-9.54c-5.27,5.27-5.27,13.81,0,19.09h0Z"></path>
    </g>
    <g class="cls-4">
      <path class="cls-7" d="M230.37,304.75c5.27-5.27,5.27-13.81,0-19.09l-9.54,9.54,9.54,9.54h0Z"></path>
      <path class="cls-7" d="M211.29,304.75l9.54-9.54-9.54-9.54c-5.27,5.27-5.27,13.81,0,19.09h0Z"></path>
    </g>
    <g class="cls-4">
      <path class="cls-7" d="M230.37,335.77c5.27-5.27,5.27-13.81,0-19.09l-9.54,9.54,9.54,9.54h0Z"></path>
      <path class="cls-7" d="M211.29,335.77l9.54-9.54-9.54-9.54c-5.27,5.27-5.27,13.81,0,19.09h0Z"></path>
    </g>
    <g class="cls-4">
      <path class="cls-7" d="M230.37,366.79c5.27-5.27,5.27-13.81,0-19.09l-9.54,9.54,9.54,9.54h0Z"></path>
      <path class="cls-7" d="M211.29,366.79l9.54-9.54-9.54-9.54c-5.27,5.27-5.27,13.81,0,19.09h0Z"></path>
    </g>
    <g class="cls-4">
      <path class="cls-7" d="M230.37,397.8c5.27-5.27,5.27-13.81,0-19.09l-9.54,9.54,9.54,9.54h0Z"></path>
      <path class="cls-7" d="M211.29,397.8l9.54-9.54-9.54-9.54c-5.27,5.27-5.27,13.81,0,19.09h0Z"></path>
    </g>
    <g class="cls-4">
      <path class="cls-7" d="M230.37,428.83c5.27-5.27,5.27-13.81,0-19.09l-9.54,9.54,9.54,9.54h0Z"></path>
      <path class="cls-7" d="M211.29,428.83l9.54-9.54-9.54-9.54c-5.27,5.27-5.27,13.81,0,19.09h0Z"></path>
    </g>
    <g class="cls-4">
      <path class="cls-7" d="M230.37,459.84c5.27-5.27,5.27-13.81,0-19.09l-9.54,9.54,9.54,9.54h0Z"></path>
      <path class="cls-7" d="M211.29,459.84l9.54-9.54-9.54-9.54c-5.27,5.27-5.27,13.81,0,19.09h0Z"></path>
    </g>
    <g class="cls-4">
      <path class="cls-7" d="M230.37,490.86c5.27-5.27,5.27-13.81,0-19.09l-9.54,9.54,9.54,9.54h0Z"></path>
      <path class="cls-7" d="M211.29,490.86l9.54-9.54-9.54-9.54c-5.27,5.27-5.27,13.81,0,19.09h0Z"></path>
    </g>
    <g class="cls-4">
      <path class="cls-7" d="M230.37,521.88c5.27-5.27,5.27-13.81,0-19.09l-9.54,9.54,9.54,9.54h0Z"></path>
      <path class="cls-7" d="M211.29,521.88l9.54-9.54-9.54-9.54c-5.27,5.27-5.27,13.81,0,19.09h0Z"></path>
    </g>
    <g class="cls-4">
      <path class="cls-7" d="M230.37,25.58c5.27-5.27,5.27-13.81,0-19.09l-9.54,9.54,9.54,9.54h0Z"></path>
      <path class="cls-7" d="M211.29,25.58l9.54-9.54-9.54-9.54c-5.27,5.27-5.27,13.81,0,19.09h0Z"></path>
    </g>
    <path class="cls-5" d="M270.95,25.58c5.27-5.27,5.27-13.81,0-19.09l-9.54,9.54,9.54,9.54h0Z"></path>
    <path class="cls-5" d="M251.87,25.58l9.54-9.54-9.54-9.54c-5.27,5.27-5.27,13.81,0,19.09h0Z"></path>
    <path class="cls-5" d="M311.54,25.58c5.27-5.27,5.27-13.81,0-19.09l-9.54,9.54,9.54,9.54h0Z"></path>
    <path class="cls-5" d="M292.45,25.58l9.54-9.54-9.54-9.54c-5.27,5.27-5.27,13.81,0,19.09h0Z"></path>
    <path class="cls-5" d="M352.12,25.58c5.27-5.27,5.27-13.81,0-19.09l-9.54,9.54,9.54,9.54h0Z"></path>
    <path class="cls-5" d="M333.03,25.58l9.54-9.54-9.54-9.54c-5.27,5.27-5.27,13.81,0,19.09h0Z"></path>
    <path class="cls-5" d="M395.43,25.58c5.27-5.27,5.27-13.81,0-19.09l-9.54,9.54,9.54,9.54h0Z"></path>
    <path class="cls-5" d="M376.34,25.58l9.54-9.54-9.54-9.54c-5.27,5.27-5.27,13.81,0,19.09h0Z"></path>
  </g>
  <circle class="cls-8" cx="202.5" cy="478.39" r="45"></circle>
  <text class="cls-12" transform="translate(63.56 118.64)">
    <tspan class="cls-11" x="0" y="0">B</tspan>
    <tspan x="12.41" y="0">ring b</tspan>
    <tspan class="cls-18" x="62.07" y="0">l</tspan>
    <tspan x="66.93" y="0">oc</tspan>
    <tspan class="cls-16" x="88.01" y="0">k</tspan>
    <tspan x="96.96" y="0">chain </tspan>
    <tspan class="cls-13" x="148.87" y="0">t</tspan>
    <tspan class="cls-21" x="155.86" y="0">o the peop</tspan>
    <tspan class="cls-22" x="251.76" y="0">l</tspan>
    <tspan x="256.62" y="0">e. </tspan>
    <tspan x="0" y="36">Solana supports </tspan>
    <tspan class="cls-18" x="147.17" y="36">e</tspan>
    <tspan x="157.81" y="36">xperien</tspan>
    <tspan class="cls-15" x="223.79" y="36">c</tspan>
    <tspan x="233.18" y="36">es </tspan>
    <tspan class="cls-20" x="0" y="72">f</tspan>
    <tspan class="cls-21" x="6.74" y="72">or p</tspan>
    <tspan class="cls-18" x="41.35" y="72">ow</tspan>
    <tspan x="67.91" y="72">er users, new </tspan>
    <tspan class="cls-14" x="187.51" y="72">c</tspan>
    <tspan class="cls-10" x="196.89" y="72">onsumers, </tspan>
    <tspan x="0" y="108">and </tspan>
    <tspan class="cls-13" x="38.2" y="108">e</tspan>
    <tspan class="cls-9" x="48.87" y="108">v</tspan>
    <tspan x="59.01" y="108">er</tspan>
    <tspan class="cls-19" x="76.4" y="108">y</tspan>
    <tspan x="86.79" y="108">one in bet</tspan>
    <tspan class="cls-3" x="175.96" y="108">w</tspan>
    <tspan x="191.08" y="108">een.</tspan>
  </text>
  <g>
    <path class="cls-17" d="M182.25,492.77c.36-.36,.86-.57,1.39-.57h47.88c.87,0,1.31,1.06,.69,1.67l-9.46,9.46c-.36,.36-.86,.57-1.39,.57h-47.88c-.87,0-1.31-1.06-.69-1.67l9.46-9.46Z"></path>
    <path class="cls-2" d="M182.25,457.45c.38-.36,.87-.57,1.39-.57h47.88c.87,0,1.31,1.06,.69,1.67l-9.46,9.46c-.36,.36-.86,.57-1.39,.57h-47.88c-.87,0-1.31-1.06-.69-1.67l9.46-9.46Z"></path>
    <path class="cls-1" d="M222.75,475c-.36-.36-.86-.57-1.39-.57h-47.88c-.87,0-1.31,1.06-.69,1.67l9.46,9.46c.36,.36,.86,.57,1.39,.57h47.88c.87,0,1.31-1.06,.69-1.67l-9.46-9.46Z"></path>
  </g>
</svg>
